<?xml version="1.0" encoding="utf-8"?>
<!-- Generator: Adobe Illustrator 16.0.0, SVG Export Plug-In . SVG Version: 6.00 Build 0)  -->
<!DOCTYPE svg PUBLIC "-//W3C//DTD SVG 1.1//EN" "http://www.w3.org/Graphics/SVG/1.1/DTD/svg11.dtd">
<svg version="1.1" id="Layer_1" xmlns="http://www.w3.org/2000/svg" xmlns:xlink="http://www.w3.org/1999/xlink" x="0px" y="0px"
	 width="800px" height="392.591px" viewBox="-272 -236.743 800 392.591" enable-background="new -272 -236.743 800 392.591"
	 xml:space="preserve">
<g>
	<path d="M32.15,21.287c0-16.762,1.804-26.201,8.933-40.342c6.998-13.887,17.879-25.69,30.986-33.965
		c22.659-14.312,61.934-18.651,86.396-7.814c2.742,1.218,4.643,1.946,7.281,3.268c9.147,4.6,17.764,11.19,24.887,18.478
		c27.18,27.839,28.618,77.902,5.525,108.387c-9.369,12.362-22.4,22.248-36.943,28.087c-10.724,4.315-25.094,7.751-36.658,7.425
		c-3.498-0.102-16.049-1.509-19.498-2.293c-20.7-4.704-28.861-10.349-43.052-22.068c-4.138-3.417-6.892-6.716-10.496-11.16
		C39.798,57.315,32.15,38.242,32.15,21.287L32.15,21.287z M216.015-82.541c-3.395-2.238-7.062-6.297-13.948-10.819
		c-4.948-3.25-10.438-6.246-16.146-8.664c-54.056-22.922-107.333-19.342-153.765,16.409c-4.378,3.373-9.163,7.62-12.986,11.776
		c-2.252,2.454-3.692,3.738-5.908,6.458c-82.728,101.323,3.146,245.009,139.866,218.35c24.207-4.723,40.396-13.301,57.904-28.932
		v21.503h52.353v-380.285h-47.364v154.202H216.015z"/>
	<path d="M-155.454,115.284c-21.9,0-43.824-2.376-55.75-21.842c-9.866-16.095-1.316-36.694,13.107-46.001
		c7.772-5.016,15.8-5.986,26.436-7.725c31.618-5.177,55.96-8.942,86.631-17.816c0,32.699,0.479,47.609-14.246,67.049
		C-111.902,105.63-134.35,115.284-155.454,115.284L-155.454,115.284z M-263.272-36.461l51.406,7.806
		c4.53,0.194-0.388-3.364,7.795-18.87c14.223-26.983,62.563-36.461,90.466-26.492c29.945,10.696,27.08,26.645,30.456,52.918
		c-15.979,8.332-47.174,10.535-67.133,13.082c-2.116,0.263-5.866,0.407-8.547,0.79l-16.216,1.834
		c-22.136,3.472-35.913,8.389-54.363,17.675c-4.223,2.125-7.253,4.346-11.053,6.925c-12.828,8.709-27.916,25.986-29.942,41.749
		L-272,77.19c0,12.354,3.436,26.614,8.217,34.294c5.515,8.877,11.829,16.46,19.909,22.76c4.216,3.283,7.583,5.782,12.602,8.479
		c40.948,21.985,106.448,15.594,142.942-13.497l8.295-6.569c1.072,2.212,1.967,5.516,2.878,8.222l5.942,17.483
		c0.777,1.876,0.917,1.876,3.583,1.996c12.488,0.548,39.64-0.063,53.661-0.063c-1.488-6.303-11.115-13.698-15.135-33.618
		c-11.662-57.77,12.251-172.03-21.796-209.509c-6.309-6.946-2.693-3.337-9.029-8.918c-26.481-23.316-96.557-23.661-129.723-12.666
		c-22.813,7.563-46.324,21.399-59.665,41.324C-256.71-62.043-263.272-50.64-263.272-36.461L-263.272-36.461z"/>
	<path d="M280.83,143.542h243.072V77.809H346.273V-234.9c0-1.416-0.434-1.843-1.873-1.843h-63.57V143.542L280.83,143.542z"/>
</g>
</svg>
