<svg xmlns="http://www.w3.org/2000/svg" id="Layer_2" width="146.32" height="50" viewBox="0 0 146.32 50"><defs><style>      .cls-1 {        fill: #fff;      }      .cls-2 {        fill: none;      }      .cls-3 {        fill: #030303;      }    </style></defs><g id="Layer_1-2" data-name="Layer_1"><g><g><g><path class="cls-1" d="M125.93,15.99c-.02-.18,0-.37.06-.57.06-.2.17-.39.31-.57.14-.18.3-.34.48-.47.18-.13.38-.24.6-.32.22-.08.43-.12.64-.12s.4.04.56.12c.17.08.3.18.39.32.1.13.15.29.18.47.02.18,0,.37-.06.57-.06.2-.17.39-.31.57-.14.18-.3.34-.48.47-.18.13-.38.24-.6.32-.22.08-.43.12-.64.12s-.4-.04-.56-.12c-.17-.08-.3-.18-.39-.32-.1-.13-.15-.29-.18-.47ZM126.28,15.42c-.11.33-.08.62.09.87.11.16.27.26.46.32.2.05.42.05.65,0,.23-.06.46-.16.67-.32.22-.16.39-.34.51-.55.13-.21.19-.42.2-.63,0-.21-.04-.39-.15-.55-.11-.15-.26-.26-.46-.31-.2-.05-.42-.05-.65,0-.24.05-.46.16-.67.31-.16.12-.3.25-.41.4-.11.15-.2.31-.25.47ZM127.08,16.25h-.36l.55-1.69h.56c.11,0,.19,0,.25.02.05.02.1.04.14.08.07.07.1.16.09.27-.02.15-.07.27-.16.37-.09.1-.22.17-.37.21,0,0-.02,0-.04,0l.26.72h-.42l-.25-.77-.25.77ZM127.54,14.84l-.16.51h.14c.08,0,.16-.02.22-.05.06-.03.11-.08.15-.15.05-.09.06-.17.03-.22s-.11-.08-.21-.08h-.15Z"></path><path class="cls-1" d="M44.92,23.61h-5.78c.68-.5,1.2-.92,1.55-1.27.35-.35.75-.84,1.2-1.45l5.78-8.2c.54-.77.9-1.3,1.08-1.59.18-.29.39-.69.63-1.21h4.2c-.13,1.03-.21,1.97-.22,2.8l-.08,7.77c-.02.63.02,1.15.11,1.57.09.42.29.95.58,1.58h-5.76c.23-.39.39-.73.49-1.03.1-.32.16-.63.17-.93l.09-1.5h-2.54l-.63,1.01c-.27.42-.47.84-.61,1.27-.05.15-.13.54-.25,1.18ZM49.56,17.71l.37-4.11-2.39,4.11h2.02Z"></path><path class="cls-1" d="M62.61,15.53l.51-1.57c.22-.68.34-1.12.36-1.33.02-.2-.03-.48-.16-.82h4.23c-.34.4-.58.73-.73.99-.15.26-.31.64-.47,1.14l-2.57,7.91c-.18.54-.27.9-.28,1.08,0,.18.06.4.19.67h-3.74l.44-1c-.62.46-1.09.77-1.44.91-.34.14-.78.22-1.3.22-1.05,0-1.79-.34-2.2-1.01-.41-.67-.44-1.57-.07-2.71.28-.87.74-1.66,1.37-2.38.63-.71,1.36-1.27,2.19-1.67.83-.4,1.67-.61,2.53-.61.34,0,.71.05,1.12.16ZM60.79,21.12l1.14-3.51c-.1-.33-.23-.56-.4-.69-.17-.13-.42-.2-.75-.2-.63,0-1.09.24-1.4.72-.26.41-.48.87-.64,1.37-.28.85-.29,1.57-.04,2.18.25.61.68.91,1.3.91.17,0,.33-.07.47-.2.14-.14.25-.33.33-.58Z"></path><path class="cls-1" d="M67.73,15.48h4.23c-.31.32-.53.59-.66.8-.14.21-.25.47-.35.76l-1.57,4.82c-.14.44-.22.77-.23.97,0,.2.05.46.16.78h-4.23c.3-.29.51-.53.63-.74.12-.2.26-.55.42-1.03l1.56-4.81c.13-.39.19-.69.2-.88s-.05-.42-.17-.68Z"></path><path class="cls-1" d="M72.89,15.48h4.3c-.09.18-.15.31-.17.38-.07.22-.1.46-.1.72l-.03,3.07,2.07-3.25c.06-.1.12-.23.18-.39.03-.11.05-.28.05-.53h3.7c-.5.39-.86.71-1.1.96-.24.24-.58.67-1.02,1.27l-4.38,5.9c-.4.53-.72.92-.96,1.19-.25.27-.5.5-.77.69-.27.19-.65.43-1.16.71h-2.75c.85-.53,1.45-.96,1.81-1.29.36-.33.87-.92,1.53-1.76l-.5-5.45c-.05-.5-.11-.88-.2-1.16-.09-.28-.26-.63-.5-1.07Z"></path><path class="cls-1" d="M83.08,17.77c.34-.51.58-.87.71-1.09.13-.22.3-.54.5-.97.73-.16,1.3-.26,1.7-.31.41-.05.95-.07,1.63-.07,1.1,0,1.86.19,2.27.58.41.39.49.97.23,1.76l-1.36,4.18c-.17.52-.25.87-.26,1.06,0,.19.06.42.2.69h-3.75l.41-.81c-.16.1-.34.21-.52.32-.19.11-.35.22-.5.31-.15.09-.31.2-.5.32-.54,0-1.05-.04-1.51-.13-.52-.1-.88-.33-1.08-.7-.2-.36-.22-.81-.05-1.35.11-.34.3-.67.56-1,.26-.32.56-.58.88-.77.35-.2.82-.42,1.4-.66.58-.24,1.12-.42,1.62-.54.39-.1.67-.21.84-.32.18-.11.29-.26.36-.45.09-.27.04-.49-.12-.67-.17-.18-.42-.28-.76-.28-.22,0-.56.06-1.01.17-.71.23-1.35.46-1.9.7ZM85.55,21.87l.67-2.06h-.8c-.18,0-.3,0-.35.02-.05.02-.11.06-.18.14-.13.17-.26.42-.36.76-.17.53-.21.9-.11,1.1.1.2.35.3.77.3.13,0,.21-.01.25-.04.04-.03.07-.1.11-.22Z"></path><path class="cls-1" d="M94.26,23.61h-4.23c.3-.29.51-.53.63-.73.12-.2.26-.54.41-1.01l1.57-4.84c.14-.42.21-.72.21-.91,0-.19-.06-.4-.19-.63h3.71l-.44,1.36c.39-.25.68-.46.88-.62.2-.16.45-.41.77-.74.4-.1.74-.14,1-.14.64,0,1.1.1,1.36.31.26.21.5.61.7,1.23.11-.1.25-.22.43-.37s.3-.26.37-.32c.07-.06.17-.16.3-.28.13-.12.27-.26.42-.42.43-.1.76-.14,1-.14.84,0,1.41.2,1.72.6.3.4.33.99.07,1.77l-1.35,4.17c-.18.56-.28.93-.28,1.11,0,.18.07.39.22.63h-4.21c.3-.31.52-.57.65-.79.13-.22.26-.54.4-.96l1.35-4.15c.15-.47.02-.7-.39-.7-.19,0-.4.05-.63.14-.22.11-.35.23-.4.38l-1.4,4.32c-.15.47-.24.81-.25,1.02-.02.21.03.46.14.74h-4.07c.31-.28.52-.51.64-.71.12-.2.26-.54.42-1.04l1.35-4.15c.15-.46.03-.69-.36-.69-.18,0-.33.04-.45.11l-.24.14-.34.2-1.42,4.38c-.15.46-.23.79-.23.99,0,.21.05.46.17.75Z"></path><path class="cls-1" d="M107.28,17.77c.34-.51.58-.87.71-1.09.13-.22.3-.54.5-.97.73-.16,1.3-.26,1.7-.31.41-.05.95-.07,1.63-.07,1.1,0,1.86.19,2.27.58.41.39.49.97.23,1.76l-1.36,4.18c-.17.52-.25.87-.26,1.06,0,.19.06.42.2.69h-3.75l.41-.81c-.16.1-.34.21-.52.32-.19.11-.35.22-.5.31-.15.09-.31.2-.5.32-.54,0-1.05-.04-1.51-.13-.52-.1-.88-.33-1.08-.7-.2-.36-.22-.81-.05-1.35.11-.34.3-.67.56-1,.26-.32.56-.58.88-.77.35-.2.82-.42,1.4-.66.58-.24,1.12-.42,1.62-.54.39-.1.67-.21.84-.32.18-.11.29-.26.36-.45.09-.27.04-.49-.12-.67-.17-.18-.42-.28-.76-.28-.22,0-.56.06-1.01.17-.71.23-1.35.46-1.9.7ZM109.75,21.87l.67-2.06h-.8c-.18,0-.3,0-.35.02-.05.02-.11.06-.18.14-.13.17-.26.42-.36.76-.17.53-.21.9-.11,1.1.1.2.35.3.77.3.13,0,.21-.01.25-.04.04-.03.07-.1.11-.22Z"></path><path class="cls-1" d="M116.87,15.48h3.71l-.45,1.39c.45-.31.76-.54.95-.69.19-.15.44-.38.76-.7.43-.1.79-.14,1.1-.14.83,0,1.39.2,1.68.6.29.4.31.99.06,1.77l-1.35,4.15c-.16.5-.25.84-.25,1.04,0,.2.05.43.18.71h-4.23c.31-.3.53-.55.66-.76.13-.21.27-.54.41-.99l1.34-4.14c.07-.2.06-.37-.03-.51-.08-.14-.22-.21-.39-.21-.19,0-.34.05-.46.14l-.25.17-.38.22-1.4,4.32c-.15.47-.23.8-.24,1.01,0,.2.05.45.16.74h-4.21c.31-.29.53-.54.66-.75.13-.21.27-.54.42-1l1.57-4.84c.12-.36.17-.63.17-.82,0-.18-.07-.42-.18-.72Z"></path></g><g><path class="cls-1" d="M83.72,27.81l-1.02,3.5c-.36-.89-.75-1.51-1.15-1.85-.41-.35-.94-.52-1.6-.52-.6,0-1.22.22-1.87.65-.65.43-1.24,1.02-1.77,1.77-.54.74-.95,1.56-1.23,2.43-.29.9-.4,1.71-.32,2.44.08.73.34,1.3.76,1.7.43.41.99.61,1.68.61s1.33-.15,1.9-.44c.57-.29,1.27-.83,2.11-1.6l-1.51,3.25c-.94.35-1.67.58-2.18.68-.51.11-1.14.16-1.88.16-1.04,0-1.95-.16-2.72-.48-.77-.32-1.38-.77-1.81-1.34-.43-.57-.68-1.27-.76-2.09-.08-.82.04-1.71.36-2.68.43-1.32,1.13-2.49,2.11-3.52.98-1.03,2.15-1.83,3.49-2.4,1.35-.57,2.76-.86,4.25-.86.66,0,1.18.04,1.57.11.39.08.92.24,1.6.48ZM74.52,43.31h-1.79c.44-.31.75-.55.93-.75.18-.19.31-.41.39-.65.11-.35-.01-.69-.38-1.03h2.67c.03.19.01.39-.05.58-.1.32-.29.61-.55.88-.26.27-.67.59-1.23.96Z"></path><path class="cls-1" d="M84.42,31.44h4.68c-.35.37-.6.66-.75.89-.15.23-.28.5-.39.83l-1.73,5.33c-.17.52-.26.89-.27,1.12,0,.23.06.5.21.81h-4.68c.33-.32.57-.59.7-.82.14-.23.29-.6.46-1.13l1.73-5.32c.14-.44.21-.76.22-.97,0-.21-.06-.46-.19-.75ZM85.61,28.93c.17-.52.5-.96,1-1.32.5-.36,1.02-.54,1.58-.54s.98.18,1.26.54c.28.36.33.8.17,1.32-.17.53-.52.98-1.03,1.34-.52.36-1.06.54-1.63.54s-.95-.18-1.21-.54c-.26-.36-.31-.81-.14-1.34Z"></path><path class="cls-1" d="M88.76,38.24c.62-.15,1.07-.27,1.37-.38.3-.11.74-.3,1.34-.59-.25-.06-.45-.13-.6-.2-.48-.17-.8-.49-.96-.96-.16-.47-.15-1.01.05-1.61.34-1.04,1-1.84,1.97-2.41.97-.56,2.19-.84,3.64-.84.79,0,1.35.05,1.66.14.32.09.67.3,1.07.64h2.32c-.06.16-.13.34-.19.54-.07.22-.13.42-.18.6h-1.5c.08.25.13.47.12.65,0,.18-.05.41-.14.68-.27.84-.87,1.56-1.78,2.14-.91.59-1.9.88-2.95.88-.4,0-.86-.04-1.38-.12l-.15.18c-.2.19-.32.34-.36.44-.09.26.16.4.73.4h.29c1.32,0,2.15.02,2.49.05.76.05,1.3.24,1.62.59.32.34.39.81.2,1.38-.3.93-1.02,1.67-2.15,2.23-1.13.56-2.48.84-4.05.84-1.66,0-2.83-.23-3.52-.69-.16-.11-.25-.24-.28-.4-.03-.15,0-.36.08-.61.07-.23.14-.42.21-.58.55-.15.95-.28,1.2-.38.25-.11.65-.32,1.18-.63-.73-.1-1.23-.25-1.49-.44-.26-.19-.32-.47-.2-.84.03-.09.14-.32.34-.69ZM92.69,40.23c-.3,0-.77,0-1.41.03-.22.28-.35.49-.4.64-.08.25-.02.45.18.6.2.14.52.22.95.22.45,0,.84-.08,1.16-.24.32-.16.53-.38.62-.66.07-.23.04-.38-.1-.46-.14-.08-.47-.12-.99-.12ZM93.3,28.32h2.01c.29.62.53.94.74.94.2,0,.64-.31,1.32-.92h2.08c-.75.94-1.45,1.61-2.09,2.03-.64.42-1.31.63-2,.63s-1.23-.2-1.55-.6c-.31-.4-.49-1.09-.52-2.07ZM94.64,32.57c-.11,0-.23.06-.36.18-.14.12-.24.26-.33.42-.04.08-.09.21-.14.38-.22.68-.28,1.28-.19,1.8.09.52.31.79.66.79.33,0,.59-.3.79-.91.12-.38.19-.78.2-1.22,0-.44-.04-.78-.15-1.02-.13-.28-.29-.41-.48-.41Z"></path><path class="cls-1" d="M102.91,27.39h4.68c-.38.38-.63.71-.76.97-.13.26-.35.86-.66,1.81l-1.51,4.66,1.61-1.9c.47-.57.74-.94.8-1.12.06-.17.08-.29.08-.36h3.83c-.62.45-1.11.85-1.46,1.19l-2.27,2.31.98,3.48c.12.41.2.69.25.84s.11.32.19.52c.08.2.18.41.3.65h-4.72c.18-.26.31-.5.38-.71.06-.19.07-.34.04-.47l-.59-3.09-.76,2.33c-.21.66-.32,1.09-.32,1.29,0,.2.13.42.38.64h-4.68c.35-.29.59-.54.72-.76.13-.22.29-.61.47-1.17l2.72-8.37c.3-.91.46-1.51.49-1.78.03-.28-.03-.59-.19-.95Z"></path><path class="cls-1" d="M110.37,36.47c.51-1.58,1.43-2.84,2.75-3.78,1.32-.94,2.83-1.4,4.54-1.4.85,0,1.54.13,2.07.38.62.29,1.03.82,1.23,1.59.2.77.16,1.61-.14,2.52-.29.9-.8,1.74-1.52,2.51-1.42,1.54-3.17,2.31-5.25,2.31-1.26,0-2.23-.26-2.92-.78-.42-.31-.71-.79-.86-1.42-.15-.64-.11-1.28.1-1.92ZM114.35,34.48l-.11.34c-.19.59-.27,1.16-.22,1.69.05.53.19.99.42,1.37.17.3.38.54.61.71.23.17.46.26.69.26.25,0,.45-.07.59-.21.14-.14.27-.4.4-.79.54-1.67.59-2.95.13-3.83-.36-.69-.84-1.03-1.44-1.03-.25,0-.44.09-.57.26-.13.18-.29.59-.5,1.24ZM115.19,29.18c.11-.35.34-.65.69-.89.34-.24.7-.36,1.07-.36s.67.12.85.36c.19.24.22.53.11.89-.12.37-.35.68-.7.94-.35.26-.71.39-1.09.39s-.65-.13-.83-.39c-.18-.26-.21-.57-.1-.94ZM118.71,29.18c.11-.35.34-.64.7-.88.35-.24.72-.36,1.1-.36s.65.12.83.36c.18.24.21.53.1.89-.12.37-.35.68-.69.94-.34.26-.7.39-1.07.39s-.67-.13-.86-.39c-.19-.26-.22-.57-.1-.94Z"></path><path class="cls-1" d="M124.16,32.87h-1.23c.42-.32.72-.55.9-.71.18-.16.45-.4.8-.72l.26-.79c.34-1.06.99-1.89,1.93-2.5.94-.61,2.07-.91,3.37-.91.35,0,.62.02.82.07.2.05.47.14.82.29-.3.42-.51.75-.64.98s-.29.58-.49,1.04c-.08-.32-.19-.55-.34-.69-.15-.14-.36-.21-.61-.21s-.46.08-.61.24c-.15.16-.29.43-.41.81l-.55,1.68h1.84l-.46,1.43h-1.84l-1.83,5.62c-.19.57-.28.96-.28,1.17,0,.21.08.46.23.76h-4.7c.35-.31.59-.57.72-.79.13-.21.29-.59.47-1.15l1.83-5.62Z"></path><path class="cls-1" d="M131.08,32.87h-1.52c1.59-.83,2.72-1.44,3.4-1.85.68-.4,1.65-1.04,2.91-1.93l-.76,2.35h2.36l-.46,1.43h-2.36l-1.65,5.08c-.12.38-.12.64,0,.78.12.14.4.22.84.22.29,0,.57-.04.82-.11.26-.07.57-.2.95-.38-.37.44-.81,1.02-1.32,1.73-.66.17-1.17.28-1.52.34-.35.05-.76.08-1.22.08-.92,0-1.58-.2-1.98-.6-.4-.4-.48-.94-.26-1.64l1.79-5.5Z"></path><path class="cls-1" d="M145.61,36.49h-4.84c-.09.48-.12.84-.09,1.07.03.23.13.44.32.62.29.28.72.41,1.29.41.38,0,.75-.04,1.11-.11.36-.08.9-.24,1.63-.48-.07.08-.19.2-.36.37-.16.17-.27.28-.31.33-.04.05-.12.14-.24.26-.11.12-.2.22-.24.28-.05.06-.12.15-.21.27-.09.12-.18.23-.26.34-.08.11-.17.24-.27.39-.62.13-1.08.21-1.38.26-.3.04-.65.06-1.06.06-1.29,0-2.23-.21-2.82-.64-.47-.33-.76-.85-.87-1.55-.11-.71-.03-1.49.26-2.36.47-1.45,1.26-2.6,2.37-3.45,1.11-.85,2.37-1.28,3.79-1.28,1.27,0,2.12.34,2.56,1.03.44.69.44,1.69,0,3.02-.15.45-.28.84-.4,1.17ZM141.58,34.07c-.05.08-.08.16-.12.25-.03.08-.07.19-.11.31s-.07.22-.1.29h2.06l.17-.52c.35-1.07.2-1.61-.45-1.61-.59,0-1.08.43-1.45,1.28Z"></path></g></g><g><g><path class="cls-3" d="M27.73,4.08C25.09,2.05,19.07.47,13.55.09,11.01-.09,9.18,0,7.1.32c-.61.09-1.34.16-2.5.43-1.02.24-.73.59-1.1.83-.47.29-.62.5-.83.8-1.46,2.15,2.82,4.74,4.24,6.37,0,.02-.02.05-.03.07h0c-.09.26-.18.53-.27.79h0c-1.55,3.83.25,6.34.84,10.16.57,3.06.43,4.1,1.51,6.11.08.22.16.53.06.71-.87,1.53.14,3.1.64,4.56.1.25.05.63.5.67.03,0,.06.08.09.13.48,1.58,1.75,2.38,3.08,3.2.13.09.26.28.25.42-.06,1.39,1.29,1.44,2.22.77.93-.52,2.89-1.62,3.72-2.26.55-.47,1.11-.56,1.7-.11.55.38,1.38-2.56,2.1-3.3.11-.12.18-.28.16-.44-.17-1.13-.62-2.12-1.38-3.01-.2-.33-.75-.53-.73-.96.2-1.68,1.05-3.18.95-4.91-.11-1.27,1.31-.53,1.72-1.67.43-1.4,1.61-3.05.85-4.52-.08-.2-.17-.43-.43-.3.49-1.25.2-2.6,0-3.88h0c-.04-.25-.08-.5-.12-.75,2.09-1.11,6.37-3.75,3.36-6.15Z"></path><path class="cls-2" d="M8.12,23.5h0s0,0,0,0v.08s0,0,0,0h0s0,.08,0,.16c0,.01,0-.06-.01-.23Z"></path><path class="cls-1" d="M8.12,23.57h0s0-.07,0-.07c0,.03,0,.05,0,.07h0Z"></path><path class="cls-1" d="M8.59,24.38c.45.74.77.91,1.25,1.49.37-.45.73-.48.79.11.16.51.5.95.53,1.5.71,1.23,2.56,1.28,3.64.46-.01-.01-.08-.1-.15-.18.03-.03.06-.07.07-.07.29.1.51,0,.64-.23.26-.44.85-.64.97-1.18.02-.36-.29-1.67-.87-1.21-.58.38-.98,1.33-1.73,1.29-.18-.05-.33-.17-.48.06-.02.02-.3-.04-.37-.12-.59-1.06,1.3-.66,1.79-1.15-.73-.31-1.52-.06-2.26-.21v-.11c.43,0,2.64-.06,2.18-.81.03-.14.29-.5.13-.68-.98-.16-2.05-.02-3.06.06-.02.05-.05.1-.07.15.14.15.28.3.49.53-.62.05-1.02-.74-1.58-.35-.73.63-1-1.03-.46-1.29.65.36.33.86,1.34.56,1.32-.19,2.42-.34,3.76-.73-1.42-.11-2.55-.38-3.79-.96.01-.04.03-.08.04-.12,1.45.48,1.74-1.26,2.91-.57.45.07.7-.58.42-.94-.48.04-.43.61-.83.43-.24-.12-.33-.61-.16-.92.56-1.01,2.42,1.18,2.64,1.78.41,1.18,2.31-.03,1.47,1.96-.32.57-1.15.4-1.37.99-.05.29-.07.54-.41.68-.12.6,1.08.49,1.45.25-.02-.24-.09-.52,0-.77.33,0,.46.18.74.4.62-1.47.68-1.74.5-3.33-.21-.83.72-1.23,1.02-1.86.39-1.23-.04-2.42-1.5-1.78-1.21.26-2.5-.16-3.59.32-.2.21-.39.53-.65.69-.32.05-.53-.1-.34-.49-.4.03-.45-.18-.39-.53-.27-2.84,3.52-3.39,5.6-2.67.27.05.48-.35.32-.52-.49-.24-.23-.65-.26-1.01-3.86-.52-8.12-1.3-11.85-.08-.12,2.87.29,8.45,1.45,11.13ZM18.3,21.56s.02.23.02.07c.03-.04-.41-.51-.43-.55.27.13.38.34.42.48ZM18.38,22.23c.06.1.03.55.03.17.05-.1-.62-1.2-.66-1.3.41.31.57.81.63,1.14ZM9.32,21.98s-.38.59-.38.59c0-.03-.11-.14.38-.59ZM8.94,22.87s-.12-.14.38-.59c0,0-.38.59-.38.59ZM9.09,23.15s0,0,0,0c0,0,0,0,0,0-.16-.06.39-1.1,1.01-1.57l-1.01,1.57ZM8.83,16.03c.32-.09.65-.17.98-.26,0-.04,0-.08,0-.13-.43-.09-.86-.17-1.4-.29.97-.85,2.99-.2,3.22,1.02-.27.74-.95,1.43-1.86,1.23h0c.67-.29,1.27-.66.5-1.27-.4.92-1.33.48-2.1.52-.08-.38.15-.69.65-.83Z"></path><path class="cls-1" d="M18.76,33.9c-.06-.33-.16-.65-.25-.97-.06-.24-.19-.34-.5-.31-.52.05-.77-.2-.84-.67-.02-.12-.18-.24-.31-.32-.29-.17-.62-.28-.9-.46-1.12-.71-2.29-1.3-3.58-1.7-.9-.28-1.58-.9-2.14-1.61-.26-.34-.51-.69-.83-1.02-.25.63-.31,1.27.03,1.85.44.75.95,1.46,1.46,2.17,1.1,1.53,2.47,2.85,3.86,4.15.36.34.55.83,1.04,1.09.05.02.07.11.07.18,0,.03-.02.06-.05.09.93-.52,2.89-1.62,3.72-2.26-.09.04-.21.06-.31.09-.29.09-.42,0-.47-.29Z"></path><path class="cls-1" d="M17.24,16.91c-.6.2-1.43-.03-2.12-.42,1.07,1.32,1.82,1.16,3.21.37-.11-.05-.98.04-1.09.05Z"></path><path class="cls-1" d="M17.74,15.75c-.38-.38-2.01.11-2.57.48.49,0,2.07-.48,2.57-.48h0Z"></path><path d="M6.81,9.08h0c-.06.16-.12.33-.17.5h0c.05-.17.11-.33.17-.5Z"></path><polygon points="8.12 23.5 8.12 23.5 8.12 23.5 8.12 23.5"></polygon><path d="M8.15,23.64l-.03-.14.05.17s-.01,0-.02-.02Z"></path><path d="M6.65,9.57l.17-.49c-.06.16-.11.33-.17.49Z"></path><path d="M9.91,31.17c-.03.06.04.11,0,0h0Z"></path><path class="cls-1" d="M19.83,12.23c-1.12,0-2.03-.78-2.11-1.77l-.41-.03c.09,2.34,4.43,2.59,4.99.38l-.4-.03c-.23.83-1.06,1.45-2.06,1.45Z"></path><path class="cls-1" d="M19.83,8.4c1.04,0,1.91.68,2.09,1.57l.42.03c-.3-2.1-4.18-2.33-4.89-.37l.4.03c.3-.74,1.08-1.26,1.99-1.26Z"></path><path class="cls-1" d="M6.63,9.63h0s.01-.03.02-.05l-.02.05Z"></path><path class="cls-1" d="M6.89,8.83l-.08.24c.03-.08.05-.16.08-.24h0Z"></path><path class="cls-1" d="M24.5,10.98h0c-.04-.24-.08-.48-.12-.72h0c.04.24.08.48.12.72Z"></path><path class="cls-1" d="M6.9,8.83h0c-.03.08-.05.16-.08.24h0c.03-.08.05-.16.08-.24Z"></path><path class="cls-1" d="M6.65,9.57h0s-.01.04-.02.06h0s.01-.04.02-.06Z"></path><path class="cls-1" d="M22.29,10.81l2.21.17c-.06-.28-.06-.57-.16-.83l-2-.15c.06.27.04.56-.05.82Z"></path><path class="cls-1" d="M6.65,9.57s-.01.04-.02.06l10.67.81c-.03-.28.03-.56.14-.81l-10.54-.79c-.06.16-.19.57-.25.74Z"></path><path class="cls-1" d="M21.95,10.31c0,.16-.02.32-.07.47l.4.03c.08-.26.1-.55.05-.82l-.42-.03c.02.11.04.23.04.35Z"></path><path class="cls-1" d="M17.3,10.44l.41.03c-.03-.28.02-.56.12-.81l-.4-.03c-.11.25-.17.53-.14.81Z"></path><path class="cls-1" d="M20.57,11.29c-.18.05-.45-.55-.54-.89,1.15-.58,1.11-1.7-.38-1.15.05-.15-.22-.26-.19-.06,0,.04,0,.09,0,.12-.66.21-1.22.58-.73,1.23l.07-.03c-.04-.32.23-.35.57-.54-.08.27-.26,1.11-.59.89h-.05c.06,1.55.82-.4.83-.97,1.27-.61.95.36,0,.5-.04.1.05.24.07.33.4,1.18.65,1.35,1.13.62l-.04-.08s-.1.05-.15.05Z"></path><g><path class="cls-1" d="M27.59,4.59c-.54,1.99-2.23,2.4-3.63,3.63-.34.37-.07.4.19.1,1.25-1.29,3.2-1.46,3.63-3.41.07-.17.03-.56-.18-.33v.02Z"></path><path class="cls-1" d="M14.89,1.5c-.03.08.11.22.18.29.57.48.61.97.59,1.56.05.16.2.04.22-.08.1-.51-.04-1.05-.48-1.54-.1-.14-.35-.27-.49-.24h-.01Z"></path><path class="cls-1" d="M7.2,3.16c-.14-.28-.27-.6-.37-.91-.14-.33-.16-.75-.46-.96-.2-.11-.22.11-.16.27.21.65.41,1.31.65,1.95.14.39.39.72.69,1,.45.43.74.9,1.04,1.37.05.08.16.21.24.21.1-.04,0-.21-.03-.29-.46-.89-1.12-1.74-1.59-2.61v-.03Z"></path><path class="cls-1" d="M10.39,1.18c.2.71.62,1.4.83,2.11.06.11.04.38.2.39.32-.04-.7-2.69-1.02-2.51h0Z"></path><path class="cls-1" d="M25.46,3.76c-.13-.35-.47-.09-.49.19-.07.45-.17.89-.43,1.27-.33.55-1.05.9-1.48,1.36-.12.1-.19.39.04.26.86-.92,2.43-1.61,2.37-3.05v-.03Z"></path><path class="cls-1" d="M19.91,2.15c-.08-.06-.21-.07-.23,0,0,.15.16.3.23.43.24.46.23.99.01,1.44-.07.15.03.27.18.32.08.03.11-.03.13-.1.13-.66.24-1.52-.29-2.06l-.02-.02Z"></path><path class="cls-1" d="M6.21,5.86c-.72-.66-1.26-1.56-1.7-2.43-.17-.35-.31-.71-.44-1.06-.05-.1-.11-.25-.22-.28-.23.03.06.56.11.7.35.82.66,1.61,1.21,2.29.58.71,1.36,1.26,1.9,1.98.1.11.25.33.35.41-.21-.58-.7-1.13-1.19-1.59l-.03-.02Z"></path></g></g><g><g><path class="cls-1" d="M.76,41.07v-1.32c0-.9,0-1.44-.01-1.6,0-.13-.03-.23-.08-.3s-.13-.11-.25-.13c-.06-.01-.16-.02-.29-.02-.09,0-.13-.02-.13-.07,0-.04.06-.07.17-.07.15,0,.36,0,.61.01.25,0,.39.01.42.01.09,0,.27,0,.54-.01.27,0,.44-.01.52-.01.28,0,.54.02.77.07.23.04.43.13.62.26.13.09.25.23.35.41.11.19.16.39.16.62,0,.29-.07.58-.22.84-.15.27-.41.55-.77.85.05.06.15.19.31.4.16.2.27.34.32.4.05.06.14.17.26.32.12.15.22.27.28.34.06.07.14.16.23.26.09.1.17.19.24.26.28.28.56.46.84.51.09.01.16.02.21.02.06,0,.09.02.09.06,0,.05-.05.07-.14.07h-.72c-.21,0-.37-.01-.49-.03-.12-.02-.22-.06-.32-.11-.15-.08-.3-.2-.45-.37-.15-.17-.34-.41-.58-.74-.08-.11-.17-.24-.29-.41-.12-.17-.22-.31-.29-.41-.08-.11-.13-.18-.16-.21-.03-.04-.08-.06-.14-.06h-.65s-.06,0-.06.05v.1c0,.86.01,1.4.04,1.61.01.13.04.22.08.29.04.07.11.11.22.13.15.02.27.03.37.03.06,0,.09.02.09.06,0,.05-.05.07-.15.07-.17,0-.4,0-.67-.01-.28,0-.42-.01-.43-.01-.03,0-.17,0-.4.01-.23,0-.41.01-.52.01-.1,0-.15-.02-.15-.07,0-.04.04-.06.12-.06.09,0,.18,0,.27-.03.07-.01.12-.05.15-.12.03-.07.05-.17.07-.29.02-.21.04-.75.04-1.6ZM1.65,38.05v2.29s0,.07.01.09c0,.02.03.03.05.04.16.05.35.08.57.08.15,0,.26,0,.32-.03s.14-.05.21-.1c.13-.1.23-.24.32-.42s.13-.42.13-.71c0-.2-.03-.39-.08-.55s-.12-.3-.2-.4c-.08-.1-.17-.18-.28-.25-.11-.07-.21-.11-.31-.14-.1-.03-.2-.04-.29-.04-.2,0-.33,0-.4.03-.04.01-.07.05-.07.11Z"></path><path class="cls-1" d="M7.43,41.13h-1.26s-.04.01-.05.04l-.29.7c-.05.13-.08.23-.08.32,0,.05.02.09.05.11.03.02.09.04.17.04h.08c.05,0,.08.02.08.06,0,.04-.03.05-.08.05-.06,0-.16,0-.3,0-.14,0-.24,0-.3,0,0,0-.05,0-.11,0-.07,0-.15,0-.24,0-.1,0-.18,0-.27,0-.07,0-.1-.02-.1-.05,0-.04.02-.06.06-.06.02,0,.04,0,.08,0,.04,0,.06,0,.08,0,.11-.02.2-.06.26-.13.06-.07.12-.18.18-.33l1.4-3.27c.06-.14.11-.21.16-.21.04,0,.07.01.08.03.02.02.04.07.07.13.04.09.25.58.62,1.46.38.88.62,1.46.74,1.74.05.11.1.2.14.28.05.08.09.13.13.17.04.04.07.06.1.08.03.01.06.02.08.03.08.01.15.02.2.02.05,0,.07.02.07.06,0,.02-.01.04-.04.04s-.09.01-.19.01c-.39,0-.73,0-1.03-.01,0,0-.01,0-.03,0-.08,0-.13-.02-.13-.04,0-.03.02-.05.07-.06.02,0,.04-.02.05-.04s.01-.05,0-.08l-.41-1.04s-.03-.04-.05-.04ZM6.28,40.84h1.04s.03-.01.02-.03l-.51-1.32s-.02-.05-.02-.05c0,0-.02.02-.03.05l-.52,1.31s0,.02,0,.03c0,0,.01.01.02.01Z"></path><path class="cls-1" d="M9.56,41.91l.53-3.39s.02-.07.04-.1c.02-.02.04-.04.06-.04.03,0,.05.01.08.03.02.02.05.07.09.13l1.44,2.89,1.44-2.93c.04-.09.09-.13.14-.13.02,0,.05.01.07.04.02.03.04.07.05.12l.49,3.2c.03.17.06.29.09.37.03.07.09.12.17.15.12.03.22.05.31.05.06,0,.08.02.08.05,0,.04-.05.06-.14.06-.31,0-.68-.01-1.11-.04-.11,0-.16-.02-.16-.06,0-.02.02-.04.06-.05.03-.01.04-.09.02-.22l-.3-2.24h-.02l-1.15,2.32c-.06.13-.11.21-.13.24-.02.03-.05.05-.08.05-.03,0-.06-.02-.09-.06s-.07-.11-.12-.2c-.38-.7-.58-1.1-.62-1.18-.03-.06-.2-.43-.54-1.11h-.02l-.26,2.03c-.01.09-.02.17-.02.24,0,.08.05.13.16.15.08.02.14.02.19.02.02,0,.04,0,.06.02.02.01.03.02.03.03,0,.04-.04.06-.13.06s-.2,0-.33,0c-.14,0-.21,0-.24,0-.03,0-.11,0-.24,0-.13,0-.23,0-.29,0s-.1-.02-.1-.06c0-.01,0-.03.02-.04.01,0,.04-.01.06-.01.05,0,.11,0,.17-.01.11-.01.18-.15.22-.4Z"></path><path class="cls-1" d="M17.19,41.13h-1.26s-.04.01-.05.04l-.29.7c-.05.13-.08.23-.08.32,0,.05.02.09.05.11.03.02.09.04.17.04h.08c.05,0,.08.02.08.06,0,.04-.03.05-.08.05-.06,0-.16,0-.3,0-.14,0-.24,0-.3,0,0,0-.05,0-.11,0-.07,0-.15,0-.24,0-.1,0-.18,0-.27,0-.07,0-.1-.02-.1-.05,0-.04.02-.06.06-.06.02,0,.04,0,.08,0,.04,0,.06,0,.08,0,.11-.02.2-.06.26-.13.06-.07.12-.18.18-.33l1.4-3.27c.06-.14.11-.21.16-.21.04,0,.07.01.08.03.02.02.04.07.07.13.04.09.25.58.62,1.46.38.88.62,1.46.74,1.74.05.11.1.2.14.28.05.08.09.13.13.17.04.04.07.06.1.08.03.01.06.02.08.03.08.01.15.02.2.02.05,0,.07.02.07.06,0,.02-.01.04-.04.04s-.09.01-.19.01c-.39,0-.73,0-1.03-.01,0,0-.01,0-.03,0-.08,0-.13-.02-.13-.04,0-.03.02-.05.07-.06.02,0,.04-.02.05-.04s.01-.05,0-.08l-.41-1.04s-.03-.04-.05-.04ZM16.04,40.84h1.04s.03-.01.02-.03l-.51-1.32s-.02-.05-.02-.05c0,0-.02.02-.03.05l-.52,1.31s0,.02,0,.03c0,0,.01.01.02.01Z"></path><path class="cls-1" d="M19.89,42.1h1.29c.26,0,.45-.02.57-.07.12-.05.21-.11.26-.2.05-.1.08-.18.1-.24.01-.06.03-.09.06-.09.02,0,.03.01.04.03,0,.02.01.06.01.13,0,.08-.01.18-.04.32-.02.13-.05.24-.07.32-.02.05-.04.08-.06.1-.02.02-.06.03-.11.03-.28,0-.74,0-1.37-.01-.63,0-1.14-.01-1.52-.01-.06,0-.09-.02-.09-.05,0-.03.02-.08.07-.16.88-1.33,1.64-2.46,2.26-3.38h-1.01c-.13,0-.23,0-.3,0-.06,0-.14.01-.24.02-.1.01-.17.03-.23.06-.08.05-.15.11-.2.18-.05.08-.08.15-.09.22,0,.06-.03.09-.07.09-.04,0-.05-.03-.05-.08,0-.12.04-.37.11-.75,0-.07.03-.1.06-.1,0,0,.04,0,.08.02.04.01.09.02.14.02.23,0,.56.01.99.01h1.65c.06,0,.09.01.09.04,0,.02,0,.06-.03.1-.63.98-1.4,2.13-2.31,3.45Z"></path><path class="cls-1" d="M24.84,41.13h-1.26s-.04.01-.05.04l-.29.7c-.05.13-.08.23-.08.32,0,.05.02.09.05.11.03.02.09.04.17.04h.08c.05,0,.08.02.08.06,0,.04-.03.05-.08.05-.06,0-.16,0-.3,0-.14,0-.24,0-.3,0,0,0-.05,0-.11,0-.07,0-.15,0-.24,0-.1,0-.18,0-.27,0-.07,0-.1-.02-.1-.05,0-.04.02-.06.06-.06.02,0,.04,0,.08,0,.04,0,.06,0,.08,0,.11-.02.2-.06.26-.13.06-.07.12-.18.18-.33l1.4-3.27c.06-.14.11-.21.16-.21.04,0,.07.01.08.03.02.02.04.07.07.13.04.09.25.58.62,1.46.38.88.62,1.46.74,1.74.05.11.1.2.14.28.05.08.09.13.13.17.04.04.07.06.1.08.03.01.06.02.08.03.08.01.15.02.2.02.05,0,.07.02.07.06,0,.02-.01.04-.04.04s-.09.01-.19.01c-.39,0-.73,0-1.03-.01,0,0-.01,0-.03,0-.08,0-.13-.02-.13-.04,0-.03.02-.05.07-.06.02,0,.04-.02.05-.04s.01-.05,0-.08l-.41-1.04s-.03-.04-.05-.04ZM23.68,40.84h1.04s.03-.01.02-.03l-.51-1.32s-.02-.05-.02-.05c0,0-.02.02-.03.05l-.52,1.31s0,.02,0,.03c0,0,.01.01.02.01Z"></path><path class="cls-1" d="M27.49,39.6l.06,2.12c0,.19.02.33.05.41s.07.13.13.15c.07.02.17.04.28.04.06,0,.09.02.09.06,0,.04-.04.05-.12.05-.14,0-.28,0-.44,0-.16,0-.24,0-.25,0,0,0-.04,0-.1,0-.06,0-.13,0-.22,0-.09,0-.17,0-.25,0s-.12-.02-.12-.05c0-.02,0-.03.03-.04.02-.01.04-.02.06-.02.1,0,.18,0,.24-.02.07-.02.11-.07.13-.15s.03-.24.03-.48l.05-3.08c0-.05,0-.09.03-.13.02-.03.04-.05.07-.05.02,0,.04,0,.07.02.02.02.05.03.06.05s.04.04.08.08c0,.01.02.02.02.02,0,0,.06.06.18.18.12.12.24.25.38.39s.31.31.52.52c.21.21.4.4.58.57.1.1.25.25.43.43s.35.35.49.49c.14.14.22.22.24.24h.02l-.05-2.31c0-.15-.02-.26-.04-.33-.03-.06-.07-.11-.14-.13-.05-.02-.15-.03-.28-.03-.06,0-.09-.02-.09-.05,0-.03.04-.05.13-.05.11,0,.24,0,.4,0s.26,0,.28,0c0,0,.06,0,.18,0,.12,0,.23,0,.34,0,.08,0,.12.02.12.05,0,.04-.03.05-.09.05s-.12,0-.16.02c-.07.02-.12.06-.15.12-.03.06-.04.16-.04.31l-.06,3.27c0,.05,0,.09-.03.12-.02.03-.04.04-.06.04-.07,0-.15-.04-.22-.11-.3-.28-.82-.78-1.57-1.5-.17-.16-.35-.34-.55-.55-.19-.2-.36-.37-.48-.5-.13-.13-.2-.21-.23-.23h-.02Z"></path></g><g><path class="cls-1" d="M8.4,47.81h-1.87s-.06.02-.08.07l-.45,1.2c-.08.22-.13.39-.13.51,0,.17.11.26.34.26h.13s.08,0,.1.02.02.03.02.05c0,.05-.05.08-.14.08s-.24,0-.45-.01c-.21,0-.36-.01-.44-.01,0,0-.13,0-.37.01-.24,0-.45.01-.62.01-.11,0-.16-.03-.16-.08,0-.05.03-.07.1-.07.08,0,.17,0,.26-.02.18-.02.32-.09.42-.21.1-.12.2-.3.29-.54l2.1-5.26c.05-.13.1-.22.13-.27.03-.05.07-.07.1-.07.04,0,.07.02.1.06.03.04.07.11.11.2.05.13.36.9.93,2.32.57,1.42.95,2.37,1.15,2.84.08.18.15.33.22.45.07.12.14.21.2.28.06.06.12.1.16.13.05.02.1.04.15.06.11.02.23.03.35.03.07,0,.11.02.11.07,0,.03-.03.05-.08.07s-.15.02-.31.02c-.61,0-1.14,0-1.58-.02-.14,0-.23-.02-.24-.04,0,0,0-.01,0-.02,0-.04.04-.07.11-.08.03,0,.06-.03.08-.07.02-.04.02-.08,0-.12l-.67-1.78s-.04-.06-.09-.06ZM6.7,47.39h1.54s.05-.02.04-.05l-.75-2.07s-.03-.07-.04-.07-.04.02-.05.07l-.77,2.06s0,.06.03.06Z"></path><path class="cls-1" d="M11.68,46.18v1.09c0,.26,0,.44,0,.54,0,.1,0,.22.01.35,0,.14.02.23.04.29.02.06.05.1.08.13.1.09.38.13.85.13.21,0,.36-.01.47-.03.11-.02.2-.07.28-.14.04-.04.07-.09.1-.17.03-.07.05-.14.06-.21,0-.06.03-.09.07-.09.04,0,.06.05.06.14,0,.05-.01.16-.03.33-.02.17-.04.3-.06.38-.02.07-.05.12-.1.14-.04.02-.15.03-.31.03-.45,0-.83,0-1.15-.02-.43,0-.71-.01-.85-.01-.04,0-.16,0-.36.01-.2,0-.35.01-.44.01-.08,0-.12-.02-.12-.06,0-.04.03-.07.1-.07.09,0,.17,0,.22-.02.06-.01.11-.05.13-.1.03-.05.05-.13.06-.23.02-.18.03-.62.03-1.32v-1.09c0-.74,0-1.18,0-1.31,0-.1-.03-.18-.07-.22-.04-.04-.11-.08-.21-.11-.05-.01-.12-.02-.21-.02-.07,0-.11-.02-.11-.06,0-.04.05-.06.14-.06.11,0,.27,0,.49,0,.22,0,.35,0,.39,0,.04,0,.18,0,.43,0,.24,0,.41,0,.5,0s.14.02.14.06c0,.04-.04.06-.12.06-.09,0-.18,0-.25.02-.09.01-.14.05-.18.09-.03.05-.05.13-.06.24,0,.13-.01.57-.01,1.31Z"></path><path class="cls-1" d="M14.23,47.28v-2.5l-.96.02c-.19,0-.33.02-.41.05-.09.03-.16.07-.2.14-.05.07-.08.14-.11.21-.01.05-.04.08-.07.08-.04,0-.06-.03-.06-.1,0-.04.02-.17.06-.38.04-.21.06-.33.08-.37.01-.08.04-.11.07-.11.01,0,.05.01.1.03.06.02.11.03.17.04.17.02.38.03.64.03h2.6c.16,0,.31,0,.44-.03.03,0,.06,0,.08-.01.03,0,.05,0,.06-.01.01,0,.02,0,.03,0,.04,0,.05.04.05.13,0,.04,0,.16,0,.37,0,.2,0,.33,0,.38,0,.07-.03.1-.06.1-.02,0-.04,0-.05-.02,0-.02-.02-.05-.02-.1v-.07c-.02-.09-.08-.18-.2-.25-.12-.07-.31-.11-.57-.11h-.81s0,2.49,0,2.49c0,.66.01,1.1.04,1.33.01.1.03.17.07.22.03.05.09.08.18.1.09.01.2.02.33.02.03,0,.06,0,.08.02s.03.03.03.05c0,.04-.04.06-.12.06-.16,0-.36,0-.61-.01-.24,0-.39-.01-.43-.01s-.17,0-.38.01c-.21,0-.36.01-.46.01-.08,0-.12-.02-.12-.06,0-.04.03-.07.1-.07.1,0,.17,0,.22-.02.06-.01.11-.05.13-.1.03-.05.05-.13.06-.23.02-.2.03-.64.03-1.32Z"></path><path class="cls-1" d="M17.55,47.09v-.91c0-.81,0-1.25,0-1.31,0-.11-.03-.18-.07-.23-.04-.04-.11-.08-.21-.11-.05-.01-.13-.02-.25-.02-.07,0-.11-.02-.11-.06,0-.04.05-.06.14-.06.13,0,.3,0,.54,0,.23,0,.37,0,.42,0s.18,0,.38,0c.21,0,.36,0,.44,0,.09,0,.14.02.14.06,0,.04-.03.06-.1.06-.04,0-.11,0-.19.02-.08.01-.14.05-.17.09-.03.05-.05.13-.06.24,0,.13-.01.57-.01,1.31v.87c0,.43.04.75.12.97.08.22.2.4.37.53.21.16.48.25.81.25.35,0,.64-.11.86-.33.09-.08.15-.17.21-.28.05-.11.09-.23.11-.37.02-.14.04-.27.04-.39,0-.12,0-.27,0-.46v-.78c0-.55,0-.99-.02-1.31,0-.11-.03-.18-.06-.23-.04-.04-.1-.08-.2-.11-.05-.01-.13-.02-.23-.02-.07,0-.11-.02-.11-.06,0-.04.04-.06.13-.06.06,0,.13,0,.2,0,.07,0,.14,0,.21,0,.06,0,.12,0,.17,0,.05,0,.1,0,.13,0h.05s.11,0,.31,0c.2,0,.34,0,.44,0,.09,0,.13.02.13.06,0,.04-.04.06-.11.06-.04,0-.11,0-.19.02-.09.01-.14.05-.17.09-.03.05-.05.13-.06.24,0,.26-.01.7-.01,1.31v.66c0,.2,0,.38-.02.53-.01.15-.04.32-.08.49-.04.17-.1.33-.19.47-.09.14-.19.27-.32.38-.36.3-.81.44-1.36.44-.65,0-1.14-.14-1.47-.42-.39-.34-.58-.89-.58-1.64Z"></path><path class="cls-1" d="M26.36,47.98v.68c0,.09,0,.14-.01.16,0,.02-.03.04-.07.06-.38.18-.9.28-1.56.28-.32,0-.63-.03-.91-.09-.29-.06-.56-.15-.81-.28-.25-.13-.47-.28-.65-.47-.18-.19-.33-.42-.43-.69-.11-.27-.16-.57-.16-.91,0-.46.11-.87.32-1.22.21-.35.48-.62.81-.81.28-.16.55-.27.82-.32.27-.05.57-.08.9-.08.2,0,.41.01.65.04.24.02.4.05.49.06.25.04.42.06.51.07.06,0,.09.03.09.07,0,0,0,.04-.01.11,0,.07-.01.18-.02.33s-.01.35-.01.58c0,.09-.03.14-.09.14-.04,0-.06-.03-.07-.08-.02-.21-.09-.38-.22-.51-.12-.12-.3-.23-.54-.33-.24-.1-.53-.15-.85-.15-.12,0-.21,0-.29,0-.08,0-.17.02-.29.04-.12.02-.23.06-.34.11-.11.05-.22.12-.32.2-.39.32-.59.82-.59,1.51,0,.44.09.84.27,1.19.18.35.44.62.78.82.34.2.73.3,1.18.3.2,0,.35-.02.45-.06.08-.04.12-.11.12-.22v-.57c0-.36,0-.6,0-.73,0-.1-.02-.18-.06-.22s-.11-.08-.22-.11c-.05-.01-.13-.02-.25-.02-.03,0-.05,0-.07-.02-.02-.01-.03-.03-.03-.05,0-.04.05-.06.14-.06.12,0,.31,0,.55,0,.24,0,.39,0,.44,0,.07,0,.19,0,.37,0,.18,0,.31,0,.38,0,.05,0,.08,0,.1.01.02,0,.03.02.03.05,0,.02,0,.04-.02.05-.02.01-.03.02-.06.02-.05,0-.11,0-.18.02-.09.01-.15.05-.18.1s-.06.13-.06.24c0,.13,0,.37,0,.74ZM23.35,43.27s.02-.05.06-.07l.24-.19s.07-.05.09-.05c.01,0,.03,0,.04.02.02.02.03.04.06.07.02.03.04.05.06.07.11.13.22.22.33.26.11.04.22.06.34.06.23,0,.45-.07.64-.2.06-.05.12-.1.17-.14.05-.05.08-.08.1-.1.02-.02.04-.03.05-.03.04,0,.06.02.06.06,0,.05-.05.14-.16.26-.11.12-.21.22-.3.28-.14.09-.26.15-.37.19-.11.04-.25.06-.42.06-.11,0-.23-.02-.37-.07s-.25-.11-.35-.19c-.18-.14-.27-.24-.27-.29Z"></path></g></g></g></g></g></svg>