<?xml version="1.0" encoding="UTF-8" standalone="no"?>
<!DOCTYPE svg PUBLIC "-//W3C//DTD SVG 1.1//EN" "http://www.w3.org/Graphics/SVG/1.1/DTD/svg11.dtd">
<svg xmlns="http://www.w3.org/2000/svg" xmlns:xlink="http://www.w3.org/1999/xlink" version="1.1" width="608.302pt" height="370.727pt" viewBox="0 0 608.302 370.727">
<g enable-background="new">
<g id="Layer-1" data-name="Layer 1">
<clipPath id="cp0">
<path transform="matrix(1,0,0,-1,0,370.727)" d="M 0 370.727 L 608.302 370.727 L 608.302 0 L 0 0 Z "/>
</clipPath>
<g clip-path="url(#cp0)">
<path transform="matrix(1,0,0,-1,510.8564,69.622379)" d="M 0 0 L 62.392 0 C 81.708 0 97.446 -15.734 97.446 -35.051 L 97.446 -266.054 C 97.446 -285.371 81.707 -301.104 62.392 -301.104 L -475.803 -301.104 C -495.118 -301.104 -510.856 -285.372 -510.856 -266.054 L -510.856 -35.051 C -510.856 -15.734 -495.118 0 -475.803 0 L -401.623 0 L -46.665 69.006 C -28.466 72.541 -10.886 60.506 -7.597 42.26 Z " fill="#ffffff"/>
<path transform="matrix(1,0,0,-1,591.8071,290.85679)" d="M 0 0 L 0 -44.819 C 0 -55.025 -8.351 -63.375 -18.559 -63.375 L -556.753 -63.375 C -566.961 -63.375 -575.312 -55.025 -575.312 -44.819 L -575.312 0 Z M -556.753 204.739 L -18.559 204.739 C -8.351 204.739 0 196.389 0 186.183 L 0 12.558 L -575.312 12.558 L -575.312 186.183 C -575.312 196.389 -566.961 204.739 -556.753 204.739 " fill="#0056a4" fill-rule="evenodd"/>
<path transform="matrix(1,0,0,-1,520.7803,218.05989)" d="M 0 0 L -403.201 -78.313 C -412.384 -80.094 -421.232 -74.027 -422.884 -64.832 L -453.654 106.15 C -455.303 115.338 -449.152 124.322 -439.979 126.106 L -53.442 201.251 C -44.271 203.033 -35.412 196.968 -33.755 187.775 Z " fill="#ec1c29" fill-rule="evenodd"/>
<path transform="matrix(1,0,0,-1,118.3867,167.8236)" d="M 0 0 L 9.978 -.022 C 15.655 -.033 20.269 3.548 20.281 8.385 C 20.291 13.15 16.617 16.989 12.169 16.999 L 2.034 17.022 Z M -5.467 -44.966 L 12.487 -45.005 C 18.172 -45.018 22.937 -40.872 22.95 -35.585 C 22.961 -30.361 19.433 -25.988 14.985 -25.979 L -3.129 -25.938 Z M 45.251 -14.682 C 50.082 -19.066 52.6 -25.902 52.583 -33.424 C 52.536 -54.519 34.537 -71.511 12.731 -71.462 L -23.184 -71.381 C -31.325 -71.363 -36.218 -65.906 -36.199 -57.16 C -36.197 -56.555 -36.196 -55.704 -36.048 -54.941 L -26.032 27.986 C -25.093 36.877 -17.718 43.613 -9.271 43.594 L 16.523 43.538 C 36.333 43.494 49.199 32.116 49.162 14.854 C 49.15 10.396 48.216 5.793 46.368 1.652 C 44.058 -3.631 42.205 -5.695 36.676 -9.833 C 41.124 -11.613 42.952 -12.611 45.251 -14.682 " fill="#ffffff" fill-rule="evenodd"/>
<path transform="matrix(1,0,0,-1,198.0547,241.0472)" d="M 0 0 C -7.382 .016 -13.035 7.088 -13.017 15.676 L -5.902 74.054 C -4.958 83.037 1.959 89.532 10.396 89.515 C 17.47 89.499 23.431 82.436 23.412 73.84 L 16.3 15.31 C 15.206 6.487 8.293 -.02 0 0 " fill="#ffffff" fill-rule="evenodd"/>
<path transform="matrix(1,0,0,-1,315.1729,212.9291)" d="M 0 0 C 6.294 -.015 11.343 -6.083 11.326 -13.526 C 11.31 -20.736 4.851 -26.782 -3.276 -26.764 L -69.993 -26.616 C -77.972 -26.599 -83.486 -21.682 -83.47 -14.16 C -83.46 -10.325 -81.769 -6.491 -79.143 -3.115 L -24.276 61.745 L -59.509 61.824 C -65.803 61.837 -71.007 67.754 -70.991 75.276 C -70.976 82.42 -64.372 88.384 -56.37 88.369 L 4.329 88.233 C 12.159 88.215 17.833 82.905 17.817 75.542 C 17.809 72.159 15.958 67.87 12.571 64.113 L -41.684 .093 Z " fill="#ffffff" fill-rule="evenodd"/>
<path transform="matrix(1,0,0,-1,356.8506,241.4007)" d="M 0 0 C -7.361 .017 -13.033 7.09 -13.016 15.677 L -5.89 74.055 C -4.957 83.038 1.969 89.533 10.416 89.515 C 17.476 89.5 23.451 82.436 23.431 73.842 L 16.31 15.31 C 15.224 6.487 8.299 -.018 0 0 " fill="#ffffff" fill-rule="evenodd"/>
<path transform="matrix(1,0,0,-1,419.3701,227.66339)" d="M 0 0 C -2.012 -8.121 -8.629 -13.712 -16.305 -13.695 C -23.523 -13.678 -29.031 -8.061 -29.014 -.921 C -29.01 1.066 -28.847 2.911 -28.391 4.677 L -4.719 87.406 C -2.087 97.151 6.679 104.117 16.501 104.094 C 25.863 104.073 32.153 98.458 33.818 89.246 L 42.459 37.124 L 63.597 89.18 C 67.306 98.378 74.982 103.964 84.045 103.943 C 94.269 103.921 101.079 97.224 101.665 87.172 L 105.32 4.379 C 105.297 -6.294 98.371 -13.949 89.008 -13.928 C 81.027 -13.91 75.815 -8.438 75.68 -.168 L 75.198 56.237 L 51.276 -2.181 C 48.033 -10.452 43.565 -14.129 36.96 -14.114 C 29.297 -14.098 25.465 -10.401 24.096 -2.119 L 14.245 56.371 Z " fill="#ffffff" fill-rule="evenodd"/>
<path transform="matrix(1,0,0,-1,222.4604,132.3075)" d="M 0 0 C -.018 -7.905 -5.853 -14.258 -13.072 -14.243 C -20.289 -14.226 -26.19 -7.846 -26.173 .059 C -26.155 7.961 -20.226 14.32 -13.008 14.303 C -5.79 14.289 .018 7.903 0 0 " fill="#ffffff" fill-rule="evenodd"/>
<path transform="matrix(1,0,0,-1,382.7349,132.66289)" d="M 0 0 C -.018 -7.905 -5.86 -14.259 -13.082 -14.243 C -20.368 -14.226 -26.194 -7.846 -26.176 .059 C -26.158 7.961 -20.305 14.319 -13.017 14.303 C -5.796 14.287 .02 7.903 0 0 " fill="#ffffff" fill-rule="evenodd"/>
<path transform="matrix(1,0,0,-1,152.3364,309.4476)" d="M 0 0 L -2.894 0 C -4.791 0 -6.199 .3 -7.116 .902 C -8.033 1.502 -8.492 2.411 -8.492 3.629 C -8.492 4.878 -8.029 5.809 -7.104 6.417 C -6.179 7.025 -4.776 7.33 -2.894 7.33 L 10.794 7.33 C 12.66 7.33 14.059 7.025 14.993 6.417 C 15.926 5.809 16.392 4.878 16.392 3.629 C 16.392 2.411 15.929 1.502 15.004 .902 C 14.079 .3 12.675 0 10.794 0 L 7.876 0 L 7.876 -22.061 C 7.876 -23.942 7.552 -25.342 6.904 -26.259 C 6.254 -27.177 5.267 -27.635 3.938 -27.635 C 2.61 -27.635 1.621 -27.177 .973 -26.259 C .325 -25.342 0 -23.942 0 -22.061 Z " fill="#ffffff"/>
<path transform="matrix(1,0,0,-1,172.0503,323.63319)" d="M 0 0 C 0 -1.96 .465 -3.538 1.4 -4.732 C 2.332 -5.926 3.55 -6.523 5.052 -6.523 C 6.554 -6.523 7.772 -5.923 8.705 -4.721 C 9.638 -3.519 10.104 -1.945 10.104 0 C 10.104 1.882 9.626 3.42 8.669 4.614 C 7.713 5.808 6.507 6.405 5.052 6.405 C 3.566 6.405 2.352 5.812 1.412 4.626 C .47 3.44 0 1.897 0 0 M -7.923 -.094 C -7.923 3.891 -6.701 7.168 -4.258 9.737 C -1.815 12.308 1.288 13.592 5.052 13.592 C 8.832 13.592 11.931 12.312 14.351 9.749 C 16.771 7.187 17.98 3.906 17.98 -.094 C 17.98 -4.097 16.771 -7.381 14.351 -9.95 C 11.931 -12.521 8.832 -13.806 5.052 -13.806 C 1.288 -13.806 -1.815 -12.517 -4.258 -9.938 C -6.701 -7.362 -7.923 -4.08 -7.923 -.094 " fill="#ffffff"/>
<path transform="matrix(1,0,0,-1,200.3745,323.8226)" d="M 0 0 C 0 -1.961 .465 -3.538 1.399 -4.732 C 2.333 -5.927 3.55 -6.523 5.052 -6.523 C 6.554 -6.523 7.772 -5.922 8.705 -4.721 C 9.638 -3.519 10.104 -1.945 10.104 0 C 10.104 1.882 9.626 3.419 8.669 4.613 C 7.713 5.808 6.507 6.404 5.052 6.404 C 3.582 6.404 2.372 5.812 1.423 4.625 C .474 3.439 0 1.898 0 0 M .142 -17.933 C .142 -19.831 -.174 -21.238 -.807 -22.155 C -1.439 -23.072 -2.405 -23.531 -3.701 -23.531 C -4.998 -23.531 -5.958 -23.072 -6.583 -22.155 C -7.208 -21.238 -7.521 -19.831 -7.521 -17.933 L -7.521 7.804 C -7.521 9.687 -7.208 11.081 -6.583 11.991 C -5.958 12.9 -4.998 13.354 -3.701 13.354 C -2.926 13.354 -2.238 13.153 -1.637 12.75 C -1.036 12.347 -.506 11.734 -.047 10.911 C .743 11.781 1.671 12.438 2.739 12.881 C 3.807 13.322 4.981 13.545 6.262 13.545 C 9.551 13.545 12.319 12.264 14.565 9.702 C 16.811 7.14 17.933 3.938 17.933 .096 C 17.933 -3.732 16.782 -6.982 14.482 -9.654 C 12.181 -12.327 9.409 -13.663 6.167 -13.663 C 5.013 -13.663 3.941 -13.478 2.953 -13.106 C 1.964 -12.734 1.028 -12.178 .142 -11.434 Z " fill="#ffffff"/>
<path transform="matrix(1,0,0,-1,222.6733,317.8451)" d="M 0 0 L -.285 0 C -1.629 0 -2.685 .297 -3.452 .89 C -4.218 1.482 -4.602 2.285 -4.602 3.298 C -4.602 4.341 -4.218 5.147 -3.452 5.717 C -2.685 6.286 -1.534 6.61 0 6.689 L 0 10.059 C 0 11.939 .316 13.339 .948 14.257 C 1.582 15.174 2.546 15.632 3.843 15.632 C 5.124 15.632 6.076 15.174 6.702 14.257 C 7.326 13.339 7.638 11.939 7.638 10.059 L 7.638 6.689 L 8.302 6.689 C 9.821 6.689 11.002 6.389 11.849 5.789 C 12.694 5.187 13.118 4.356 13.118 3.298 C 13.118 2.206 12.71 1.384 11.896 .831 C 11.082 .276 9.868 0 8.255 0 L 7.638 0 L 7.638 -13.568 C 7.638 -15.467 7.331 -16.869 6.713 -17.779 C 6.096 -18.688 5.14 -19.143 3.843 -19.143 C 2.546 -19.143 1.582 -18.684 .948 -17.767 C .316 -16.85 0 -15.45 0 -13.568 Z " fill="#ffffff"/>
<path transform="matrix(1,0,0,-1,242.7432,323.63319)" d="M 0 0 C 0 -1.882 .458 -3.396 1.375 -4.542 C 2.292 -5.689 3.486 -6.263 4.958 -6.263 C 6.396 -6.263 7.574 -5.681 8.492 -4.519 C 9.409 -3.356 9.867 -1.85 9.867 0 C 9.867 1.803 9.405 3.273 8.48 4.412 C 7.555 5.552 6.381 6.12 4.958 6.12 C 3.502 6.12 2.312 5.555 1.387 4.424 C .462 3.293 0 1.818 0 0 M 10.104 -10.697 C 9.33 -11.646 8.393 -12.37 7.293 -12.869 C 6.195 -13.367 4.997 -13.616 3.7 -13.616 C .427 -13.616 -2.33 -12.327 -4.566 -9.749 C -6.805 -7.172 -7.923 -3.953 -7.923 -.094 C -7.923 3.717 -6.769 6.927 -4.46 9.536 C -2.151 12.146 .663 13.45 3.985 13.45 C 5.281 13.45 6.432 13.229 7.437 12.786 C 8.44 12.343 9.33 11.655 10.104 10.722 C 10.547 11.528 11.078 12.138 11.694 12.549 C 12.311 12.96 12.999 13.165 13.757 13.165 C 15.039 13.165 15.988 12.715 16.605 11.813 C 17.221 10.912 17.529 9.513 17.529 7.614 L 17.529 -7.78 C 17.529 -9.662 17.217 -11.062 16.592 -11.979 C 15.967 -12.896 15.022 -13.354 13.757 -13.354 C 12.904 -13.354 12.184 -13.141 11.599 -12.714 C 11.014 -12.287 10.516 -11.615 10.104 -10.697 " fill="#ffffff"/>
<path transform="matrix(1,0,0,-1,264.6143,331.4134)" d="M 0 0 L 0 15.395 C 0 17.277 .313 18.672 .937 19.582 C 1.562 20.491 2.523 20.945 3.819 20.945 C 4.594 20.945 5.282 20.744 5.883 20.341 C 6.484 19.937 7.014 19.325 7.473 18.502 C 8.294 19.404 9.244 20.06 10.32 20.472 C 11.395 20.883 12.7 21.088 14.233 21.088 C 17.253 21.088 19.562 20.226 21.16 18.502 C 22.757 16.779 23.556 14.272 23.556 10.983 L 23.556 0 C 23.556 -1.882 23.24 -3.281 22.606 -4.198 C 21.975 -5.115 21.009 -5.574 19.713 -5.574 C 18.417 -5.574 17.451 -5.115 16.819 -4.198 C 16.186 -3.281 15.87 -1.882 15.87 0 L 15.87 8.658 C 15.87 10.793 15.549 12.314 14.91 13.225 C 14.269 14.134 13.213 14.589 11.743 14.589 C 10.351 14.589 9.323 14.117 8.659 13.177 C 7.995 12.236 7.663 10.762 7.663 8.754 L 7.663 0 C 7.663 -1.882 7.346 -3.281 6.713 -4.198 C 6.081 -5.115 5.116 -5.574 3.819 -5.574 C 2.523 -5.574 1.562 -5.115 .937 -4.198 C .313 -3.281 0 -1.882 0 0 " fill="#ffffff"/>
<path transform="matrix(1,0,0,-1,305.4165,330.6312)" d="M 0 0 L 4.223 23.556 C 4.57 25.501 5.159 26.889 5.99 27.719 C 6.82 28.55 8.01 28.964 9.56 28.964 C 11.03 28.964 12.216 28.576 13.118 27.802 C 14.02 27.027 14.668 25.856 15.063 24.291 L 20.305 3.653 L 25.215 24.339 C 25.579 25.873 26.212 27.027 27.114 27.802 C 28.015 28.576 29.177 28.964 30.6 28.964 C 32.229 28.964 33.479 28.525 34.349 27.647 C 35.218 26.771 35.819 25.312 36.151 23.271 L 39.994 -.497 C 40.058 -.846 40.105 -1.182 40.136 -1.506 C 40.168 -1.83 40.185 -2.119 40.185 -2.372 C 40.185 -3.637 39.82 -4.642 39.092 -5.384 C 38.366 -6.128 37.4 -6.499 36.198 -6.499 C 35.091 -6.499 34.214 -6.119 33.566 -5.36 C 32.917 -4.602 32.499 -3.447 32.308 -1.896 L 29.817 18.74 C 27.904 10.485 26.485 4.649 25.56 1.234 C 24.635 -2.182 23.919 -4.293 23.413 -5.1 C 23.097 -5.605 22.681 -5.966 22.168 -6.179 C 21.653 -6.393 20.969 -6.499 20.116 -6.499 C 18.787 -6.499 17.775 -6.199 17.079 -5.598 C 16.384 -4.997 15.854 -3.977 15.49 -2.537 L 10.39 18.74 L 7.686 -1.399 C 7.433 -3.187 6.975 -4.483 6.31 -5.289 C 5.646 -6.096 4.728 -6.499 3.558 -6.499 C 2.404 -6.499 1.474 -6.128 .771 -5.384 C .067 -4.642 -.285 -3.637 -.285 -2.372 C -.285 -2.071 -.261 -1.72 -.214 -1.316 C -.167 -.913 -.094 -.474 0 0 " fill="#ffffff"/>
<path transform="matrix(1,0,0,-1,354.3789,323.63319)" d="M 0 0 C 0 -1.882 .458 -3.396 1.375 -4.542 C 2.292 -5.689 3.486 -6.263 4.958 -6.263 C 6.396 -6.263 7.574 -5.681 8.492 -4.519 C 9.409 -3.356 9.867 -1.85 9.867 0 C 9.867 1.803 9.405 3.273 8.48 4.412 C 7.555 5.552 6.381 6.12 4.958 6.12 C 3.502 6.12 2.313 5.555 1.387 4.424 C .462 3.293 0 1.818 0 0 M 10.105 -10.697 C 9.33 -11.646 8.394 -12.37 7.294 -12.869 C 6.195 -13.367 4.997 -13.616 3.7 -13.616 C .427 -13.616 -2.329 -12.327 -4.566 -9.749 C -6.804 -7.172 -7.923 -3.953 -7.923 -.094 C -7.923 3.717 -6.769 6.927 -4.46 9.536 C -2.151 12.146 .664 13.45 3.985 13.45 C 5.281 13.45 6.432 13.229 7.437 12.786 C 8.441 12.343 9.33 11.655 10.105 10.722 C 10.548 11.528 11.078 12.138 11.695 12.549 C 12.311 12.96 12.999 13.165 13.757 13.165 C 15.039 13.165 15.988 12.715 16.605 11.813 C 17.221 10.912 17.53 9.513 17.53 7.614 L 17.53 -7.78 C 17.53 -9.662 17.217 -11.062 16.592 -11.979 C 15.968 -12.896 15.023 -13.354 13.757 -13.354 C 12.904 -13.354 12.184 -13.141 11.599 -12.714 C 11.014 -12.287 10.517 -11.615 10.105 -10.697 " fill="#ffffff"/>
<path transform="matrix(1,0,0,-1,376.25,331.4134)" d="M 0 0 L 0 15.395 C 0 17.277 .313 18.672 .937 19.582 C 1.562 20.491 2.523 20.945 3.819 20.945 C 4.595 20.945 5.283 20.744 5.883 20.341 C 6.484 19.937 7.014 19.325 7.473 18.502 C 8.264 19.357 9.102 20.001 9.988 20.437 C 10.873 20.87 11.767 21.088 12.667 21.088 C 13.728 21.088 14.64 20.713 15.408 19.961 C 16.174 19.21 16.558 18.32 16.558 17.293 C 16.558 15.759 15.151 14.478 12.335 13.45 C 11.324 13.086 10.565 12.786 10.059 12.548 C 9.093 12.089 8.454 11.58 8.137 11.019 C 7.821 10.457 7.663 9.441 7.663 7.97 L 7.663 0 C 7.663 -1.882 7.347 -3.281 6.713 -4.198 C 6.081 -5.115 5.116 -5.574 3.819 -5.574 C 2.523 -5.574 1.562 -5.115 .937 -4.198 C .313 -3.281 0 -1.882 0 0 " fill="#ffffff"/>
<path transform="matrix(1,0,0,-1,401.396,319.26789)" d="M 0 0 L 6.524 6.76 C 7.219 7.487 7.883 8.018 8.516 8.35 C 9.147 8.682 9.789 8.848 10.438 8.848 C 11.338 8.848 12.102 8.555 12.726 7.971 C 13.351 7.385 13.664 6.689 13.664 5.883 C 13.664 5.282 13.489 4.657 13.141 4.009 C 12.794 3.36 12.319 2.751 11.718 2.182 L 6.571 -2.563 L 13.711 -10.983 C 14.232 -11.601 14.612 -12.204 14.849 -12.798 C 15.087 -13.392 15.205 -14.012 15.205 -14.66 C 15.205 -15.546 14.861 -16.293 14.173 -16.902 C 13.485 -17.511 12.635 -17.814 11.624 -17.814 C 10.879 -17.814 10.18 -17.621 9.524 -17.234 C 8.867 -16.847 8.239 -16.25 7.639 -15.442 L 0 -5.243 L 0 -12.146 C 0 -14.044 -.316 -15.463 -.949 -16.403 C -1.582 -17.345 -2.547 -17.814 -3.843 -17.814 C -5.124 -17.814 -6.082 -17.345 -6.713 -16.403 C -7.346 -15.463 -7.663 -14.044 -7.663 -12.146 L -7.663 14.09 C -7.663 15.987 -7.35 17.396 -6.725 18.312 C -6.101 19.229 -5.14 19.688 -3.843 19.688 C -2.547 19.688 -1.582 19.222 -.949 18.289 C -.316 17.355 0 15.956 0 14.09 Z " fill="#ffffff"/>
<path transform="matrix(1,0,0,-1,424.0034,320.85679)" d="M 0 0 L 10.105 0 C 10.01 1.296 9.489 2.38 8.54 3.249 C 7.591 4.119 6.46 4.555 5.148 4.555 C 3.851 4.555 2.736 4.143 1.803 3.32 C .87 2.498 .269 1.391 0 0 M .094 -5.006 C .269 -6.444 .862 -7.568 1.874 -8.374 C 2.886 -9.181 4.222 -9.584 5.883 -9.584 C 7.321 -9.584 8.923 -9.169 10.686 -8.339 C 12.45 -7.509 13.537 -7.093 13.949 -7.093 C 14.85 -7.093 15.584 -7.37 16.154 -7.924 C 16.723 -8.478 17.008 -9.189 17.008 -10.059 C 17.008 -11.703 15.861 -13.186 13.569 -14.506 C 11.275 -15.827 8.579 -16.487 5.48 -16.487 C 1.699 -16.487 -1.456 -15.198 -3.985 -12.62 C -6.516 -10.043 -7.781 -6.81 -7.781 -2.919 C -7.781 .987 -6.551 4.246 -4.091 6.854 C -1.633 9.464 1.431 10.769 5.101 10.769 C 8.643 10.769 11.607 9.543 13.996 7.092 C 16.383 4.641 17.578 1.645 17.578 -1.898 C 17.578 -3.054 17.316 -3.859 16.795 -4.318 C 16.272 -4.776 15.269 -5.006 13.782 -5.006 Z " fill="#ffffff"/>
<path transform="matrix(1,0,0,-1,445.5195,317.8451)" d="M 0 0 L -.285 0 C -1.629 0 -2.685 .297 -3.452 .89 C -4.218 1.482 -4.602 2.285 -4.602 3.298 C -4.602 4.341 -4.218 5.147 -3.452 5.717 C -2.685 6.286 -1.534 6.61 0 6.689 L 0 10.059 C 0 11.939 .316 13.339 .948 14.257 C 1.582 15.174 2.546 15.632 3.843 15.632 C 5.124 15.632 6.076 15.174 6.702 14.257 C 7.326 13.339 7.638 11.939 7.638 10.059 L 7.638 6.689 L 8.302 6.689 C 9.821 6.689 11.002 6.389 11.849 5.789 C 12.694 5.187 13.118 4.356 13.118 3.298 C 13.118 2.206 12.71 1.384 11.896 .831 C 11.082 .276 9.868 0 8.255 0 L 7.638 0 L 7.638 -13.568 C 7.638 -15.467 7.331 -16.869 6.713 -17.779 C 6.096 -18.688 5.14 -19.143 3.843 -19.143 C 2.546 -19.143 1.582 -18.684 .948 -17.767 C .316 -16.85 0 -15.45 0 -13.568 Z " fill="#ffffff"/>
</g>
</g>
</g>
</svg>
