<?xml version="1.0" encoding="UTF-8"?>
<svg version="1.1" xmlns="http://www.w3.org/2000/svg" width="1182" height="300">
<path d="M0 0 C2.2899826 0.01073734 4.5791812 0.00001582 6.86914062 -0.01269531 C37.70739568 -0.04446627 37.70739568 -0.04446627 48.31054688 8.97949219 C58.79011196 19.74586642 57.85995557 33.35495391 57.75195312 47.33496094 C57.74956324 49.38841129 57.74866453 51.44186387 57.74917603 53.49531555 C57.74605956 57.78795174 57.72959015 62.08025126 57.70263672 66.37280273 C57.66876698 71.83140766 57.66100609 77.28964195 57.66252708 82.74833965 C57.66197872 86.98756851 57.65093584 91.22671892 57.6365242 95.4659214 C57.63022924 97.47622906 57.62623475 99.48654546 57.62473679 101.49686241 C57.56992926 136.61663998 57.56992926 136.61663998 50.29101562 146.26074219 C40.84290564 155.5724877 29.01149878 155.41561874 16.52148438 155.42871094 C15.40469803 155.43203934 14.28791168 155.43536774 13.13728333 155.438797 C10.78317677 155.44384099 8.42906312 155.44620611 6.07495117 155.44604492 C2.50036669 155.44822884 -1.0739076 155.46640486 -4.6484375 155.48535156 C-6.9459625 155.48828664 -9.24348895 155.49027067 -11.54101562 155.49121094 C-13.12436455 155.50198921 -13.12436455 155.50198921 -14.73970032 155.51298523 C-24.99855724 155.4818714 -35.48205126 155.00144897 -43.39648438 147.82324219 C-50.47375218 139.98086435 -52.11600798 131.75821335 -52.38378906 121.37670898 C-52.41673443 120.47044864 -52.44967979 119.56418829 -52.4836235 118.63046551 C-52.80070322 109.22442499 -52.89123662 99.81598535 -52.91210938 90.40527344 C-52.91493675 89.52131079 -52.91776413 88.63734814 -52.92067719 87.72659874 C-52.93545234 83.07253113 -52.94482448 78.41849293 -52.94921875 73.7644043 C-52.95475577 68.99600387 -52.97895425 64.22788141 -53.0071907 59.45956898 C-53.02586504 55.74734188 -53.03102464 52.0351823 -53.03255463 48.32291222 C-53.03555712 46.56440351 -53.04350304 44.8058953 -53.05673981 43.04743385 C-53.14730727 30.12386348 -52.79366202 19.2238365 -43.70898438 9.26074219 C-32.49424871 -1.37887883 -14.47185787 -0.08033055 0 0 Z M-9.52539062 50.91308594 C-14.20957121 56.25192308 -14.8802188 60.40209076 -14.94726562 67.43652344 C-14.95533737 68.23930222 -14.96340912 69.04208099 -14.97172546 69.8691864 C-14.98554888 71.56796113 -14.99627882 73.26676344 -15.00415039 74.96557617 C-15.02135273 77.55343727 -15.0652513 80.14001678 -15.109375 82.72753906 C-15.1195036 84.38052449 -15.12801918 86.03352075 -15.13476562 87.68652344 C-15.15227371 88.4554744 -15.1697818 89.22442535 -15.18782043 90.01667786 C-15.16386423 95.999502 -13.34498441 99.5474023 -9.11132812 103.90527344 C-4.70978221 107.41477271 -1.587763 108.64535444 4.10351562 108.53027344 C8.89339912 107.94009136 12.74172798 106.09764511 15.86914062 102.38964844 C21.02821626 94.54726048 20.50341443 86.64783269 20.54101562 77.51074219 C20.56164063 76.27324219 20.58226562 75.03574219 20.60351562 73.76074219 C20.63664071 65.97634838 20.55735195 58.55522312 15.67773438 52.13964844 C7.84568717 46.07206245 -1.51250024 43.62394049 -9.52539062 50.91308594 Z " fill="#E63D30" transform="translate(1016.708984375,86.7392578125)"/>
<path d="M0 0 C2.2899826 0.01073734 4.5791812 0.00001582 6.86914062 -0.01269531 C39.33632963 -0.04614447 39.33632963 -0.04614447 50.16601562 10.76074219 C57.26650199 19.95232484 57.87452347 31.26530862 57.71679688 42.44824219 C57.71230953 43.78725741 57.70953562 45.1262793 57.70834351 46.46530151 C57.69990526 50.00361366 57.66627524 53.54122937 57.62618637 57.07930756 C57.59575832 60.0071694 57.57918312 62.93504431 57.56262302 65.86301231 C57.51781474 73.72701005 57.43792886 81.59025481 57.33850098 89.45373535 C57.29574924 92.88123784 57.25860959 96.30873935 57.22363281 99.73632812 C57.17620079 104.11423684 57.11130255 108.49136485 57.02352905 112.86865234 C56.9940062 114.35556327 56.96802481 115.84254964 56.94595337 117.32958984 C56.73823337 129.98712641 55.80882391 139.91438373 46.68945312 149.22558594 C38.32499205 156.32311724 26.68671944 155.41804605 16.30273438 155.42871094 C15.16375198 155.43203934 14.02476959 155.43536774 12.85127258 155.438797 C10.4500875 155.44384165 8.04889546 155.44620609 5.64770508 155.44604492 C2.00069464 155.44822891 -1.64601181 155.46640441 -5.29296875 155.48535156 C-7.63606668 155.48828661 -9.97916604 155.49027066 -12.32226562 155.49121094 C-13.39970535 155.49839645 -14.47714508 155.50558197 -15.5872345 155.51298523 C-26.41083687 155.48079392 -36.3893404 154.8438382 -44.70898438 147.26074219 C-52.88227105 137.40883429 -52.84713491 124.68863903 -52.88598633 112.48754883 C-52.89255753 111.56741501 -52.89912872 110.64728119 -52.90589905 109.69926453 C-52.92542202 106.68980805 -52.93724339 103.6804008 -52.94726562 100.67089844 C-52.95134115 99.63467283 -52.95541668 98.59844723 -52.95961571 97.53082085 C-52.98038073 92.05220623 -52.99472694 86.573616 -53.00415039 81.0949707 C-53.0152323 75.46200402 -53.0496806 69.82943039 -53.08932209 64.19660282 C-53.11554332 59.83922118 -53.12384681 55.48193288 -53.12743187 51.12447929 C-53.1322786 49.04860193 -53.14383743 46.97272819 -53.16246986 44.89692879 C-53.38146875 18.8966314 -53.38146875 18.8966314 -43.72851562 8.97949219 C-31.92775647 -1.06370709 -14.70440861 -0.0816214 0 0 Z M-9.49023438 50.80761719 C-16.07048585 58.09750363 -16.05541354 65.62094413 -16.0246582 75.09130859 C-16.02150323 77.12359544 -16.0449788 79.15441652 -16.0703125 81.18652344 C-16.07450427 89.64551226 -15.95149384 96.31714959 -10.39648438 103.07324219 C-5.66892359 106.92125678 -1.74716333 108.82767085 4.34570312 108.53808594 C10.27511423 107.69272813 13.48006988 104.2898492 17.09179688 99.88183594 C19.81784029 96.19679353 19.4873147 92.63397247 19.52929688 88.21777344 C19.53736862 87.41595139 19.54544037 86.61412933 19.55375671 85.78800964 C19.56760016 84.08745486 19.57832115 82.38687226 19.58618164 80.6862793 C19.60333462 78.10052752 19.64720909 75.5160746 19.69140625 72.93066406 C19.70153877 71.27637657 19.71005313 69.62207822 19.71679688 67.96777344 C19.73430496 67.20084671 19.75181305 66.43391998 19.76985168 65.64375305 C19.7476015 60.06301692 18.44925639 56.8754585 15.29101562 52.26074219 C8.17550334 45.33248023 -1.78379249 44.11518082 -9.49023438 50.80761719 Z " fill="#E63D30" transform="translate(509.708984375,86.7392578125)"/>
<path d="M0 0 C0.71540955 -0.0066568 1.43081909 -0.0133136 2.16790771 -0.02017212 C3.6843407 -0.03030589 5.20081834 -0.03498891 6.71728516 -0.03466797 C9.02452547 -0.03902034 11.32981982 -0.07526901 13.63671875 -0.11328125 C15.11197265 -0.11915372 16.58723561 -0.12312023 18.0625 -0.125 C18.7470929 -0.13937103 19.43168579 -0.15374207 20.13702393 -0.16854858 C25.15080109 -0.12135955 27.9886555 1.11978679 31.796875 4.3359375 C35.07825037 8.57539089 35.21789594 12.42387752 35.16577148 17.59521484 C35.16953796 18.41375443 35.17330444 19.23229401 35.17718506 20.07563782 C35.1836062 21.84784171 35.18329814 23.62008006 35.17700005 25.39228439 C35.1678746 28.20085333 35.1781306 31.00875681 35.19361877 33.81729126 C35.23367608 41.80038438 35.23492284 49.78342465 35.23266602 57.76660156 C35.23261483 62.65489309 35.25182442 67.54282572 35.28199959 72.43101883 C35.29280069 75.19142316 35.28070832 77.95113545 35.26817322 80.71151733 C35.27708123 82.41364213 35.28715686 84.11576135 35.29858398 85.81787109 C35.28884048 86.57966171 35.27909698 87.34145233 35.26905823 88.12632751 C35.34209538 93.59877628 36.67581467 96.82066099 39.796875 101.3359375 C43.64528088 103.7281898 47.34342545 103.80472166 51.796875 103.3359375 C56.77154967 100.84860016 58.74955531 98.44236449 60.796875 93.3359375 C61.06995557 90.49348784 61.19479347 87.87560658 61.16577148 85.0390625 C61.16953796 84.22852417 61.17330444 83.41798584 61.17718506 82.58288574 C61.18359711 80.83143263 61.18330674 79.0799447 61.17700005 77.32849121 C61.16786266 74.55371958 61.17814322 71.77961974 61.19361877 69.00488281 C61.23364911 61.11915073 61.23491984 53.23347307 61.23266602 45.34765625 C61.23261488 40.51656911 61.25179871 35.6858458 61.28199959 30.8548584 C61.29281012 28.12598037 61.28070453 25.39780076 61.26817322 22.66894531 C61.27707912 20.99022739 61.28715402 19.31151513 61.29858398 17.6328125 C61.28396873 16.50111633 61.28396873 16.50111633 61.26905823 15.34655762 C61.33878856 10.2036705 62.5702031 7.30597546 65.796875 3.3359375 C69.78151284 0.08838703 73.47052445 -0.09361173 78.43359375 -0.02734375 C79.15424515 -0.02784225 79.87489655 -0.02834076 80.61738586 -0.02885437 C82.13272882 -0.02652341 83.64807635 -0.01685275 85.16333008 -0.00024414 C87.48749128 0.0234693 89.81051319 0.02029507 92.13476562 0.01367188 C93.60938186 0.01924522 95.08399326 0.02635294 96.55859375 0.03515625 C97.60233406 0.03378914 97.60233406 0.03378914 98.66716003 0.03239441 C103.56579339 0.10485589 103.56579339 0.10485589 105.796875 2.3359375 C106.04576397 4.16599083 106.04576397 4.16599083 106.04411316 6.42807007 C106.04830765 7.28540237 106.05250214 8.14273468 106.05682373 9.02604675 C106.05120422 9.96926285 106.04558472 10.91247894 106.03979492 11.88427734 C106.04169327 12.87656845 106.04359161 13.86885956 106.04554749 14.89122009 C106.04926994 18.19318395 106.0385171 21.49493042 106.02734375 24.796875 C106.02615099 27.10022964 106.02569899 29.40358477 106.0259552 31.7069397 C106.02438699 36.55433161 106.01608165 41.40165004 106.00268555 46.24902344 C105.98586614 52.40804763 105.98186631 58.56698971 105.98263073 64.72603416 C105.98235592 69.49641682 105.97682281 74.26678215 105.96962929 79.03715897 C105.96648275 81.30373631 105.96448479 83.57031559 105.96373558 85.83689499 C105.9587815 93.00427503 105.91075851 100.16943429 105.796875 107.3359375 C105.78315983 108.29316963 105.76944466 109.25040176 105.75531387 110.23664093 C105.70566279 112.97620618 105.6266591 115.71316441 105.53637695 118.45166016 C105.51620026 119.6514428 105.51620026 119.6514428 105.49561596 120.87546349 C105.22824654 127.26163126 103.28732707 131.43229679 99.078125 136.33984375 C82.26038548 151.05536583 60.20618677 153.23052918 38.796875 152.3359375 C23.11557674 151.08079813 5.8108463 146.31110566 -5.203125 134.3359375 C-9.73777662 127.97019258 -9.76459316 121.66429487 -9.68896484 114.07666016 C-9.69276154 112.86926178 -9.69655823 111.6618634 -9.70046997 110.4178772 C-9.70658211 107.12881612 -9.69494237 103.84042701 -9.67456388 100.55144167 C-9.65691506 97.10374929 -9.66051933 93.65607186 -9.6612854 90.20834351 C-9.6594173 84.42672603 -9.64211205 78.64531961 -9.61474609 72.86376953 C-9.58321114 66.17665437 -9.57275322 59.48976938 -9.5742172 52.80258524 C-9.57556646 45.67712961 -9.56170366 38.55176278 -9.54332399 31.4263339 C-9.53905892 29.37327583 -9.53764137 27.32023205 -9.53684616 25.26716995 C-9.53446952 21.45097933 -9.51506947 17.63498123 -9.49365234 13.81884766 C-9.49455872 12.67911499 -9.49546509 11.53938232 -9.49639893 10.3651123 C-9.48786896 9.33056915 -9.47933899 8.296026 -9.47055054 7.23013306 C-9.46719885 6.32794855 -9.46384716 5.42576405 -9.46039391 4.49624062 C-8.82222929 -0.86246765 -4.26458702 0.01370233 0 0 Z " fill="#E63D30" transform="translate(725.203125,89.6640625)"/>
<path d="M0 0 C1.2708696 -0.00453186 1.2708696 -0.00453186 2.56741333 -0.00915527 C3.94411697 0.00153992 3.94411697 0.00153992 5.34863281 0.01245117 C6.30405975 0.01241089 7.25948669 0.01237061 8.24386597 0.0123291 C11.34663723 0.01572268 14.44905811 0.03457382 17.55175781 0.05541992 C19.66943301 0.06426747 21.7871088 0.07297523 23.90478516 0.08154297 C66.19921902 0.29817629 66.19921902 0.29817629 76.80175781 4.24291992 C77.65382813 4.55874023 78.50589844 4.87456055 79.38378906 5.19995117 C88.60193957 9.20722705 96.66432643 16.79347287 100.77832031 26.02807617 C110.06672919 55.20502467 112.81492294 103.25375987 98.80175781 131.24291992 C93.40135115 140.19870653 85.96828943 145.61490162 76.04003906 148.69995117 C70.84641195 149.95983628 65.89928504 150.37198505 60.55883789 150.38818359 C59.86052353 150.39154221 59.16220917 150.39490082 58.44273376 150.39836121 C56.15223375 150.40780151 53.86180727 150.40981024 51.57128906 150.41088867 C49.97279328 150.41410405 48.37429779 150.41746834 46.77580261 150.42097473 C43.43459388 150.42694719 40.09341096 150.42881637 36.75219727 150.42822266 C32.46812427 150.42812068 28.18421569 150.44181806 23.90018177 150.45899487 C20.60340104 150.47009845 17.30666042 150.47214244 14.0098629 150.47161293 C12.42979041 150.47279379 10.84971691 150.47722147 9.26966286 150.4849453 C7.06515445 150.49472015 4.86100812 150.4918782 2.65649414 150.48583984 C1.40218094 150.48726486 0.14786774 150.48868988 -1.14445496 150.49015808 C-4.19824219 150.24291992 -4.19824219 150.24291992 -7.19824219 148.24291992 C-7.57576561 145.72227478 -7.57576561 145.72227478 -7.57919312 142.47314453 C-7.58765259 141.24481903 -7.59611206 140.01649353 -7.60482788 138.75094604 C-7.59899445 137.38238394 -7.59284991 136.01382313 -7.58642578 134.64526367 C-7.59048905 133.20980428 -7.59582955 131.77434801 -7.60235596 130.33889771 C-7.61606465 126.43397012 -7.6107164 122.52927957 -7.6012187 118.62434769 C-7.59364041 114.54399206 -7.6006626 110.46365717 -7.6053772 106.38330078 C-7.61084011 99.53015486 -7.60362914 92.67710583 -7.58935547 85.82397461 C-7.57302788 77.89295786 -7.57831602 69.96217245 -7.59483469 62.03116131 C-7.60843434 55.23027658 -7.61037669 48.42946162 -7.60251868 41.6285677 C-7.59783376 37.56295795 -7.59723965 33.49745706 -7.60712814 29.43185425 C-7.61577352 25.61017872 -7.60982083 21.78880237 -7.59244537 17.96715927 C-7.58846746 16.56185275 -7.58963679 15.15652119 -7.59623337 13.75122452 C-7.60438673 11.83839039 -7.5923666 9.92550145 -7.57919312 8.01269531 C-7.57806204 6.94048233 -7.57693096 5.86826935 -7.57576561 4.76356506 C-7.45118288 3.93175217 -7.32660015 3.09993927 -7.19824219 2.24291992 C-4.1113283 0.18497733 -3.48405392 -0.00669883 0 0 Z M29.80175781 51.24291992 C28.62286846 53.60069862 28.65662298 55.05931558 28.62475586 57.68920898 C28.61192062 58.61066711 28.59908539 59.53212524 28.58586121 60.48150635 C28.57847427 61.48042908 28.57108734 62.47935181 28.56347656 63.50854492 C28.55540482 64.5346991 28.54733307 65.56085327 28.53901672 66.61810303 C28.52516892 68.79364326 28.51444989 70.96920528 28.5065918 73.14477539 C28.48939888 76.46567234 28.4455206 79.78556877 28.40136719 83.10620117 C28.39123862 85.2194751 28.38272303 87.33275749 28.37597656 89.44604492 C28.35846848 90.43687073 28.34096039 91.42769653 28.32292175 92.44854736 C28.34142616 98.35658119 28.85186033 101.74844669 32.80175781 106.24291992 C36.85663705 108.27035954 41.96960765 107.56003485 46.42675781 107.61791992 C47.49539063 107.65530273 48.56402344 107.69268555 49.66503906 107.73120117 C56.641384 107.80843008 61.49629165 106.97705385 66.80175781 102.24291992 C72.47868338 94.96481022 72.05067674 88.18068881 72.09692383 79.35693359 C72.10841311 77.83144838 72.12881664 76.30600241 72.15844727 74.78076172 C72.50134909 62.91592648 72.50134909 62.91592648 67.80175781 52.24291992 C61.36739437 45.97354016 54.84052656 45.85339053 46.30175781 45.80541992 C45.26921875 45.77254883 44.23667969 45.73967773 43.17285156 45.70581055 C36.98922942 45.66192678 33.62650539 45.85423955 29.80175781 51.24291992 Z " fill="#E63D30" transform="translate(336.1982421875,89.757080078125)"/>
<path d="M0 0 C0.15855469 1.11890625 0.31710938 2.2378125 0.48046875 3.390625 C3.68206085 25.57999395 7.41131165 47.51486071 13.52856445 69.10595703 C14 71 14 71 14 73 C11.58394775 73.81436587 9.16720002 74.62655397 6.75 75.4375 C6.06808594 75.66759766 5.38617188 75.89769531 4.68359375 76.13476562 C1.4681907 77.21176956 -1.70740587 78.17685147 -5 79 C1.27 78.67 7.54 78.34 14 78 C14.36351562 80.15273437 14.72703125 82.30546875 15.1015625 84.5234375 C18.16972138 102.5039971 21.63001584 120.28118961 26 138 C24.08367384 120.81006136 22.15380504 103.65768003 19.21972656 86.60571289 C19.05956055 85.66719482 18.89939453 84.72867676 18.734375 83.76171875 C18.52119629 82.554552 18.52119629 82.554552 18.30371094 81.32299805 C17.98135467 78.85738719 17.9482373 76.48378357 18 74 C28.47619903 72.21681719 39.6874664 72.23134491 49.5625 76.5625 C54.58597053 77.20185079 56.93162488 74.70610053 60.96875 71.89453125 C68.63801831 67.10123856 77.06769166 65.39441977 86 66 C87.53291568 69.06583137 87.23259241 72.26163223 87.25 75.625 C87.26244751 76.75820679 87.26244751 76.75820679 87.27514648 77.91430664 C87.24821481 82.6224524 86.70044098 86.84256574 85.56689453 91.40576172 C83.9220774 97.55783625 83.9220774 97.55783625 85.11328125 103.66015625 C86.31039926 105.25012008 87.56803249 106.7959045 88.875 108.296875 C91.56279962 111.71591422 93.17146718 115.27057622 94.875 119.25 C95.1726123 119.92417969 95.47022461 120.59835938 95.77685547 121.29296875 C97.44003425 125.19723504 98.37510323 128.81975784 99 133 C94.58446151 134.04647329 90.16767036 135.0875672 85.75 136.125 C85.08150024 136.28206421 84.41300049 136.43912842 83.72424316 136.60095215 C72.61850237 139.20507059 61.48844239 141.65588527 50.31542969 143.95751953 C45.37077549 144.99091828 40.52289059 146.09103322 35.69921875 147.59765625 C16.8440125 153.47021596 -3.73911862 152.43946689 -21.28417969 143.31738281 C-37.1657797 134.5914865 -48.98928626 120.4726547 -54.25390625 103.015625 C-57 93.28326491 -57 93.28326491 -57 89 C-56.505 88.505 -56.505 88.505 -56 88 C-57.65 88 -59.3 88 -61 88 C-60.54658647 61.16616267 -51.79481628 34.20004514 -32.890625 14.734375 C-24.26753788 6.5774007 -12.16574416 0 0 0 Z M-12 80 C-8 81 -8 81 -8 81 Z " fill="#E53E31" transform="translate(123,127)"/>
<path d="M0 0 C2.24566003 -0.0171905 4.48983863 -0.06107399 6.73510742 -0.10522461 C8.16803932 -0.11535399 9.60098372 -0.12386933 11.03393555 -0.13061523 C12.98650269 -0.15248901 12.98650269 -0.15248901 14.97851562 -0.17480469 C19.10131996 0.38303592 20.58385349 1.32356312 23.4519043 4.29516602 C25.25708008 6.99658203 25.25708008 6.99658203 26.8972168 10.04907227 C27.49920898 11.15057617 28.10120117 12.25208008 28.72143555 13.38696289 C29.33374023 14.53229492 29.94604492 15.67762695 30.5769043 16.85766602 C31.80413676 19.13225592 33.03572123 21.40450459 34.2722168 23.67407227 C34.81120605 24.68026611 35.35019531 25.68645996 35.90551758 26.72314453 C37.27887725 29.00737948 38.33693179 30.68927158 40.4519043 32.29516602 C43.96085212 32.50718161 43.96085212 32.50718161 47.4519043 31.29516602 C49.74871938 28.85891684 49.74871938 28.85891684 51.3894043 25.60766602 C51.88017456 24.74830444 51.88017456 24.74830444 52.38085938 23.87158203 C53.42950829 22.02550999 54.44277973 20.16309963 55.4519043 18.29516602 C56.49973689 16.38321174 57.55270527 14.47457287 58.61621094 12.57128906 C59.59098919 10.81966534 60.54354228 9.05572799 61.49487305 7.29125977 C63.60553082 4.05997332 65.2187945 2.39065898 68.4519043 0.29516602 C71.92529297 -0.19067383 71.92529297 -0.19067383 75.86987305 -0.16577148 C76.5683284 -0.16485504 77.26678375 -0.1639386 77.98640442 -0.16299438 C79.45471033 -0.15697821 80.92300511 -0.1412918 82.39111328 -0.11645508 C84.6429537 -0.07977617 86.89315468 -0.07543713 89.14526367 -0.07592773 C100.15652109 -0.0002172 100.15652109 -0.0002172 102.4519043 2.29516602 C103.62197244 10.14362313 100.25431612 15.18584581 96.3269043 21.79516602 C95.69816406 22.88522949 95.06942383 23.97529297 94.42163086 25.09838867 C92.44954116 28.50807188 90.45359308 31.902789 88.4519043 35.29516602 C86.03306893 39.41889628 83.61762308 43.54460944 81.2019043 47.67016602 C80.33601685 49.14501465 80.33601685 49.14501465 79.45263672 50.6496582 C75.71343773 57.0457265 72.10288184 63.49555972 68.6394043 70.04516602 C68.22464844 70.82553223 67.80989258 71.60589844 67.38256836 72.40991211 C66.81940918 73.49006592 66.81940918 73.49006592 66.24487305 74.59204102 C65.920271 75.21433594 65.59566895 75.83663086 65.26123047 76.4777832 C63.64478823 80.10758593 63.33014667 83.32691496 63.35424805 87.27954102 C63.3574707 88.21411133 63.36069336 89.14868164 63.36401367 90.11157227 C63.37239258 91.0796582 63.38077148 92.04774414 63.3894043 93.04516602 C63.39391602 94.0287207 63.39842773 95.01227539 63.40307617 96.02563477 C63.41483947 98.44887392 63.43127746 100.87198875 63.4519043 103.29516602 C67.31452924 105.10453593 70.23951677 105.50604778 74.48706055 105.38500977 C75.62594727 105.3650293 76.76483398 105.34504883 77.93823242 105.32446289 C80.32635392 105.26316212 82.71438044 105.19804504 85.10229492 105.12915039 C86.23989258 105.11045898 87.37749023 105.09176758 88.54956055 105.07250977 C90.10429077 105.02984985 90.10429077 105.02984985 91.69042969 104.98632812 C95.03663046 105.36056064 96.29637826 105.67835297 98.4519043 108.29516602 C98.83236554 111.24383625 98.96555871 113.8137549 98.9128418 116.76000977 C98.91192535 117.58972794 98.91100891 118.41944611 98.9100647 119.27430725 C98.9040245 121.02863282 98.88826583 122.78294787 98.86352539 124.53710938 C98.82708698 127.21921914 98.82250556 129.89994429 98.82299805 132.58227539 C98.81316397 134.28736543 98.80150571 135.99244612 98.7878418 137.69750977 C98.78561615 138.49865707 98.7833905 139.29980438 98.78109741 140.12522888 C98.65726465 147.41176583 98.65726465 147.41176583 96.4519043 150.29516602 C93.71466267 151.20757989 92.10118752 151.42423371 89.28370667 151.43560791 C88.0114473 151.44417313 88.0114473 151.44417313 86.71348572 151.45291138 C85.78613113 151.45402924 84.85877655 151.45514709 83.90332031 151.45629883 C82.92419678 151.46126373 81.94507324 151.46622864 80.9362793 151.47134399 C77.69278261 151.48596613 74.4493348 151.49276702 71.20581055 151.49829102 C68.95523578 151.50404155 66.70466103 151.50979929 64.4540863 151.51556396 C59.73387422 151.5260735 55.01367917 151.53191677 50.29345703 151.53540039 C44.23930233 151.54089104 38.18537186 151.56493159 32.13128757 151.59337234 C27.48251177 151.61197503 22.83379028 151.61720302 18.18498039 151.61873627 C15.95261341 151.62176768 13.7202475 151.62981256 11.48791695 151.64292145 C8.36839728 151.65993541 5.24942977 151.65811319 2.12988281 151.65161133 C1.20455246 151.66082611 0.27922211 151.67004089 -0.67414856 151.67953491 C-4.284297 151.65590901 -6.85486595 151.6357314 -10.12458801 150.02940369 C-11.86449972 147.90969583 -12.03570061 146.9130651 -12.00219727 144.19091797 C-12.00189514 143.37029373 -12.00159302 142.54966949 -12.00128174 141.70417786 C-11.9806366 140.82283676 -11.95999146 139.94149567 -11.9387207 139.03344727 C-11.93306091 138.12765427 -11.92740112 137.22186127 -11.92156982 136.28862 C-11.89917186 133.39443191 -11.84896962 130.50148012 -11.7980957 127.60766602 C-11.7780351 125.64609535 -11.75978357 123.68450528 -11.7434082 121.72290039 C-11.69929589 116.91317896 -11.63024511 112.10438211 -11.5480957 107.29516602 C-8.14399749 105.22627838 -5.55857707 105.07126377 -1.6105957 105.13500977 C-0.46848633 105.1459668 0.67362305 105.15692383 1.8503418 105.16821289 C3.03885742 105.18948242 4.22737305 105.21075195 5.4519043 105.23266602 C7.80600911 105.26713501 10.16018248 105.29726698 12.5144043 105.32250977 C13.55725586 105.34047607 14.60010742 105.35844238 15.67456055 105.37695312 C18.16654393 105.3035693 20.14311328 105.23127947 22.4519043 104.29516602 C23.73230909 100.45395162 23.71500033 96.80018076 23.7644043 92.79516602 C23.7934082 92.04235352 23.82241211 91.28954102 23.85229492 90.51391602 C23.97506234 79.33263745 18.51455943 70.0513779 13.0769043 60.60766602 C12.46766113 59.53403809 11.85841797 58.46041016 11.23071289 57.35424805 C6.90623334 49.75784885 2.49368734 42.21312539 -1.9230957 34.67016602 C-3.62317867 31.75728651 -5.32134283 28.84332193 -7.01635742 25.92749023 C-7.99099013 24.25256358 -8.96882869 22.57949524 -9.95092773 20.90893555 C-11.14871021 18.86058681 -12.32132313 16.80018962 -13.4855957 14.73266602 C-14.11336914 13.63825195 -14.74114258 12.54383789 -15.38793945 11.41625977 C-16.81017551 7.59010957 -16.56092354 5.21563359 -15.5480957 1.29516602 C-11.06739322 -0.94518523 -4.98256958 0.02659252 0 0 Z " fill="#E63D30" transform="translate(599.548095703125,89.704833984375)"/>
<path d="M0 0 C2.23518058 -0.0118481 4.46755508 -0.06096559 6.70214844 -0.11157227 C8.13182251 -0.12104263 9.5615135 -0.12827473 10.99121094 -0.13305664 C12.28768555 -0.14651123 13.58416016 -0.15996582 14.91992188 -0.17382812 C19.46280349 0.58527713 21.31474804 2.1566626 24.50683594 5.42553711 C26.21020508 7.93334961 26.21020508 7.93334961 27.54199219 10.55053711 C28.04150391 11.50444336 28.54101562 12.45834961 29.05566406 13.44116211 C29.55517578 14.42600586 30.0546875 15.41084961 30.56933594 16.42553711 C34.89590285 25.29505046 34.89590285 25.29505046 41.50683594 32.42553711 C44.54907724 33.07354394 44.54907724 33.07354394 47.50683594 31.42553711 C51.13667454 27.5460821 53.41856194 22.60131191 55.93261719 17.96459961 C56.36670898 17.16852295 56.80080078 16.37244629 57.24804688 15.55224609 C58.11650303 13.94900413 58.97303221 12.33923323 59.81640625 10.72265625 C60.22084961 9.96847412 60.62529297 9.21429199 61.04199219 8.43725586 C61.39656494 7.76138428 61.7511377 7.0855127 62.11645508 6.38916016 C63.9943122 3.73707853 65.75051705 2.16991236 68.50683594 0.42553711 C71.98022461 -0.06030273 71.98022461 -0.06030273 75.92480469 -0.03540039 C76.62326004 -0.03448395 77.32171539 -0.0335675 78.04133606 -0.03262329 C79.50964197 -0.02660712 80.97793676 -0.0109207 82.44604492 0.01391602 C84.69788534 0.05059492 86.94808632 0.05493396 89.20019531 0.05444336 C100.21145273 0.1301539 100.21145273 0.1301539 102.50683594 2.42553711 C103.93209484 10.71351527 99.53956548 16.49408005 95.38183594 23.36303711 C94.65285935 24.59611287 93.92583423 25.83034422 93.20068359 27.06567383 C92.08475636 28.96580355 90.96747535 30.864997 89.84359741 32.76043701 C86.07074358 39.12513411 82.46969961 45.57972637 78.88183594 52.05053711 C77.787136 54.02281036 76.69085965 55.9942097 75.59277344 57.96459961 C74.82658691 59.33986816 74.82658691 59.33986816 74.04492188 60.74291992 C72.52369132 63.39613918 70.91802879 65.98156074 69.29589844 68.57397461 C64.21893955 77.06239506 63.06565429 84.15949954 63.31933594 93.98803711 C63.33287109 94.99672852 63.34640625 96.00541992 63.36035156 97.04467773 C63.39534017 99.50554331 63.44442435 101.96524046 63.50683594 104.42553711 C64.46050049 104.44011963 65.41416504 104.45470215 66.39672852 104.46972656 C69.93617178 104.52771503 73.47497917 104.60494669 77.01391602 104.68798828 C78.54538653 104.72123528 80.0769795 104.74926804 81.60864258 104.77197266 C83.8109148 104.80552429 86.01206506 104.85783621 88.21386719 104.91381836 C88.89834427 104.92020828 89.58282135 104.92659821 90.28804016 104.93318176 C92.96391124 105.01588557 95.07304455 105.18672722 97.43994141 106.48974609 C99.10454433 109.51002907 98.91391238 112.55140251 98.87011719 115.90991211 C98.87086494 117.01064056 98.87086494 117.01064056 98.87162781 118.13360596 C98.86928817 119.68699854 98.85956604 121.24039497 98.84301758 122.79370117 C98.819559 125.15310242 98.82244053 127.51136238 98.82910156 129.87084961 C98.82351966 131.38387709 98.81640656 132.89689986 98.80761719 134.40991211 C98.80852859 135.10808044 98.80944 135.80624878 98.81037903 136.52557373 C98.65756351 147.27480954 98.65756351 147.27480954 95.50683594 150.42553711 C94.1580954 150.52515112 92.80420836 150.55628106 91.45179749 150.55924988 C90.57824112 150.56351486 89.70468475 150.56777985 88.80465698 150.57217407 C87.83891754 150.57172089 86.8731781 150.5712677 85.87817383 150.57080078 C84.86686905 150.57415939 83.85556427 150.57751801 82.81361389 150.58097839 C79.45222768 150.5905202 76.09089111 150.5924331 72.72949219 150.59350586 C70.40400674 150.59671614 68.07852151 150.60008003 65.7530365 150.60359192 C60.87124157 150.60959124 55.98946437 150.61143099 51.10766602 150.61083984 C44.83807572 150.61073816 38.56859853 150.62439305 32.29903507 150.64161205 C27.49421156 150.65270538 22.68941562 150.65475988 17.88458061 150.65423012 C15.5724187 150.65541417 13.26025615 150.65985954 10.94810677 150.66756248 C7.72028706 150.67730892 4.49271589 150.67450558 1.26489258 150.66845703 C-0.18068024 150.67688629 -0.18068024 150.67688629 -1.65545654 150.68548584 C-2.97002083 150.67919411 -2.97002083 150.67919411 -4.31114197 150.67277527 C-5.456826 150.67359242 -5.456826 150.67359242 -6.62565517 150.67442608 C-8.49316406 150.42553711 -8.49316406 150.42553711 -10.49316406 148.42553711 C-11.90981781 139.53816833 -11.70342723 130.28106094 -11.74316406 121.30053711 C-11.76378906 120.09655273 -11.78441406 118.89256836 -11.80566406 117.65209961 C-11.81082031 116.50225586 -11.81597656 115.35241211 -11.82128906 114.16772461 C-11.83063477 113.13502441 -11.83998047 112.10232422 -11.84960938 111.03833008 C-11.49316406 108.42553711 -11.49316406 108.42553711 -10.4284668 106.59863281 C-7.49335355 104.81949579 -4.53707681 104.94496975 -1.20019531 104.91381836 C-0.49416672 104.89586716 0.21186188 104.87791595 0.93928528 104.85942078 C3.19090835 104.80530533 5.44231936 104.77141989 7.69433594 104.73803711 C9.22236025 104.70486492 10.75035657 104.67037534 12.27832031 104.63452148 C16.02100583 104.54957886 19.76362834 104.48277463 23.50683594 104.42553711 C23.65483244 100.84265567 23.74178556 97.26058029 23.81933594 93.67553711 C23.88217773 92.18086914 23.88217773 92.18086914 23.94628906 90.65600586 C24.14661345 78.23589408 18.39387429 68.72622573 12.13183594 58.36303711 C6.75684979 49.31426562 1.53538563 40.19829575 -3.55566406 30.98803711 C-4.17425293 29.86969482 -4.7928418 28.75135254 -5.43017578 27.59912109 C-6.58988209 25.49994803 -7.74716852 23.39943561 -8.90161133 21.29736328 C-9.92534091 19.45012735 -10.96378193 17.61092806 -12.02026367 15.78222656 C-12.4753833 14.99162842 -12.93050293 14.20103027 -13.39941406 13.38647461 C-13.79580078 12.7102002 -14.1921875 12.03392578 -14.60058594 11.3371582 C-16.02326556 8.29022675 -15.96075134 5.69864808 -15.49316406 2.42553711 C-11.73727543 -1.33035152 -5.12610409 0.01287685 0 0 Z " fill="#E63D30" transform="translate(854.4931640625,89.574462890625)"/>
<path d="M0 0 C12.62364099 10.39935096 27.28446174 27.44135218 29.02246094 44.29467773 C29.56257813 44.37073242 30.10269531 44.44678711 30.65917969 44.52514648 C33.94750092 45.5958891 36.12146937 47.46710325 38.83496094 49.60717773 C39.68429199 50.27269653 39.68429199 50.27269653 40.55078125 50.95166016 C45.45156352 54.80389985 50.30161744 58.72074987 55.16137695 62.62451172 C61.9480385 68.06228229 68.83825019 73.35853785 75.77929688 78.59741211 C77.29636299 79.74528364 78.80995207 80.89776274 80.3203125 82.05444336 C89.93259667 89.41139862 99.59176265 96.11871207 110.23291016 101.92016602 C110.9923291 102.33766113 111.75174805 102.75515625 112.53417969 103.18530273 C113.54677856 103.72719238 113.54677856 103.72719238 114.57983398 104.2800293 C115.29393433 104.78228027 115.29393433 104.78228027 116.02246094 105.29467773 C116.02246094 105.95467773 116.02246094 106.61467773 116.02246094 107.29467773 C104.49165576 110.58524945 92.92780153 113.61533392 81.25317383 116.35229492 C78.82423579 116.92219416 76.39692851 117.49868417 73.96972656 118.07592773 C47.69163894 124.29467773 47.69163894 124.29467773 41.02246094 124.29467773 C40.00152724 116.29525213 39.00884013 108.29523887 38.12792969 100.27905273 C36.12120349 82.1218734 33.51604673 64.23273119 30.02246094 46.29467773 C29.32628662 46.43542725 28.6301123 46.57617676 27.9128418 46.72119141 C9.1438414 50.3527137 -7.43949277 48.3106776 -23.97753906 38.29467773 C-27.60719401 35.54736985 -30.80366076 32.55178712 -33.97753906 29.29467773 C-34.67363281 28.63081055 -35.36972656 27.96694336 -36.08691406 27.28295898 C-45.44908909 17.7574902 -53.69783238 1.34080936 -54.07128906 -12.07250977 C-54.04035156 -12.94133789 -54.00941406 -13.81016602 -53.97753906 -14.70532227 C-34.3927007 -18.02006881 -15.53033202 -12.17396828 0 0 Z " fill="#E63D30" transform="translate(168.9775390625,67.705322265625)"/>
<path d="M0 0 C0.15855469 1.11890625 0.31710938 2.2378125 0.48046875 3.390625 C3.68206085 25.57999395 7.41131165 47.51486071 13.52856445 69.10595703 C14 71 14 71 14 73 C-10.10677538 81.58347305 -35.36373146 87.31177803 -61 88 C-60.54658647 61.16616267 -51.79481628 34.20004514 -32.890625 14.734375 C-24.26753788 6.5774007 -12.16574416 0 0 0 Z " fill="#B6DAF0" transform="translate(123,127)"/>
<path d="M0 0 C0.1451001 0.87285645 0.2902002 1.74571289 0.43969727 2.64501953 C3.55874837 21.2475409 7.11548861 39.62147572 11.58203125 57.94921875 C12.63329891 62.2965314 13.49905649 66.55656605 14 71 C-7.68710232 74.8616144 -25.75894081 72.21131985 -44.13671875 59.8984375 C-59.13710748 48.39186316 -67.18091577 32.12941748 -71 14 C-71 13.01 -71 12.02 -71 11 C-60.4604004 8.31647199 -49.81858342 6.55069132 -39.0871582 4.83789062 C-36.17519272 4.37303531 -33.26429559 3.90190405 -30.35351562 3.4296875 C-28.47922504 3.12724218 -26.604878 2.82514649 -24.73046875 2.5234375 C-23.87196823 2.38489349 -23.01346771 2.24634949 -22.12895203 2.10360718 C-14.7311766 0.92489754 -7.51014562 -0.15646137 0 0 Z " fill="#F8A11B" transform="translate(137,205)"/>
<path d="M0 0 C11.42001775 4.29546712 19.6377192 12.11150095 24.82421875 23.1328125 C28.95938398 33.79868697 27.25025626 44.8141215 22.82421875 55.1328125 C18.09032921 64.01192138 11.70746159 69.56867459 2.26171875 73.0078125 C-6.89938065 75.39455758 -18.20714906 75.73340954 -26.8671875 71.5859375 C-34.75457929 66.6212848 -40.37597673 60.6284453 -44.17578125 52.1328125 C-44.60890625 51.2253125 -45.04203125 50.3178125 -45.48828125 49.3828125 C-46.25768203 46.86477358 -46.32540764 44.7512744 -46.17578125 42.1328125 C-40.48179231 40.03710824 -35.22379196 38.68263166 -29.17578125 38.1328125 C-29.25828125 36.9571875 -29.34078125 35.7815625 -29.42578125 34.5703125 C-29.40647841 29.10760859 -27.4388444 25.47268981 -23.6796875 21.5859375 C-21.0546734 19.25550104 -19.76221355 18.1328125 -16.17578125 18.1328125 C-16.50578125 17.1428125 -16.83578125 16.1528125 -17.17578125 15.1328125 C-17.40375687 12.39991957 -17.59246312 9.68239046 -17.73828125 6.9453125 C-17.78146484 6.19572266 -17.82464844 5.44613281 -17.86914062 4.67382812 C-17.9750081 2.82702875 -18.07587885 0.97994416 -18.17578125 -0.8671875 C-13.02094646 -3.4446049 -5.32397245 -1.45377845 0 0 Z M-7.17578125 56.1328125 C-6.17578125 58.1328125 -6.17578125 58.1328125 -6.17578125 58.1328125 Z " fill="#E63D2F" transform="translate(177.17578125,123.8671875)"/>
<path d="M0 0 C0.72960938 -0.01224609 1.45921875 -0.02449219 2.2109375 -0.03710938 C7.05802446 -0.05009264 11.05305351 0.5381269 15.625 2.1875 C19.08497048 5.64747048 18.59588474 10.70328779 18.65123558 15.42600822 C18.60483063 17.73600207 18.51273395 20.03956654 18.40307617 22.34741211 C18.3674205 23.21358154 18.33176483 24.07975098 18.29502869 24.97216797 C18.17646303 27.8034172 18.04769891 30.63408573 17.91796875 33.46484375 C17.83131404 35.44257667 17.7450004 37.42032456 17.65901184 39.39808655 C17.47781905 43.52611484 17.2913436 47.65386336 17.10131836 51.78149414 C16.85800742 57.07956184 16.62979514 62.37815959 16.40568066 67.67706966 C16.2313386 71.75302371 16.04818814 75.82854572 15.86242104 79.90399361 C15.7745637 81.85876049 15.68968531 83.81366357 15.60780907 85.76869011 C15.49267064 88.49074962 15.36549483 91.21198387 15.23510742 93.93334961 C15.20332397 94.74423538 15.17154053 95.55512115 15.13879395 96.39057922 C14.85342575 101.95907425 14.85342575 101.95907425 12.625 104.1875 C10.19482422 104.41455078 10.19482422 104.41455078 7.1796875 104.3828125 C6.10332031 104.37636719 5.02695313 104.36992187 3.91796875 104.36328125 C2.79003906 104.34652344 1.66210938 104.32976562 0.5 104.3125 C-1.20349609 104.29896484 -1.20349609 104.29896484 -2.94140625 104.28515625 C-5.75281299 104.26153098 -8.56380298 104.22859013 -11.375 104.1875 C-13.65874109 100.51897261 -13.75203745 97.1985341 -13.96923828 92.93481445 C-14.02819778 91.84836136 -14.02819778 91.84836136 -14.08834839 90.73995972 C-14.21607066 88.34393227 -14.33090163 85.94747838 -14.4453125 83.55078125 C-14.53147983 81.87083114 -14.61831322 80.19091506 -14.70578003 78.5110321 C-14.88767195 74.98148508 -15.06356367 71.45170753 -15.23486328 67.92163086 C-15.45223607 63.44564513 -15.6810028 58.97034059 -15.91401863 54.49514484 C-16.09431292 51.01783225 -16.26995825 47.5402968 -16.44414902 44.06267357 C-16.52685683 42.41597591 -16.61055415 40.76932759 -16.69534683 39.12273598 C-16.92821711 34.56123921 -17.13514794 30.00004576 -17.29569244 25.4353981 C-17.34995428 23.89739746 -17.40925099 22.35956845 -17.47286224 20.82192612 C-17.56263002 18.49875965 -17.62295525 16.17657346 -17.67529297 13.85229492 C-17.70578295 13.15406522 -17.73627293 12.45583551 -17.76768684 11.73644733 C-17.81496838 8.15354946 -17.45014956 6.30460585 -15.49539185 3.25849915 C-11.25456513 -0.88354116 -5.62530519 0.00491722 0 0 Z " fill="#E63D30" transform="translate(1124.375,89.8125)"/>
<path d="M0 0 C8.50088562 4.10697982 15.85613345 10.85011056 23.1875 16.75 C30.61611623 22.72724497 38.14653118 28.55872608 45.75683594 34.30273438 C47.27390206 35.45060591 48.78749114 36.60308501 50.29785156 37.75976562 C59.91013573 45.11672089 69.56930171 51.82403434 80.21044922 57.62548828 C80.96986816 58.0429834 81.72928711 58.46047852 82.51171875 58.890625 C83.18678467 59.25188477 83.86185059 59.61314453 84.55737305 59.98535156 C85.03343994 60.32018555 85.50950684 60.65501953 86 61 C86 61.66 86 62.32 86 63 C74.46919482 66.29057171 62.90534059 69.32065618 51.23071289 72.05761719 C48.80177485 72.62751643 46.37446758 73.20400643 43.94726562 73.78125 C17.66917801 80 17.66917801 80 11 80 C9.98353651 72.0236497 8.99224377 64.04661053 8.10546875 56.0546875 C6.00944938 37.24499995 3.32818695 18.63373807 0 0 Z " fill="#B6DBF1" transform="translate(199,112)"/>
<path d="M0 0 C4.29816086 3.05000498 7.47270301 7.12376235 8.7890625 12.26953125 C9.60332926 18.78366533 8.62553756 23.88438736 4.7890625 29.26953125 C1.28173486 32.96000915 -1.96670035 35.08675626 -7.13671875 35.5078125 C-18.48774282 35.7565662 -18.48774282 35.7565662 -23.2109375 31.26953125 C-28.76639304 25.3031242 -29.56357678 21.62780428 -29.4921875 13.54296875 C-29.00324456 7.85221623 -26.92657029 4.89718287 -22.7734375 0.95703125 C-15.38367798 -3.90939575 -7.77489968 -4.38306098 0 0 Z " fill="#E63D30" transform="translate(1135.2109375,205.73046875)"/>
<path d="M0 0 C4.62463924 3.363374 8.9187253 7.50617591 10.75 13 C11.53417952 19.51768883 10.56291499 24.61013869 6.75 30 C3.38576597 33.72333766 -0.30404931 36.04885564 -5.25 37 C-11.95212627 37.29335906 -16.48298114 35.95058243 -21.625 31.6171875 C-25.96517 27.2978837 -27.36063083 22.66920231 -27.5625 16.6875 C-27.48015394 11.11541656 -25.65426161 7.42309395 -21.75390625 3.4921875 C-15.48362391 -1.98062751 -7.81349054 -2.40415093 0 0 Z " fill="#F89F1B" transform="translate(175.25,142)"/>
<path d="M0 0 C0.66 0 1.32 0 2 0 C5.10270126 14.38371835 5.10270126 14.38371835 2.7734375 19.91015625 C1.43589625 21.64675816 0.03268842 23.33374031 -1.4140625 24.98046875 C-4.55953232 28.65335119 -6.98032631 32.57179288 -9.5 36.6875 C-14.34536353 44.46568755 -19.35084152 52.12758172 -24.4375 59.75 C-25.44876953 61.26726685 -25.44876953 61.26726685 -26.48046875 62.81518555 C-27.74879276 64.71085433 -29.02652778 66.60027256 -30.31518555 68.48217773 C-31.35100036 70.03012125 -32.34727125 71.60654224 -33.27270508 73.22290039 C-34.79372241 75.76633091 -36.07412489 77.70612585 -38.97680664 78.62744141 C-41.28528196 78.9119891 -43.48747914 78.97063106 -45.8125 78.9375 C-46.60076172 78.95361328 -47.38902344 78.96972656 -48.20117188 78.98632812 C-50.13380054 79.02146683 -52.06710948 79.01491757 -54 79 C-52.40231169 75.28553859 -50.06206885 72.59508241 -47.421875 69.5546875 C-42.1855252 63.4023025 -37.67182977 56.8878858 -33.25 50.125 C-32.47115643 48.94541997 -31.69185114 47.76614469 -30.91210938 46.5871582 C-25.43542269 38.28507224 -20.10341217 29.89358975 -14.79296875 21.484375 C-11.38940522 16.1175266 -7.91333914 10.81855205 -4.25 5.625 C-3.63995117 4.74944458 -3.63995117 4.74944458 -3.01757812 3.85620117 C-2.06466081 2.53107633 -1.03939332 1.25843902 0 0 Z " fill="#E63D30" transform="translate(110,58)"/>
<path d="M0 0 C-1.67568647 3.62918989 -3.84492578 6.87847352 -6.078125 10.1796875 C-6.91076079 11.42030537 -7.74336021 12.66094765 -8.57592773 13.90161133 C-9.23031326 14.87392197 -9.23031326 14.87392197 -9.8979187 15.86587524 C-16.5571075 25.76109462 -23.12311641 35.69229928 -29.4375 45.8125 C-36.78861537 57.53935629 -45.097938 68.41552996 -54 79 C-57.46698916 75.53301084 -57.28005665 70.64478568 -57.39453125 65.921875 C-56.83501916 60.35999248 -54.61560836 58.11255019 -50.84765625 54.1640625 C-47.27575616 50.38322815 -44.59681326 46.06260842 -41.8125 41.6875 C-41.27028809 40.84268066 -40.72807617 39.99786133 -40.16943359 39.12744141 C-38.43894594 36.42289476 -36.7183661 33.71226261 -35 31 C-33.11470975 28.03001546 -31.22905026 25.06026743 -29.3425293 22.09106445 C-28.14461889 20.2033278 -26.94932242 18.31392897 -25.75708008 16.42260742 C-24.67625878 14.71388495 -23.58756143 13.01010999 -22.48974609 11.31225586 C-21.5430962 9.84294725 -20.61637543 8.36045534 -19.71728516 6.86157227 C-17.67337195 3.63644721 -16.42808299 2.1487407 -12.7734375 0.87890625 C-11.65195313 0.77449219 -10.53046875 0.67007813 -9.375 0.5625 C-7.68503906 0.37880859 -7.68503906 0.37880859 -5.9609375 0.19140625 C-3.97707503 0.06316184 -1.98800325 0 0 0 Z " fill="#E63D30" transform="translate(103,52)"/>
<path d="M0 0 C1 1 1 1 1.0625 3.5625 C1.041875 4.366875 1.02125 5.17125 1 6 C-1.31 6.99 -3.62 7.98 -6 9 C-5.37351562 8.91621094 -4.74703125 8.83242188 -4.1015625 8.74609375 C-3.28429687 8.64425781 -2.46703125 8.54242188 -1.625 8.4375 C-0.81289063 8.33308594 -0.00078125 8.22867187 0.8359375 8.12109375 C3 8 3 8 5 9 C5.74529117 14.96232935 3.47725986 18.42019434 0 23 C-1.59320559 24.79180463 -3.22815975 26.37581311 -5 28 C-5.495 28.495 -5.495 28.495 -6 29 C-8.75 29.375 -8.75 29.375 -12 29 C-15.10164769 26.44975635 -16.72566416 24.82300753 -18 21 C-18.06802967 19.27204648 -18.08495645 17.54164635 -18.0625 15.8125 C-18.05347656 14.91144531 -18.04445313 14.01039063 -18.03515625 13.08203125 C-18.02355469 12.39496094 -18.01195312 11.70789063 -18 11 C-18.77923828 11.52400391 -18.77923828 11.52400391 -19.57421875 12.05859375 C-26.50087873 16.57820738 -26.50087873 16.57820738 -31 17 C-31 17.66 -31 18.32 -31 19 C-29.68 19.66 -28.36 20.32 -27 21 C-27.33 22.32 -27.66 23.64 -28 25 C-33.625 25.25 -33.625 25.25 -37 23 C-37.66 24.32 -38.32 25.64 -39 27 C-41.375 26.6875 -41.375 26.6875 -44 26 C-47.23701822 21.14447266 -47.12819904 17.0975099 -46.6875 11.375 C-46.60886719 10.24835938 -46.53023437 9.12171875 -46.44921875 7.9609375 C-46 5 -46 5 -44 2 C-39.68119 0.62473648 -35.06104373 0.74612568 -30.5625 0.6875 C-29.82451172 0.65849609 -29.08652344 0.62949219 -28.32617188 0.59960938 C-23.02216603 0.53831864 -20.31862473 1.69752227 -16 5 C-13.63721264 5.22988506 -13.63721264 5.22988506 -11.375 2.5 C-7.64442701 -0.76079713 -4.81358121 -0.48951673 0 0 Z M-39 8 C-39.65772428 11.02934491 -39.65772428 11.02934491 -40 14 C-36.2397015 13.41892368 -33.46964968 12.34800504 -30.1875 10.4375 C-29.39730469 9.98246094 -28.60710938 9.52742188 -27.79296875 9.05859375 C-27.20128906 8.70925781 -26.60960937 8.35992187 -26 8 C-26 7.67 -26 7.34 -26 7 C-27.79158489 6.97303635 -29.58328473 6.95362083 -31.375 6.9375 C-32.87160156 6.92009766 -32.87160156 6.92009766 -34.3984375 6.90234375 C-36.98432453 6.81993398 -36.98432453 6.81993398 -39 8 Z M-10 13 C-10.80967438 15.91482778 -11.21845993 17.46113217 -10.0625 20.3125 C-9.711875 20.869375 -9.36125 21.42625 -9 22 C-7.62437146 20.71034824 -6.29233607 19.37310707 -5 18 C-5 17.34 -5 16.68 -5 16 C-5.639375 15.87625 -6.27875 15.7525 -6.9375 15.625 C-7.618125 15.41875 -8.29875 15.2125 -9 15 C-9.33 14.34 -9.66 13.68 -10 13 Z " fill="#01243C" transform="translate(1002,273)"/>
<path d="M0 0 C-0.845625 0.94875 -1.69125 1.8975 -2.5625 2.875 C-18.90756255 22.10448535 -23.44053144 42.4732363 -25 67 C-25.33 67 -25.66 67 -26 67 C-26.06850662 66.43862335 -26.13701324 65.8772467 -26.20759583 65.29885864 C-26.93325212 59.35897356 -27.6644779 53.41979151 -28.39868164 47.48095703 C-28.67056586 45.27604819 -28.94111483 43.07097422 -29.21020508 40.86572266 C-30.61146267 29.38950127 -32.02872675 17.93957614 -34.09541321 6.56082153 C-34.73235261 2.99375595 -35.14620148 -0.37437891 -35 -4 C-23.13931085 -6.01884071 -10.91117289 -5.45558645 0 0 Z " fill="#B6DAEF" transform="translate(176,205)"/>
<path d="M0 0 C0.75289848 1.70220526 1.49762905 3.41001556 2.15234375 5.15234375 C3.99643797 9.17195927 7.41245419 11.60830279 11 14 C13.50896686 14.45601261 13.50896686 14.45601261 16.1875 14.625 C17.08855469 14.69976562 17.98960937 14.77453125 18.91796875 14.8515625 C19.60503906 14.90054688 20.29210937 14.94953125 21 15 C21.67250524 17.58193977 22.33817901 20.16532071 23 22.75 C23.19078125 23.47960937 23.3815625 24.20921875 23.578125 24.9609375 C24.46515964 28.44571646 25 31.38123722 25 35 C12.53157362 35.55690242 3.65038645 35.18073943 -6.3125 26.8125 C-10.66607393 22.66396095 -13.5545536 18.46754829 -16 13 C-16.6496875 11.63875 -16.6496875 11.63875 -17.3125 10.25 C-18.08190078 7.73196108 -18.14962639 5.6184619 -18 3 C-3.67756315 -1.96136701 -3.67756315 -1.96136701 0 0 Z " fill="#81322F" transform="translate(149,163)"/>
<path d="M0 0 C5.63072194 1.87690731 8.33327455 8.8884574 11 14 C17 26.79181586 17 26.79181586 17 32 C-12.09838517 38.9159689 -12.09838517 38.9159689 -24.5625 41.4375 C-25.35688477 41.60088867 -26.15126953 41.76427734 -26.96972656 41.93261719 C-30.69316909 42.66748562 -34.20104525 43.18806707 -38 43 C-35.36567165 40.97995449 -32.68125664 39.14573758 -29.875 37.375 C-15.51802954 27.7801117 -7.1687801 15.34566989 0 0 Z " fill="#B6DAEF" transform="translate(205,228)"/>
<path d="M0 0 C0.33 1.65 0.66 3.3 1 5 C-1.31 6.32 -3.62 7.64 -6 9 C-5.38511719 8.90460938 -4.77023437 8.80921875 -4.13671875 8.7109375 C-3.32847656 8.60007812 -2.52023437 8.48921875 -1.6875 8.375 C-0.88699219 8.25898438 -0.08648437 8.14296875 0.73828125 8.0234375 C3 8 3 8 6 10 C6.515625 9.236875 7.03125 8.47375 7.5625 7.6875 C11.64251166 3.1890256 16.99883305 1.4000778 23 1 C25.90081387 1.80578163 26.73063371 2.56388315 28.3125 5.125 C29.58752808 10.45693562 28.77663988 14.50424913 26.3125 19.25 C23.24852522 22.89364569 20.59893537 25.55705101 15.75390625 26.3828125 C11.93551508 26.57091059 9.71527119 26.48280805 6.5 24.3125 C4.8824406 21.81876259 4.32642811 19.93785297 4 17 C3.62488281 17.53109375 3.24976563 18.0621875 2.86328125 18.609375 C-3.0650821 26.79260703 -3.0650821 26.79260703 -7 29 C-10.58295911 28.93822484 -12.95217958 28.76840164 -15.875 26.625 C-18.71707447 22.51978133 -18.65061242 17.77359451 -18 13 C-16.36010124 8.28444048 -14.38510213 4.27279655 -10.6875 0.875 C-6.97803956 -0.33273131 -3.89331373 -0.19796511 0 0 Z M18 8 C14.12582134 11.87417866 12.40125642 14.38241014 12 20 C14.37897003 20.04510361 14.37897003 20.04510361 17 19 C19.959199 15.40736224 21 12.6756942 21 8 C20.01 8 19.02 8 18 8 Z M-10 14 C-10.67801034 16.90073181 -10.67801034 16.90073181 -11 20 C-10.34 20.66 -9.68 21.32 -9 22 C-7.62437146 20.71034824 -6.29233607 19.37310707 -5 18 C-5 17.34 -5 16.68 -5 16 C-7.475 15.01 -7.475 15.01 -10 14 Z " fill="#F9A11B" transform="translate(432,273)"/>
<path d="M0 0 C1.10698242 -0.04350586 1.10698242 -0.04350586 2.23632812 -0.08789062 C7.62434285 -0.15015213 10.35797753 0.93422283 14.5625 4.3125 C14.28049583 7.69655002 13.84944239 9.03375596 11.375 11.4375 C4.0625 16.3125 4.0625 16.3125 -0.4375 16.3125 C-0.4375 16.9725 -0.4375 17.6325 -0.4375 18.3125 C0.8825 18.9725 2.2025 19.6325 3.5625 20.3125 C3.2325 21.6325 2.9025 22.9525 2.5625 24.3125 C-4.1875 23.4375 -4.1875 23.4375 -6.4375 22.3125 C-7.0975 23.6325 -7.7575 24.9525 -8.4375 26.3125 C-10.8125 26 -10.8125 26 -13.4375 25.3125 C-15.5894437 22.08458445 -15.63836443 21.02849191 -15.4375 17.3125 C-16.13875 17.6425 -16.84 17.9725 -17.5625 18.3125 C-20.69753116 19.40294562 -23.14313182 19.46572643 -26.4375 19.3125 C-26.4375 21.2925 -26.4375 23.2725 -26.4375 25.3125 C-28.8125 25.9375 -28.8125 25.9375 -31.4375 26.3125 C-34.74932675 23.00067325 -34.37607389 18.83960461 -34.4375 14.3125 C-33.91314953 6.76767939 -33.91314953 6.76767939 -32.4375 3.3125 C-29.07470195 1.38426347 -26.0827276 1.03930649 -22.25 1.0625 C-21.39019531 1.05734375 -20.53039062 1.0521875 -19.64453125 1.046875 C-17.4375 1.3125 -17.4375 1.3125 -15.4375 3.3125 C-14.7775 2.6525 -14.1175 1.9925 -13.4375 1.3125 C-9.04319967 0.04412653 -4.54067258 0.05917471 0 0 Z M-8.4375 7.3125 C-9.09522428 10.34184491 -9.09522428 10.34184491 -9.4375 13.3125 C-5.6772015 12.73142368 -2.90714968 11.66050504 0.375 9.75 C1.16519531 9.29496094 1.95539062 8.83992188 2.76953125 8.37109375 C3.36121094 8.02175781 3.95289063 7.67242187 4.5625 7.3125 C4.5625 6.9825 4.5625 6.6525 4.5625 6.3125 C2.77091511 6.28553635 0.97921527 6.26612083 -0.8125 6.25 C-2.30910156 6.23259766 -2.30910156 6.23259766 -3.8359375 6.21484375 C-6.42182453 6.13243398 -6.42182453 6.13243398 -8.4375 7.3125 Z M-25.4375 8.3125 C-25.7675 9.9625 -26.0975 11.6125 -26.4375 13.3125 C-25.53 13.27125 -24.6225 13.23 -23.6875 13.1875 C-20.5592954 13.30781556 -19.05135994 13.7039708 -16.4375 15.3125 C-16.1075 12.6725 -15.7775 10.0325 -15.4375 7.3125 C-18.9594721 7.23245518 -22.05731469 7.27244298 -25.4375 8.3125 Z " fill="#01243C" transform="translate(634.4375,273.6875)"/>
<path d="M0 0 C3.623258 1.42757917 5.85644231 3.1119549 7.82421875 6.46875 C8.40171875 6.0975 8.97921875 5.72625 9.57421875 5.34375 C10.31671875 5.055 11.05921875 4.76625 11.82421875 4.46875 C13.14421875 5.12875 14.46421875 5.78875 15.82421875 6.46875 C15.49421875 10.42875 15.16421875 14.38875 14.82421875 18.46875 C18.53036823 14.37920575 20.03020899 10.59449218 21.82421875 5.46875 C22.82421875 4.46875 22.82421875 4.46875 25.32421875 4.34375 C27.82421875 4.46875 27.82421875 4.46875 28.82421875 5.46875 C29.54227072 12.29024372 28.08027741 16.13022555 23.82421875 21.46875 C20.59688988 24.8036565 17.41172129 25.307785 12.82421875 25.46875 C9.87666143 24.12312601 8.28144603 23.38320456 6.82421875 20.46875 C6.59954044 18.93206135 6.4162507 17.38906946 6.26171875 15.84375 C6.17792969 15.02648437 6.09414063 14.20921875 6.0078125 13.3671875 C5.94722656 12.74070312 5.88664063 12.11421875 5.82421875 11.46875 C3.51421875 12.78875 1.20421875 14.10875 -1.17578125 15.46875 C-0.90765625 16.54125 -0.63953125 17.61375 -0.36328125 18.71875 C-0.17578125 22.46875 -0.17578125 22.46875 -2.05078125 24.84375 C-5.89914371 26.84489848 -9.80577338 28.12343283 -14.17578125 27.46875 C-16.45359088 25.32284026 -17.11022904 23.94312243 -17.5390625 20.83984375 C-17.4206212 13.99758069 -17.17995148 7.06271749 -15.17578125 0.46875 C-10.81757563 -1.71035281 -4.64503398 -1.13415551 0 0 Z M-8.17578125 5.46875 C-8.50578125 7.44875 -8.83578125 9.42875 -9.17578125 11.46875 C-6.86578125 10.47875 -4.55578125 9.48875 -2.17578125 8.46875 C-2.17578125 7.47875 -2.17578125 6.48875 -2.17578125 5.46875 C-4.15578125 5.46875 -6.13578125 5.46875 -8.17578125 5.46875 Z " fill="#01243C" transform="translate(925.17578125,271.53125)"/>
<path d="M0 0 C4.875 0.875 4.875 0.875 6 2 C6.36760731 4.32817964 6.70241581 6.6618385 7 9 C7.51949219 8.6390625 8.03898438 8.278125 8.57421875 7.90625 C15.09485681 3.56719325 15.09485681 3.56719325 20 4 C20.66 3.34 21.32 2.68 22 2 C28.06857475 0.13358582 34.11559311 -0.94220344 40 2 C39.8125 3.90234375 39.8125 3.90234375 39 6 C36.75 6.94140625 36.75 6.94140625 34 7.5625 C31.30400956 8.12123296 31.30400956 8.12123296 29 9 C28.67 9.99 28.34 10.98 28 12 C28.62648438 11.98839844 29.25296875 11.97679687 29.8984375 11.96484375 C30.71570313 11.95582031 31.53296875 11.94679688 32.375 11.9375 C33.18710937 11.92589844 33.99921875 11.91429687 34.8359375 11.90234375 C37 12 37 12 39 13 C38.67 14.65 38.34 16.3 38 18 C34.7 18.33 31.4 18.66 28 19 C30.97 19.99 33.94 20.98 37 22 C36 26 36 26 33.9375 27.25 C30.15794174 28.2149936 26.89689873 28.13209826 23 28 C19.18363227 22.27544841 19.70717211 16.70250505 20 10 C17.36 11.65 14.72 13.3 12 15 C12.825 15.5775 13.65 16.155 14.5 16.75 C15.7375 17.86375 15.7375 17.86375 17 19 C17 20.32 17 21.64 17 23 C10.375 23.125 10.375 23.125 7 22 C6.67 23.32 6.34 24.64 6 26 C3.625 26.125 3.625 26.125 1 26 C-2.98103294 22.01896706 -2.05123793 14.6016461 -2.1875 9.1875 C-2.15689229 5.73495071 -1.60637351 3.11234867 0 0 Z " fill="#01243C" transform="translate(797,272)"/>
<path d="M0 0 C0 0.66 0 1.32 0 2 C0.5662207 1.83701416 1.13244141 1.67402832 1.71582031 1.50610352 C4.07601117 0.98315828 6.13282157 0.88603258 8.546875 0.90234375 C9.39121094 0.90556641 10.23554687 0.90878906 11.10546875 0.91210938 C11.97816406 0.92048828 12.85085938 0.92886719 13.75 0.9375 C15.08224609 0.94426758 15.08224609 0.94426758 16.44140625 0.95117188 C18.62767329 0.962926 20.81380179 0.97935751 23 1 C23.495 3.475 23.495 3.475 24 6 C20.7 6.33 17.4 6.66 14 7 C14.495 14.92 14.495 14.92 15 23 C11 24 11 24 8.8125 23.25 C7 22 7 22 6 19 C5.9314505 17.10529184 5.91519628 15.2083166 5.9375 13.3125 C5.94652344 12.31863281 5.95554687 11.32476562 5.96484375 10.30078125 C5.97644531 9.54152344 5.98804688 8.78226562 6 8 C5.071875 8.04125 4.14375 8.0825 3.1875 8.125 C0 8 0 8 -3 6 C-5.28648848 5.75892674 -5.28648848 5.75892674 -7.6875 5.875 C-8.89986328 5.90207031 -8.89986328 5.90207031 -10.13671875 5.9296875 C-10.75160156 5.95289063 -11.36648438 5.97609375 -12 6 C-12 7.32 -12 8.64 -12 10 C-11.37351562 9.98839844 -10.74703125 9.97679687 -10.1015625 9.96484375 C-9.28429687 9.95582031 -8.46703125 9.94679688 -7.625 9.9375 C-6.81289063 9.92589844 -6.00078125 9.91429687 -5.1640625 9.90234375 C-3 10 -3 10 -1 11 C-1.33 12.65 -1.66 14.3 -2 16 C-6.95 16.495 -6.95 16.495 -12 17 C-9.03 17.99 -6.06 18.98 -3 20 C-4 24 -4 24 -6.0625 25.25 C-9.91662348 26.23403153 -13.01939897 26.26102302 -17 26 C-21.06027564 21.93972436 -20.18323091 16.27966405 -20.1875 10.875 C-20.19974609 10.05128906 -20.21199219 9.22757812 -20.22460938 8.37890625 C-20.22983265 6.25129286 -20.1226232 4.12408323 -20 2 C-15.17967276 -2.82032724 -5.88337823 -2.94168911 0 0 Z " fill="#F9A11B" transform="translate(568,274)"/>
<path d="M0 0 C2.82698082 2.82698082 2.6181525 5.0542425 3 9 C3.15726563 10.1446875 3.31453125 11.289375 3.4765625 12.46875 C3.43897935 18.96462122 -0.82741757 24.13041435 -4.25 29.375 C-4.93191406 30.46683594 -5.61382812 31.55867188 -6.31640625 32.68359375 C-11.99533459 41.58241932 -11.99533459 41.58241932 -16 43 C-18.40837755 43.28878735 -20.82810468 43.49045026 -23.25 43.625 C-24.51328125 43.69976562 -25.7765625 43.77453125 -27.078125 43.8515625 C-28.04234375 43.90054688 -29.0065625 43.94953125 -30 44 C-28.49575814 40.67845072 -26.56412633 38.04813764 -24.3125 35.1875 C-18.88130283 28.05794801 -14.06701238 20.55143681 -9.22973633 13.01049805 C-8.30197388 11.56864136 -8.30197388 11.56864136 -7.35546875 10.09765625 C-6.80528076 9.23664307 -6.25509277 8.37562988 -5.68823242 7.48852539 C-3.91670892 4.87722545 -2.00118476 2.43837253 0 0 Z " fill="#E63D30" transform="translate(116,88)"/>
<path d="M0 0 C0.93477173 0.02876221 0.93477173 0.02876221 1.88842773 0.05810547 C-2.99294913 7.80352536 -7.98304642 15.47277932 -13.05541992 23.09399414 C-14.24541054 24.88389941 -15.43042633 26.67703735 -16.61547852 28.47021484 C-17.38731067 29.6312238 -18.15943564 30.79203816 -18.93188477 31.95263672 C-19.61524902 32.98235596 -20.29861328 34.0120752 -21.00268555 35.07299805 C-23.23623531 38.23456472 -25.55680291 41.15126255 -28.11157227 44.05810547 C-28.44157227 44.05810547 -28.77157227 44.05810547 -29.11157227 44.05810547 C-32.22313879 29.63328891 -32.22313879 29.63328891 -29.77954102 23.97216797 C-27.79907227 21.37060547 -27.79907227 21.37060547 -25.53344727 18.83154297 C-23.6355647 16.65816132 -22.26383093 14.79428992 -20.81469727 12.34716797 C-20.43611572 11.7086792 -20.05753418 11.07019043 -19.66748047 10.41235352 C-18.9400967 9.16575017 -18.22437994 7.91224031 -17.52246094 6.65112305 C-15.52986337 3.35133656 -14.25907178 2.11740426 -10.64282227 0.66357422 C-6.97927783 0.03542224 -3.69306038 -0.11363263 0 0 Z " fill="#E63D30" transform="translate(72.111572265625,57.94189453125)"/>
<path d="M0 0 C1.1127832 -0.02416992 1.1127832 -0.02416992 2.24804688 -0.04882812 C6.77227986 -0.05285683 9.79526861 0.33695836 13.4375 3.3125 C14.3125 6.125 14.3125 6.125 13.4375 9.3125 C9.26879495 13.11985852 5.03161819 15.46791733 -0.5625 16.3125 C0.4584375 17.17875 0.4584375 17.17875 1.5 18.0625 C2.139375 18.805 2.77875 19.5475 3.4375 20.3125 C3.1875 22.5625 3.1875 22.5625 2.4375 24.3125 C-1.50977588 24.49192163 -4.1605513 24.40600689 -7.5625 22.3125 C-8.2225 23.6325 -8.8825 24.9525 -9.5625 26.3125 C-11.9375 26.125 -11.9375 26.125 -14.5625 25.3125 C-16.61683255 21.4763484 -16.83260818 18.11565089 -16.8125 13.8125 C-16.81765625 12.7090625 -16.8228125 11.605625 -16.828125 10.46875 C-16.5536375 7.20719265 -16.27486632 5.10739675 -14.5625 2.3125 C-9.86731222 -0.03155302 -5.13665192 -0.02243079 0 0 Z M-9.5625 8.3125 C-9.81280977 10.89630177 -9.81280977 10.89630177 -9.5625 13.3125 C-4.39822624 12.0730743 -0.80813172 10.52261179 3.4375 7.3125 C3.4375 6.9825 3.4375 6.6525 3.4375 6.3125 C1.83370659 6.25833812 0.22938594 6.21963362 -1.375 6.1875 C-2.26832031 6.16429687 -3.16164063 6.14109375 -4.08203125 6.1171875 C-6.81652714 6.12964173 -6.81652714 6.12964173 -9.5625 8.3125 Z " fill="#01243C" transform="translate(1044.5625,273.6875)"/>
<path d="M0 0 C1.10601562 -0.03673828 1.10601562 -0.03673828 2.234375 -0.07421875 C6.09961965 -0.09499964 8.15307157 0.22647425 11.3984375 2.3984375 C12.05070313 3.05070312 12.70296875 3.70296875 13.375 4.375 C13.2109375 7.1640625 13.2109375 7.1640625 12.375 10.375 C9.9765625 12.2734375 9.9765625 12.2734375 7 13.75 C6.02289063 14.25273437 5.04578125 14.75546875 4.0390625 15.2734375 C1.375 16.375 1.375 16.375 -1.625 16.375 C-1.625 17.035 -1.625 17.695 -1.625 18.375 C-0.305 19.035 1.015 19.695 2.375 20.375 C2.045 21.695 1.715 23.015 1.375 24.375 C-5.375 23.5 -5.375 23.5 -7.625 22.375 C-8.285 23.695 -8.945 25.015 -9.625 26.375 C-12 26.125 -12 26.125 -14.625 25.375 C-17.22056555 21.82039498 -16.85863725 18.136404 -16.8125 13.875 C-16.80605469 12.5653125 -16.79960937 11.255625 -16.79296875 9.90625 C-16.66280602 7.16980564 -16.44940789 4.96034313 -15.625 2.375 C-10.30448182 0.62021168 -5.58961001 0.00987564 0 0 Z M-9.625 7.375 C-9.625 9.355 -9.625 11.335 -9.625 13.375 C-4.7975201 11.96207905 -0.9087641 9.94525846 3.375 7.375 C3.375 7.045 3.375 6.715 3.375 6.375 C1.58341511 6.34803635 -0.20828473 6.32862083 -2 6.3125 C-3.49660156 6.29509766 -3.49660156 6.29509766 -5.0234375 6.27734375 C-7.60932453 6.19493398 -7.60932453 6.19493398 -9.625 7.375 Z " fill="#F9A11B" transform="translate(502.625,273.625)"/>
<path d="M0 0 C1.4540625 0.0309375 1.4540625 0.0309375 2.9375 0.0625 C4.36008812 3.88570557 5.17792276 6.97531305 4.9375 11.0625 C5.60845703 10.4128125 5.60845703 10.4128125 6.29296875 9.75 C11.17499007 5.25312748 11.17499007 5.25312748 14.6875 4.375 C16.9375 5.0625 16.9375 5.0625 18.625 7.25 C19.058125 8.178125 19.49125 9.10625 19.9375 10.0625 C20.35 10.908125 20.7625 11.75375 21.1875 12.625 C22.00839506 15.29290894 21.94617968 16.49495173 20.9375 19.0625 C19.9375 20.0625 19.9375 20.0625 17.5625 20.4375 C16.263125 20.251875 16.263125 20.251875 14.9375 20.0625 C13.125 17.5625 13.125 17.5625 11.9375 15.0625 C11.56238281 15.495625 11.18726563 15.92875 10.80078125 16.375 C6.69086323 20.84725336 6.69086323 20.84725336 3.3125 21.8125 C-0.28370526 20.67685623 -1.27294547 18.24393027 -3.0625 15.0625 C-3.59875 16.0525 -4.135 17.0425 -4.6875 18.0625 C-5.47125 19.0525 -6.255 20.0425 -7.0625 21.0625 C-10.3125 21.4375 -10.3125 21.4375 -13.0625 21.0625 C-12.54330319 15.781295 -10.73828487 12.19872624 -8.0625 7.75 C-7.50949219 6.80157227 -7.50949219 6.80157227 -6.9453125 5.83398438 C-3.56139616 0.07268155 -3.56139616 0.07268155 0 0 Z " fill="#F9A11B" transform="translate(525.0625,273.9375)"/>
<path d="M0 0 C3.25696479 0.41755959 4.63443291 0.63443291 7 3 C7.3172898 9.66308573 6.95552416 16.39390702 6 23 C5 24 5 24 2.375 24.5 C-2.59725683 23.76336936 -4.81429945 20.69465863 -8 17 C-8.0825 18.27875 -8.165 19.5575 -8.25 20.875 C-8.51171875 23.0859375 -8.51171875 23.0859375 -9 25 C-11.0625 26.5 -11.0625 26.5 -13 27 C-14.984375 26.10546875 -14.984375 26.10546875 -17 24 C-17.52614217 20.76609364 -17.37422316 17.57813563 -17.25 14.3125 C-17.23195313 13.41982422 -17.21390625 12.52714844 -17.1953125 11.60742188 C-17.14817759 9.40386496 -17.08240657 7.20247399 -17 5 C-15.1484375 3.9375 -15.1484375 3.9375 -13 3 C-8.44449719 4.91810645 -5.36002574 8.48369399 -2 12 C-1.93941406 11.21753906 -1.87882813 10.43507813 -1.81640625 9.62890625 C-1.73261719 8.61699219 -1.64882813 7.60507812 -1.5625 6.5625 C-1.48128906 5.55316406 -1.40007813 4.54382813 -1.31640625 3.50390625 C-1 1 -1 1 0 0 Z " fill="#01243C" transform="translate(856,272)"/>
<path d="M0 0 C-0.125 1.875 -0.125 1.875 -1 4 C-4.73397847 5.69726294 -7.92157346 6.23990744 -12 6 C-12 7.32 -12 8.64 -12 10 C-11.37351562 9.98839844 -10.74703125 9.97679687 -10.1015625 9.96484375 C-9.28429687 9.95582031 -8.46703125 9.94679688 -7.625 9.9375 C-6.81289063 9.92589844 -6.00078125 9.91429687 -5.1640625 9.90234375 C-3 10 -3 10 -1 11 C-1.33 12.65 -1.66 14.3 -2 16 C-6.95 16.495 -6.95 16.495 -12 17 C-9.03 17.99 -6.06 18.98 -3 20 C-4 24 -4 24 -6.0625 25.25 C-10.04438194 26.26665071 -12.87983503 26.46517992 -17 26 C-20.88722486 21.66323213 -20.4159588 16.80409286 -20.3125 11.3125 C-20.31572266 10.44560547 -20.31894531 9.57871094 -20.32226562 8.68554688 C-20.26732364 2.26732364 -20.26732364 2.26732364 -18 0 C-11.93142525 -1.86641418 -5.88440689 -2.94220344 0 0 Z " fill="#01243C" transform="translate(681,274)"/>
<path d="M0 0 C1.375 2.0625 1.375 2.0625 2 4 C-5.28571429 7.42857143 -5.28571429 7.42857143 -10 7 C-10 8.32 -10 9.64 -10 11 C-9.37351562 10.97679687 -8.74703125 10.95359375 -8.1015625 10.9296875 C-7.28429687 10.91164063 -6.46703125 10.89359375 -5.625 10.875 C-4.81289063 10.85179687 -4.00078125 10.82859375 -3.1640625 10.8046875 C-1 11 -1 11 1 13 C0.67 14.32 0.34 15.64 0 17 C-4.95 17.495 -4.95 17.495 -10 18 C-7.03 18.99 -4.06 19.98 -1 21 C-2 25 -2 25 -4.0625 26.25 C-8.04438194 27.26665071 -10.87983503 27.46517992 -15 27 C-19.06107208 22.5814069 -18.34256501 17.31357662 -18.1875 11.6875 C-18.17396484 10.75615234 -18.16042969 9.82480469 -18.14648438 8.86523438 C-18.11126882 6.57622354 -18.06202099 4.28841542 -18 2 C-16.12922332 1.46419503 -14.2531083 0.94701113 -12.375 0.4375 C-11.33085938 0.14746094 -10.28671875 -0.14257812 -9.2109375 -0.44140625 C-5.76980883 -1.04004542 -3.36378609 -0.89961721 0 0 Z " fill="#01243C" transform="translate(1026,273)"/>
<path d="M0 0 C16.5870923 -0.76851393 16.5870923 -0.76851393 22 4 C23.125 6.4375 23.125 6.4375 23 9 C20.60590105 15.22465727 14.32150703 18.63440763 8.8125 21.875 C5.90660222 23.03735911 4.08718291 23.51453049 1 23 C-1.57051954 19.14422068 -1.25824956 15.96094577 -1.1875 11.5 C-1.18685547 10.72785156 -1.18621094 9.95570313 -1.18554688 9.16015625 C-1.15983488 5.86330661 -1.04886 3.14658001 0 0 Z M6 6 C6 8.64 6 11.28 6 14 C8.95012857 12.63029745 11.5652222 11.17390875 14 9 C14 8.01 14 7.02 14 6 C11.36 6 8.72 6 6 6 Z " fill="#01243C" transform="translate(683,275)"/>
<path d="M0 0 C1.99954746 -0.04254356 4.00041636 -0.04080783 6 0 C7 1 7 1 7.11352539 3.31665039 C7.10828857 4.31688232 7.10305176 5.31711426 7.09765625 6.34765625 C7.09443359 7.42724609 7.09121094 8.50683594 7.08789062 9.61914062 C7.07951172 10.75544922 7.07113281 11.89175781 7.0625 13.0625 C7.05798828 14.20267578 7.05347656 15.34285156 7.04882812 16.51757812 C7.03699747 19.34510351 7.0205141 22.1725264 7 25 C4.6875 25.625 4.6875 25.625 2 26 C1.01 25.34 0.02 24.68 -1 24 C-1 22.68 -1 21.36 -1 20 C-1.66 20 -2.32 20 -3 20 C-3.33 21.65 -3.66 23.3 -4 25 C-6.375 25.1875 -6.375 25.1875 -9 25 C-11.48614181 21.27078729 -11.33170055 18.31628318 -11.3125 14 C-11.32861328 13.27554687 -11.34472656 12.55109375 -11.36132812 11.8046875 C-11.36623832 6.48204118 -11.36623832 6.48204118 -9.48046875 4 C-8.99191406 3.67 -8.50335937 3.34 -8 3 C-5.5 4 -5.5 4 -3 6 C-2.53162101 8.79374292 -2.76575495 11.14221036 -3 14 C-2.34 14 -1.68 14 -1 14 C-1.020625 12.80375 -1.04125 11.6075 -1.0625 10.375 C-1.06882571 6.81995131 -0.69888875 3.49444376 0 0 Z " fill="#01243C" transform="translate(750,273)"/>
<path d="M0 0 C2 2 2 2 2.1875 4.875 C2.03404904 7.43251599 1.7487803 9.56646404 1 12 C2.98 12 4.96 12 7 12 C6.91306859 13.79258558 6.80489496 15.58415144 6.6875 17.375 C6.62949219 18.37273437 6.57148437 19.37046875 6.51171875 20.3984375 C6.34285156 21.25695312 6.17398438 22.11546875 6 23 C5.01 23.66 4.02 24.32 3 25 C2.2575 24.46375 1.515 23.9275 0.75 23.375 C-0.1575 22.92125 -1.065 22.4675 -2 22 C-4.03327085 22.8499169 -4.03327085 22.8499169 -6 24 C-10.52631579 23.47368421 -10.52631579 23.47368421 -12 22 C-11.61140641 18.50265772 -11.11403913 15.34211739 -10 12 C-10.33 11.34 -10.66 10.68 -11 10 C-11.375 7.125 -11.375 7.125 -11 4 C-7.6182106 0.22035303 -5.00531326 -0.6673751 0 0 Z " fill="#01243C" transform="translate(889,274)"/>
<path d="M0 0 C-0.33637017 3.02733153 -0.60895134 4.60207576 -2.77734375 6.80859375 C-3.49019531 7.34613281 -4.20304688 7.88367188 -4.9375 8.4375 C-8.46412554 11.31431797 -10.10229868 13.39928075 -11 18 C-10.113125 17.319375 -9.22625 16.63875 -8.3125 15.9375 C-5 14 -5 14 -2.125 14.25 C-1.073125 14.62125 -1.073125 14.62125 0 15 C0.4375 17.1875 0.4375 17.1875 0 20 C-2.56628741 22.98593189 -5.48273456 24.68178158 -9.328125 25.48828125 C-13.36541105 25.72222995 -15.35541176 25.49111485 -18.625 23 C-20.4581402 19.00042139 -20.3750416 16.07419734 -19 12 C-14.77721058 3.691081 -9.96793186 -2.39230365 0 0 Z " fill="#01243C" transform="translate(792,273)"/>
<path d="M0 0 C0.33 0.99 0.66 1.98 1 3 C0.38511719 3.51949219 -0.22976563 4.03898437 -0.86328125 4.57421875 C-1.67152344 5.27160156 -2.47976563 5.96898437 -3.3125 6.6875 C-4.11300781 7.37199219 -4.91351562 8.05648438 -5.73828125 8.76171875 C-8.03461444 11.03425574 -9.53040901 13.1321574 -11 16 C-11 16.66 -11 17.32 -11 18 C-9.39125 16.9790625 -9.39125 16.9790625 -7.75 15.9375 C-4.34025424 13.99104594 -4.34025424 13.99104594 -1.625 14.0625 C0 15 0 15 1 18 C-1.25754267 21.42812036 -3.21092951 23.46501159 -7 25 C-9.25390625 25.30078125 -9.25390625 25.30078125 -11.5625 25.3125 C-12.70912109 25.33763672 -12.70912109 25.33763672 -13.87890625 25.36328125 C-16.56253099 24.90365491 -17.41173156 24.19003475 -19 22 C-20.38635692 16.74474005 -19.00251555 12.32373131 -16.4375 7.6875 C-12.27824407 1.40457693 -7.8622458 -2.30114511 0 0 Z " fill="#01243C" transform="translate(736,273)"/>
<path d="M0 0 C1.98 0.66 3.96 1.32 6 2 C5.67 5.96 5.34 9.92 5 14 C8.54065105 10.45934895 9.63237104 9.14070719 11.25 4.75 C11.58515625 3.85796875 11.9203125 2.9659375 12.265625 2.046875 C12.50796875 1.37140625 12.7503125 0.6959375 13 0 C14.66611905 -0.042721 16.33382885 -0.04063832 18 0 C19 1 19 1 19.3125 4.625 C19.23995313 10.40802171 16.62941894 13.78864573 13.25 18.375 C10.00783911 20.71656064 6.96931568 21.21264191 3 21 C0.0625 19.75 0.0625 19.75 -2 18 C-3.7862433 12.64127009 -3.95841292 6.99669358 -1.5 1.875 C-1.005 1.25625 -0.51 0.6375 0 0 Z " fill="#F9A11B" transform="translate(465,276)"/>
<path d="M0 0 C0 5.94 0 11.88 0 18 C-1.65 18.33 -3.3 18.66 -5 19 C-8.08137704 15.91862296 -7.97281954 12.92739734 -8.09765625 8.66796875 C-8.08605469 7.51941406 -8.07445312 6.37085938 -8.0625 5.1875 C-8.05347656 4.02605469 -8.04445313 2.86460937 -8.03515625 1.66796875 C-8.02355469 0.78753906 -8.01195312 -0.09289062 -8 -1 C-5 -2 -5 -2 0 0 Z " fill="#01243C" transform="translate(769,277)"/>
<path d="M0 0 C2.4375 1.1875 2.4375 1.1875 3.4375 3.1875 C3.53470427 5.12300864 3.56727914 7.06205792 3.5625 9 C3.56507813 10.03769531 3.56765625 11.07539063 3.5703125 12.14453125 C3.44826175 14.94092942 3.07113355 17.46689879 2.4375 20.1875 C0.7875 20.1875 -0.8625 20.1875 -2.5625 20.1875 C-5.13030471 16.3459024 -4.78938882 12.3735825 -4.6875 7.9375 C-4.67847656 7.19242187 -4.66945313 6.44734375 -4.66015625 5.6796875 C-4.63668358 3.84881941 -4.60081525 2.01811762 -4.5625 0.1875 C-2.5625 -0.8125 -2.5625 -0.8125 0 0 Z " fill="#01243C" transform="translate(654.5625,275.8125)"/>
<path d="M0 0 C0.66 0 1.32 0 2 0 C2.33 2.64 2.66 5.28 3 8 C0.36 8.33 -2.28 8.66 -5 9 C-3.50079488 5.88626628 -1.91847864 2.87771795 0 0 Z " fill="#E63D30" transform="translate(121,118)"/>
<path d="M0 0 C-2.475 4.455 -2.475 4.455 -5 9 C-5.66 9 -6.32 9 -7 9 C-7.33 6.36 -7.66 3.72 -8 1 C-5 0 -5 0 0 0 Z " fill="#E63D30" transform="translate(45,63)"/>
</svg>
