<?xml version="1.0" encoding="utf-8"?>
<!-- Generator: Adobe Illustrator 28.1.0, SVG Export Plug-In . SVG Version: 6.00 Build 0)  -->
<svg version="1.1" id="katman_1" xmlns="http://www.w3.org/2000/svg" xmlns:xlink="http://www.w3.org/1999/xlink" x="0px" y="0px"
	 viewBox="0 0 750 220" style="enable-background:new 0 0 750 220;" xml:space="preserve">
<style type="text/css">
	.st0{fill:#FFFFFF;}
</style>
<g>
	<g>
		<g>
			<path class="st0" d="M115.45,45.79c2.55-0.23,4.14-0.71,4.77-1.45c0.64-0.74,0.95-2.43,0.95-5.07V11.46
				c0-2.24-0.35-3.71-1.06-4.42c-0.71-0.71-2.26-1.16-4.66-1.35V4.5h17.66c5.67,0,10.01,1.06,13.02,3.17
				c3.01,2.11,4.51,4.89,4.51,8.34c0,4.37-1.67,7.54-5,9.5c-3.34,1.96-7.51,2.95-12.53,2.95c-0.72,0-1.64-0.02-2.76-0.05
				s-1.96-0.05-2.5-0.05v11.66c0,2.41,0.39,3.93,1.16,4.55c0.77,0.62,2.5,1.03,5.19,1.22v1.19h-18.74V45.79z M138.05,8.08
				c-1.89-0.79-4.3-1.19-7.2-1.19c-1.37,0-2.22,0.13-2.53,0.39c-0.32,0.26-0.47,0.84-0.47,1.74v16.74c1.2,0.11,1.98,0.17,2.35,0.19
				c0.37,0.02,0.73,0.03,1.08,0.03c3.07,0,5.49-0.42,7.26-1.25c3.21-1.52,4.81-4.38,4.81-8.56C143.35,12.24,141.59,9.54,138.05,8.08
				z"/>
			<path class="st0" d="M235.72,45.79c2.73-0.19,4.49-0.58,5.3-1.17c0.81-0.59,1.21-2.12,1.21-4.6V11.46c0-2.36-0.4-3.88-1.21-4.56
				c-0.81-0.68-2.58-1.08-5.3-1.21V4.5h19.83v1.19c-2.73,0.13-4.5,0.53-5.3,1.21c-0.81,0.68-1.21,2.2-1.21,4.56v28.56
				c0,2.47,0.4,4.01,1.21,4.6c0.81,0.59,2.57,0.98,5.3,1.17v1.19h-19.83V45.79z"/>
			<path class="st0" d="M338.44,46.26l29.38-39.31h-15.44c-3.88,0-6.64,0.93-8.28,2.79c-0.98,1.11-1.76,3.02-2.32,5.74h-1.73
				l1.34-10.97h35.36v0.72l-29.38,39.31h17.38c3.95,0,6.82-0.89,8.63-2.67c1.12-1.13,2.14-3.19,3.04-6.18h1.57l-1.67,11.29h-37.88
				V46.26z"/>
			<path class="st0" d="M451.02,46.26l29.38-39.31h-15.44c-3.88,0-6.64,0.93-8.28,2.79c-0.98,1.11-1.76,3.02-2.32,5.74h-1.73
				l1.34-10.97h35.36v0.72l-29.38,39.31h17.38c3.95,0,6.82-0.89,8.63-2.67c1.12-1.13,2.14-3.19,3.04-6.18h1.57l-1.67,11.29h-37.88
				V46.26z"/>
			<path class="st0" d="M311.2,86.36c13.87-12.72,30.92-19.08,51.17-19.08c20.32,0,37.4,6.39,51.27,19.19
				c15.04,13.85,22.55,32.3,22.55,55.35c0,23.41-7.78,42.04-23.33,55.88c-13.93,12.37-30.77,18.56-50.49,18.56
				c-21.13,0-38.66-6.85-52.59-20.56c-14.16-13.99-21.23-31.94-21.23-53.88C288.54,118.76,296.09,100.27,311.2,86.36z
				 M328.05,192.16c9.34,10.86,20.78,16.29,34.37,16.29c13.3,0,24.66-5.29,34.09-15.87c9.44-10.58,14.16-27.5,14.16-50.77
				c0-23.54-4.78-40.55-14.32-51.03c-9.55-10.48-20.86-15.71-33.93-15.71c-13.51,0-24.95,5.43-34.31,16.29s-14.04,27.67-14.04,50.45
				C314.07,164.52,318.72,181.3,328.05,192.16z"/>
			<path class="st0" d="M446.08,210.76l98.8-132.21h-51.93c-13.06,0-22.33,3.13-27.84,9.38c-3.3,3.73-5.9,10.16-7.81,19.3h-5.83
				l4.51-36.91h118.94v2.43l-98.8,132.22h58.46c13.27,0,22.94-2.99,29.01-8.96c3.78-3.79,7.19-10.72,10.22-20.77h5.28l-5.6,37.96
				H446.08V210.76z"/>
			<path class="st0" d="M603.17,44.62c-0.66-0.57-1.55-2.06-2.67-4.47l-16.69-36.4h-1.33l-13.96,31.51
				c-2.09,4.72-3.57,7.61-4.43,8.67c-0.86,1.06-2.15,1.68-3.87,1.86v1.19h13.27v-1.19c-1.57-0.12-2.63-0.31-3.2-0.56
				c-0.92-0.42-1.37-1.17-1.37-2.25c0-0.54,0.17-1.27,0.51-2.2c0.32-0.86,11.97-27.97,11.97-27.97l11.49,26.46
				c0.39,0.87,0.7,1.71,0.92,2.5c0.22,0.79,0.32,1.34,0.32,1.65c0,0.94-0.28,1.52-0.85,1.76c-0.57,0.24-1.83,0.44-3.79,0.61v1.19
				h17.04v-1.19C604.95,45.58,603.84,45.19,603.17,44.62z"/>
			<path class="st0" d="M729.97,205.26c-2.23-1.93-5.22-6.94-8.96-15.05L664.86,67.8h-4.48l-46.94,105.97
				c-7.04,15.88-12.01,25.6-14.9,29.15c-2.89,3.55-7.25,5.64-13.03,6.27v4.01h44.64v-4.01c-5.27-0.42-8.86-1.05-10.75-1.89
				c-3.08-1.4-4.62-3.92-4.62-7.55c0-1.82,0.56-4.28,1.7-7.4c1.11-3.02,40.25-94.07,40.25-94.07l38.64,88.99
				c1.32,2.94,2.35,5.74,3.08,8.39c0.73,2.66,1.09,4.51,1.09,5.56c0,3.15-0.95,5.12-2.86,5.93c-1.91,0.8-6.14,1.49-12.73,2.05v4.01
				h57.3v-4.01C735.97,208.49,732.21,207.18,729.97,205.26z"/>
			<g>
				<path class="st0" d="M102.49,129.92c-2.64,2.73-5.39,4.09-14.99,4.09l-20.68-0.07l-0.1,8.47l20.78,0.15
					c9.53,0,12.24,1.35,14.88,4.06c2.64,2.71,4.8,8.24,6.49,16.6h5.28v-49.87h-5.28C107.26,121.67,105.13,127.19,102.49,129.92z"/>
				<path class="st0" d="M128.78,70.33H8.75v4.01c8.36,0.56,13.75,2.02,16.18,4.38c2.42,2.36,3.64,7.37,3.64,15.02v93.52
					c0,9.3-1.09,15.06-3.25,17.26c-2.16,2.21-7.68,3.76-16.56,4.67v4.01H71.8v-4.01c-8.51-0.63-14.03-2.04-16.56-4.24
					c-2.53-2.2-3.79-7.26-3.79-15.16V85.83c0-2.88,0.42-4.81,1.26-5.8c0.85-0.99,2.78-1.48,5.8-1.48h30.9
					c12.54,0,20.94,1.31,25.2,3.93c4.25,2.63,7.15,8.87,8.69,18.73h6.28L128.78,70.33z"/>
			</g>
			<path class="st0" d="M267.86,206.26c-2.86-1.54-5.72-3.97-8.58-7.32l-46.43-54.8c12.54-1.83,22.45-5.62,29.76-11.37
				c7.3-5.76,10.94-14,10.94-24.74c0-16-8.22-26.99-24.65-32.96c-8.65-3.16-19.48-4.74-32.46-4.74h-62.37v4.01
				c8.14,0.63,13.4,2.13,15.78,4.48c2.39,2.35,3.58,7.32,3.58,14.91v93.52c0,8.95-1.06,14.66-3.19,17.11
				c-2.12,2.44-7.51,4.05-16.16,4.82v4.01h62.6v-4.01c-8.51-0.7-14.03-2.12-16.56-4.25c-2.53-2.13-3.8-7.19-3.8-15.18v-22.32h-0.22
				v-60.18h0.22V86.02c0-3.23,0.72-5.28,2.15-6.15c1.43-0.88,5.34-1.32,11.72-1.32c9.46,0,17.05,1.23,22.77,3.68
				c10.7,4.57,16.06,13.09,16.06,25.57c0,12.98-5.98,21.82-17.93,26.52c-2.44,0.93-5.45,1.74-9.01,2.41v28.66l40.5,47.8h36.29v-4.01
				C274.38,208.76,270.71,207.79,267.86,206.26z"/>
		</g>
	</g>
</g>
</svg>
