<svg xmlns="http://www.w3.org/2000/svg" id="katman_1" data-name="katman 1" viewBox="0 0 310.62 185.72">
  <defs>
    <style>
      .cls-1, .cls-2 {
        fill: #fff;
      }

      .cls-3 {
        fill: none;
        stroke: #fff;
        stroke-miterlimit: 22.93;
      }

      .cls-2 {
        fill-rule: evenodd;
      }

      .cls-4 {
        fill: #e30111;
      }

    </style>
  </defs>
  <g>
    <path class="cls-2" d="M46.16,139.25l-1.68.17c-8.37.83-18.11.74-26.9-2.8-6.32-2.54-13.47-7.63-16.35-17.04-5.42-17.67,8.62-31.72,16.93-37.63,16.66-11.85,38.57-15.43,58.85-14.94l2.23.05.24-3.02c1.07-13.17,6.73-24.25,13.1-32.35,9.22-11.72,21.64-19.82,34.44-23.88,21.13-6.7,47.77-3.44,68.16,21.92l1.87,2.33,1.8-1.27C219.47,16.21,244.87,2.05,269.78.17c11.11-.84,31.8.78,38.88,19.83,3.95,10.61,1.29,20.66-2.38,28.12-2.11,4.3-4.74,8.13-7.56,11.48-13.48,16.01-33.51,25.79-51.49,31.9l-1.09.37-22.38,67.72-2.55-.52c-50.09-10.14-99,4.33-141.75,25.37l-2.59,1.27-30.72-46.47h0Z"/>
    <path class="cls-4" d="M46.16,139.25c-11.75,1.38-21.27.19-28.54-2.72C-18.82,121.91,1.05,63.86,79.23,67.07c1.31-28.98,22.84-51.21,47.78-59.24,21.62-7.37,50.68-2.13,70.03,24.24C218.16,16.97,244.11,2.14,269.78.17c11.11-.84,31.8.78,38.88,19.83,3.95,10.61,1.29,20.66-2.37,28.12-11.74,23.13-37.85,36.27-60.14,43.76l-22.38,67.72c-51.76-11.31-102.68,3.96-146.89,26.12l-30.72-46.47h0Z"/>
    <path class="cls-1" d="M267.76,23.69c5.68-.14,10.4,4.81,10.52,11.05.12,6.24-4.39,11.4-10.07,11.54-5.68.14-10.4-4.81-10.52-11.05-.12-6.23,4.39-11.4,10.07-11.54"/>
    <path class="cls-3" d="M267.76,23.69c5.68-.14,10.4,4.81,10.52,11.05.12,6.24-4.39,11.4-10.07,11.54-5.68.14-10.4-4.81-10.52-11.05-.12-6.23,4.39-11.4,10.07-11.54Z"/>
    <path class="cls-4" d="M265.03,34.38l3.15-.08c.67-.02,1.19-.1,1.57-.25.37-.15.66-.39.85-.71.19-.32.28-.66.28-1.03-.01-.54-.21-.98-.6-1.32-.39-.34-.99-.5-1.81-.48l-3.51.09.08,3.78h0ZM263.68,40.8l-.23-11.43,4.92-.12c.99-.02,1.74.06,2.26.26s.94.54,1.25,1.06.48,1.08.49,1.71c.02.81-.23,1.5-.72,2.07-.5.57-1.28.94-2.34,1.11.39.18.69.37.9.55.44.39.85.89,1.25,1.49l1.98,3.07-1.84.05-1.51-2.34c-.44-.68-.81-1.19-1.09-1.55-.29-.36-.54-.6-.76-.75-.22-.14-.45-.23-.68-.29-.17-.03-.44-.04-.82-.03l-1.7.04.1,5.08-1.47.03h0Z"/>
    <g>
      <path class="cls-1" d="M124.89,128.36c-.2,3.71-14.64,5.49-15.02-3.15-.25-3.23,1.1-7.46,3.18-12.1-4.27.97-8.08,1.21-10.93,1.99-3.14,8.81-4.31,15.02-4.55,19.5-.06,3.68-14.64,5.49-15.02-3.15-.42-8,8.78-22.36,12.48-31.05,3.05-7.14,6.02-15.41,6.41-22.58.11-2.05,15.22-8.66,14.71,1.07-.47,8.83-5.09,16.46-9.35,25.15,2.01-.84,4.16-1.58,6.87-2.2l5.55-1.27c1.11-2.27,2.21-4.42,3.01-6.38,3.05-7.14,6.16-15.44,6.55-22.61.11-2.05,15.08-8.62,14.57,1.1-.58,11.01-7.68,20.22-12.23,31.62-4.54,11.28-6.07,18.83-6.2,24.05h0Z"/>
      <path class="cls-1" d="M144.54,116.27c-1.3,3.33-2.03,6.4-2.15,8.58-.2,3.71-15.04,5.07-13.86-3.79,1.15-8.35,13.57-25.1,19.53-34.04,4.73-7.02,8.91-16.83,10.08-22.91.07-1.28,6.54-4.02,11.73-3.81,5.34.18,8.27,3.04,8.77,6.98.89,7-.63,17.09-2.75,27.94-2.38,13.06.46,15.2,2.9,14.26,1.44-.71-1.57,8.32-9.88,11.36-6.45,2.36-9.96-.38-10.58-7.33-.87.45-2.29.78-4.14,1.2-3.7.84-6.95,1.08-9.64,1.57h0ZM159.2,102.3c1.04-6.31,2.7-13.77,3.27-19.21-1.63,4.17-4.36,7.95-8.68,15.13-1.38,2.08-2.62,4.39-3.87,6.7,1.43-.45,3-.94,4.85-1.36,2.13-.49,3.42-.78,4.43-1.26h0Z"/>
      <path class="cls-1" d="M190.14,73.11c2.44-11.43,13.4-21.9,25.85-23.35,12.17-1.51,15.38,6.86,10.71,18.04-3.09,7.79-10.18,11.55-15.97,9.46-4.55-1.75-.91-1.44,1.9-9.28,1.15-3.04,1.75-6.47-.81-5.88-3.7.84-7.13,4.41-7.4,9.53-.35,6.66,12.33,8.7,10.81,21.44-1.03,8.71-7.71,17.94-18.54,20.67-10.4,2.5-16.54-.91-18.82-8.36-1.18-4.15,10.41-15.9,10.88-14.11,1.7,5.05,3.98,12.37,7.85,10.98,1.86-.68,3.8-2.64,4.06-4.97,1.25-7.62-13.36-10.61-10.53-24.15h0Z"/>
    </g>
  </g>
  
</svg>