<svg xmlns="http://www.w3.org/2000/svg" xmlns:xlink="http://www.w3.org/1999/xlink" version="1.1" id="Layer_1" x="0px" y="0px" viewBox="0 0 841.89 144.97" style="enable-background:new 0 0 841.89 144.97;" xml:space="preserve" width="500"  height="86.1" >
<g>
	<polygon points="57.81,107.03 27.72,15.69 13.18,15.69 13.18,129.54 18.49,129.54 18.49,31.83 50.65,129.54 55.95,129.54    87.89,32.65 87.89,129.54 101.7,129.54 101.7,15.69 87.89,15.69  "/>
	<path d="M304.75,34.42c4.58,0,8.29-4.75,8.29-10.62c0-5.86-3.71-10.62-8.29-10.62c-4.58,0-8.29,4.76-8.29,10.62   C296.46,29.66,300.17,34.42,304.75,34.42z"/>
	<path d="M599.4,15.69h-34.49v113.85h34.49c24.34,0,42.13-25.49,42.13-56.92C641.53,38.51,626.32,15.69,599.4,15.69z M593.61,124.12   h-14.89v-103h13.52c23.17,0,34.34,21.95,34.34,51.5C626.58,101.35,619.25,124.12,593.61,124.12z"/>
	<path d="M825.11,120.6V46l-16.55,5.86v1.99c0,0,4.11,0.59,4.11,6.95v59.79c0,6.36-3.6,6.95-3.6,6.95v1.99h19.64v-1.99   C828.71,127.55,825.11,126.95,825.11,120.6z"/>
	<path d="M204.57,80.3c-11.8-6.14-12.25-12.51-12.25-17.45c0-4.94,3.35-11.53,10.13-11.85c9.1-0.43,14.96,6.99,18.79,23.05h2V54.05   c0,0-7.14-7.87-19.41-7.87c-12.27,0-21.89,8.85-21.89,22.33c0,10.32,5.09,19.6,19.71,26.67c12.86,6.21,14.94,10.68,14.94,16.92   c0,6.24-4.2,14.32-12.21,14.84c-9.25,0.6-19.57-7.3-20.48-24.08h-2v22.64c1.14,0.67,10.98,6.29,21.51,6.29   c11.2,0,24.34-7.4,23.41-26.3C226.16,91.92,216.38,86.44,204.57,80.3z"/>
	<path d="M166.09,120.61V72.86c0-20.26-12.6-26.68-23.91-26.68c-12.79,0-22.89,8.02-22.89,8.02l-0.01,19.92h2.01   c5.33-19.1,13.33-23.43,20.85-23.13c10.08,0.41,11.52,13.13,11.52,21.64c0,3.39-1.72,8.38-4.57,10.23   c-3.56,2.31-8.21,4.67-14.18,6.84c-16.89,6.14-18.58,16.72-18.7,23.21c-0.14,7.31,4.76,18.87,18.02,18.87   c14.61,0,19.42-16.52,19.42-16.52v14.28h16.04v-1.99C169.68,127.56,166.09,126.96,166.09,120.61z M153.65,99.58   c0,0-0.33,14.1-8.07,20.09c-8.43,6.52-18.29,0.46-18.29-7.86c0-18.46,17.4-17.32,26.36-25.93V99.58z"/>
	<path d="M261.79,80.3c-11.8-6.14-12.25-12.51-12.25-17.45c0-4.94,3.35-11.53,10.13-11.85c9.1-0.43,14.96,6.99,18.79,23.05h2V54.05   c0,0-7.14-7.87-19.41-7.87c-12.28,0-21.89,8.85-21.89,22.33c0,10.32,5.09,19.6,19.71,26.67c12.86,6.21,14.94,10.68,14.94,16.92   c0,6.24-4.2,14.32-12.21,14.84c-9.25,0.6-19.57-7.3-20.48-24.08h-2v22.64c1.14,0.67,10.98,6.29,21.51,6.29   c11.2,0,24.34-7.4,23.41-26.3C283.38,91.92,273.6,86.44,261.79,80.3z"/>
	<path d="M459.37,46.12c-16.97,0-30.73,19.18-30.73,42.84c0,23.66,13.76,42.83,30.73,42.83c16.97,0,30.73-19.18,30.73-42.83   C490.1,65.3,476.35,46.12,459.37,46.12z M461.48,126.9c-9.28,0.55-17.74-15.99-18.9-36.95c-1.16-20.96,5.42-38.39,14.7-38.94   c9.28-0.55,17.74,15.99,18.9,36.95C477.33,108.92,470.76,126.35,461.48,126.9z"/>
	<path d="M416.41,120.6l-0.03-54.08c-0.35-11.29-8.76-20.34-19.11-20.34c-8.05,0-14.92,5.47-17.75,13.2   c-2.83-7.73-9.71-13.2-17.75-13.2c-6.94,0-13,4.08-16.36,10.17v-7.92h-16.55v1.99c0,0,4.11,0.6,4.11,6.95l0,63.22   c0,6.36-3.6,6.95-3.6,6.95v1.99h19.64v-1.99c0,0-3.6-0.6-3.6-6.95V67.32c0-7.21,5.16-13.05,11.53-13.05   c6.37,0,11.53,5.84,11.53,13.05v53.28c0,6.36-3.6,6.95-3.6,6.95v1.99h19.64v-1.99c0,0-3.6-0.6-3.6-6.95V67.32   c0-7.21,5.16-13.05,11.53-13.05c6.37,0,11.53,5.84,11.53,13.05v53.28c0,6.36-3.6,6.95-3.6,6.95v1.99h19.64v-1.99   C420.01,127.55,416.41,126.95,416.41,120.6z"/>
	<path d="M704.01,120.6V48.43h-16.55v1.99c0,0,4.11,0.6,4.11,6.95l0,53.28c0,7.21-5.16,13.05-11.53,13.05   c-6.37,0-11.53-5.84-11.53-13.05V48.43h-16.55v1.99c0,0,4.11,0.6,4.11,6.95l0,53.36c0,11.63,8.57,21.06,19.15,21.06   c6.94,0,13-4.08,16.36-10.17v7.92h16.04v-1.99C707.61,127.55,704.01,126.95,704.01,120.6z"/>
	<path d="M311.84,120.6L311.84,120.6l0-72.17h-16.55v1.99c0,0,4.11,0.6,4.11,6.95v63.22c0,6.36-3.6,6.95-3.6,6.95v1.99h19.64v-1.99   C315.44,127.55,311.84,126.95,311.84,120.6z"/>
	<path d="M818.02,34.42c4.58,0,8.29-4.75,8.29-10.62c0-5.86-3.71-10.62-8.29-10.62c-4.58,0-8.29,4.76-8.29,10.62   C809.73,29.66,813.44,34.42,818.02,34.42z"/>
	<path d="M781.02,24.71h-4.62c-2.11,23.72-16.46,23.72-18.57,23.72s-19.1,0-19.1,0V24.71h-4.62c-2.11,23.72-16.46,23.72-18.57,23.72   c-2.12,0-2.33,0-2.33,0v5.42h13.08v61.87c0,8.29,5.86,16.07,17.48,16.07c5.17,0,9.41-1.52,13.21-4.23l-1.15-1.91   c-2.14,0.88-5.77,1.3-7.99,1.3c-7,0-9.11-6.34-9.11-11.48V53.85h29.85v61.87c0,8.29,5.86,16.07,17.48,16.07   c5.17,0,9.41-1.52,13.21-4.23l-1.14-1.91c-2.14,0.88-5.77,1.3-7.99,1.3c-7,0-9.11-6.34-9.11-11.48l0-61.62h20.5v-5.42h-20.5V24.71z   "/>
</g>
</svg>