<svg width="147" height="30" viewBox="0 0 147 30" fill="none" xmlns="http://www.w3.org/2000/svg">
<g clip-path="url(#clip0)">
<path fill-rule="evenodd" clip-rule="evenodd" d="M29.9809 0V3.06961L3.49799 29.3879H0L29.9809 0ZM37.4141 21.0922H38.4518C39.0391 23.7517 39.9811 25.6945 41.2776 26.9206C42.4828 28.0846 44.0987 28.7353 45.7806 28.7338C47.4165 28.7338 48.5825 28.3215 49.2786 27.4969C49.9278 26.7678 50.2955 25.8339 50.3163 24.8612C50.3292 24.3776 50.2388 23.8966 50.051 23.4502C49.8631 23.0037 49.5821 22.6017 49.2264 22.2708C48.3401 21.5634 47.3691 20.9674 46.3353 20.4964L43.9859 19.3502C41.667 18.2104 40.0333 17.0814 39.0848 15.9632C38.1186 14.8044 37.6126 13.3349 37.6621 11.8316C37.6823 10.0337 38.3488 8.30209 39.5417 6.94871C40.8077 5.43333 42.7416 4.6778 45.3434 4.68212C46.6436 4.67804 47.9363 4.87691 49.1742 5.27143C49.8653 5.52204 50.5742 5.72119 51.2952 5.86722C51.4501 5.88531 51.6072 5.86456 51.752 5.80686C51.8968 5.74916 52.0247 5.65636 52.124 5.53695C52.2936 5.25519 52.419 4.94948 52.496 4.63031H53.5663V12.4015H52.5612C52.115 10.6716 51.2401 9.07995 50.0161 7.77115C49.4657 7.15041 48.7864 6.65532 48.0248 6.31994C47.2633 5.98457 46.4375 5.81686 45.6044 5.82837C44.5441 5.7706 43.5034 6.1288 42.7068 6.82566C42.3676 7.12495 42.0975 7.49341 41.9151 7.90584C41.7326 8.31826 41.642 8.76493 41.6496 9.21529C41.6133 9.68374 41.6843 10.1543 41.8572 10.5916C42.0301 11.029 42.3005 11.4219 42.6481 11.7409C44.0148 12.7269 45.4826 13.567 47.0271 14.2471L49.7354 15.5423C50.7971 16.0264 51.7698 16.683 52.6135 17.4851C53.2652 18.1272 53.7788 18.894 54.1231 19.7388C54.4675 20.5837 54.6355 21.4892 54.617 22.4003C54.5748 24.3135 53.8028 26.1395 52.4568 27.5099C51.0298 29.103 48.7348 29.8995 45.5718 29.8995C44.0675 29.9101 42.5734 29.6535 41.1601 29.1418L40.4618 28.8504C40.3049 28.808 40.1459 28.7734 39.9854 28.7468C39.8592 28.7165 39.7302 28.6992 39.6004 28.695C39.4531 28.6779 39.304 28.6994 39.1677 28.7574C39.0314 28.8153 38.9129 28.9077 38.8238 29.0253C38.6565 29.3074 38.5333 29.6131 38.4583 29.9319H37.4141V21.0922ZM64.6084 26.8623C64.9764 26.5738 65.3132 26.2483 65.6134 25.8909V20.6713C64.7084 20.8808 63.85 21.254 63.0813 21.7722C62.5214 22.1115 62.0579 22.5869 61.7347 23.1535C61.4115 23.7201 61.2393 24.3591 61.2344 25.0102C61.1901 25.6474 61.3777 26.2794 61.763 26.7911C61.9106 26.9703 62.0955 27.1157 62.305 27.2174C62.5145 27.3192 62.7437 27.3747 62.9769 27.3804C63.5621 27.3824 64.1331 27.2011 64.6084 26.8623ZM58.3564 22.2773C60.6718 21.0316 63.1334 20.0746 65.6852 19.4279V16.8375C65.7561 16.0009 65.512 15.168 65 14.4997C64.5562 13.9881 63.76 13.7355 62.6114 13.729C62.0547 13.7073 61.5024 13.8348 61.0125 14.0982C60.8366 14.1746 60.6854 14.298 60.576 14.4547C60.4665 14.6113 60.403 14.795 60.3926 14.9854C60.3888 15.1059 60.4134 15.2256 60.4644 15.3351C60.5195 15.4436 60.5898 15.5439 60.6732 15.633L60.8885 15.8791C61.0528 16.0718 61.183 16.2908 61.2736 16.5267C61.3786 16.7633 61.432 17.0193 61.4302 17.2779C61.4479 17.5711 61.3983 17.8644 61.2853 18.1358C61.1723 18.4073 60.9987 18.6498 60.7776 18.8451C60.3378 19.2063 59.7822 19.3993 59.2113 19.389C58.5631 19.4049 57.9307 19.1888 57.4297 18.7803C57.1844 18.5591 56.9924 18.2858 56.8681 17.9809C56.7438 17.6759 56.6904 17.3471 56.7118 17.0188C56.7135 16.3541 56.8963 15.7021 57.241 15.1321C57.5857 14.562 58.0793 14.0951 58.6697 13.7808C60.1109 12.939 61.762 12.5171 63.4337 12.5634C65.2038 12.506 66.9584 12.9077 68.5241 13.729C69.8815 14.5256 70.5602 15.9762 70.5602 18.0938V26.7392C70.558 26.9698 70.6263 27.1956 70.756 27.3868C70.8063 27.4627 70.8738 27.5256 70.9532 27.5706C71.0326 27.6156 71.1215 27.6414 71.2129 27.6459C71.3406 27.6498 71.4677 27.6255 71.5848 27.5746C71.7785 27.4551 71.9543 27.309 72.1069 27.1408L72.6551 27.892C72.0339 28.6481 71.2303 29.2362 70.3188 29.6016C69.7732 29.8097 69.1934 29.9151 68.6089 29.9125C68.1743 29.95 67.7368 29.8864 67.3312 29.7267C66.9256 29.5671 66.5632 29.3158 66.2726 28.9929C65.9467 28.5305 65.7364 27.9977 65.6591 27.4387C64.7174 28.3914 63.561 29.1084 62.2851 29.5304C61.5612 29.7807 60.8003 29.9098 60.0336 29.9125C59.0486 29.9102 58.0903 29.5947 57.2992 29.0123C56.8572 28.6703 56.507 28.2255 56.2793 27.7172C56.0517 27.2089 55.9537 26.6529 55.994 26.0981C55.9949 25.3071 56.2159 24.5317 56.6328 23.8575C57.0497 23.1833 57.6462 22.6364 58.3564 22.2773ZM74.254 28.0474C73.8372 28.3618 73.3346 28.5446 72.8117 28.5719V29.4268H81.4327V28.5719C80.9579 28.5171 80.5069 28.3359 80.1275 28.0474C79.8301 27.6081 79.7048 27.0761 79.7751 26.5514V16.9929C80.1013 16.4877 80.5041 16.0356 80.9694 15.6524C81.4405 15.2242 82.0535 14.9822 82.6923 14.9724C83.0539 14.9436 83.4148 15.0357 83.7176 15.234C84.0204 15.4324 84.2476 15.7256 84.363 16.0669C84.5521 16.6588 84.6339 17.2793 84.6044 17.8996V26.5514C84.6761 27.0752 84.5531 27.607 84.2585 28.0474C83.8783 28.3345 83.4277 28.5156 82.9533 28.5719V29.4268H91.4372V28.5719C90.9399 28.5441 90.4595 28.383 90.0472 28.1057C89.7126 27.6601 89.5674 27.1021 89.6426 26.5514V17.9449C89.6426 15.9546 89.2075 14.5644 88.3373 13.7744C87.3414 12.9317 86.0542 12.5067 84.748 12.5893C83.7014 12.58 82.6753 12.8774 81.7982 13.4441C80.9277 13.993 80.1847 14.7192 79.6185 15.5747V12.9843H72.8117V13.8521C73.3699 13.8595 73.9087 14.056 74.3389 14.409C74.6456 14.8476 74.7844 15.3803 74.7304 15.9114V26.409C74.7663 26.6998 74.7426 26.9949 74.6607 27.2764C74.5788 27.558 74.4405 27.8202 74.254 28.0474ZM94.1129 15.0242C94.8442 14.2161 95.7432 13.5747 96.7481 13.1443C97.7531 12.7139 98.84 12.5047 99.9342 12.531C101.036 12.4999 102.131 12.712 103.14 13.1522C104.149 13.5923 105.047 14.2495 105.769 15.076C107.29 16.7722 108.106 18.9777 108.053 21.2476C108.098 23.5066 107.296 25.7017 105.801 27.4063C105.081 28.2477 104.179 28.9175 103.162 29.3659C102.145 29.8144 101.04 30.0299 99.9277 29.9967C98.8334 30.0234 97.7463 29.8144 96.7413 29.3839C95.7364 28.9535 94.8374 28.3119 94.1064 27.5034C92.56 25.7979 91.735 23.5668 91.8027 21.2735C91.7249 18.9716 92.5535 16.7301 94.1129 15.0242ZM97.4869 26.4996C97.8959 28.0496 98.7117 28.8224 99.9342 28.818C100.466 28.8392 100.988 28.6716 101.407 28.3452C101.826 28.0188 102.113 27.555 102.218 27.0371C102.654 25.1392 102.836 23.1927 102.76 21.2476C102.844 19.3066 102.649 17.3637 102.179 15.4776C102.083 14.9633 101.806 14.4998 101.397 14.1699C100.988 13.8401 100.474 13.6654 99.9473 13.6772C98.7334 13.6772 97.9198 14.4522 97.5065 16.0021C97.1763 17.7304 97.0406 19.4897 97.1019 21.2476C97.0406 23.0069 97.1697 24.7677 97.4869 26.4996ZM115.93 13.8521V12.9843H106.95V13.8521C107.313 13.8602 107.666 13.9702 107.968 14.1694C108.286 14.523 108.548 14.9227 108.744 15.3545C109.053 15.9471 109.336 16.5774 109.624 17.2206L109.639 17.252C109.932 17.906 110.232 18.6054 110.533 19.3502L114.859 29.9319H115.754L121.555 15.7884C121.741 15.2413 122.047 14.7416 122.449 14.3248C122.775 14.0393 123.19 13.8725 123.624 13.8521V12.9843H118.175V13.8521C118.678 13.8423 119.179 13.919 119.656 14.0787C119.995 14.2083 120.165 14.5256 120.165 15.0242C120.152 15.2656 120.11 15.5047 120.041 15.7366C119.971 16.0392 119.878 16.3359 119.761 16.6238L117.333 22.7306H117.052L114.344 15.8791L114.329 15.8401C114.283 15.7236 114.217 15.5553 114.135 15.3351C114.069 15.1668 114.028 14.9902 114.011 14.8105C113.993 14.6512 114.031 14.4906 114.118 14.3552C114.204 14.2199 114.335 14.1178 114.487 14.0658C114.956 13.9268 115.441 13.8549 115.93 13.8521ZM125.406 14.8494C126.082 14.119 126.906 13.5381 127.823 13.1442C128.741 12.7504 129.731 12.5525 130.731 12.5634C131.907 12.5625 133.061 12.8829 134.066 13.4894C135.105 14.1023 135.942 15.0024 136.474 16.0798C136.951 17.0902 137.249 18.1746 137.355 19.2854C137.426 19.7529 137.468 20.2245 137.479 20.6972H128.303C128.353 21.9639 128.59 23.2164 129.008 24.4144C129.706 26.3572 130.966 27.3609 132.715 27.3609C133.573 27.3462 134.404 27.0629 135.09 26.5514C135.714 26.0828 136.287 25.551 136.8 24.9648L137.622 25.47C136.735 27.0693 135.403 28.382 133.785 29.2519C132.76 29.7084 131.645 29.9298 130.522 29.8995C128.659 29.8638 126.88 29.1224 125.549 27.8272C124 26.4414 123.226 24.2309 123.226 21.1958C123.213 18.4802 123.939 16.3648 125.406 14.8494ZM133.048 19.3826C133.102 17.8945 132.938 16.4066 132.558 14.966C132.442 14.582 132.198 14.2486 131.866 14.0203C131.534 13.792 131.134 13.6825 130.731 13.7096C130.287 13.6953 129.852 13.8311 129.496 14.0947C129.14 14.3582 128.885 14.734 128.773 15.1602C128.375 16.5322 128.181 17.9548 128.199 19.3826H133.048ZM139.006 27.9826C138.626 28.2826 138.178 28.485 137.701 28.5719V29.4268H146.25V28.5719C145.749 28.4851 145.278 28.2759 144.88 27.9632C144.56 27.5111 144.422 26.9566 144.494 26.409V5.29086H137.675V6.16512C138.173 6.24056 138.644 6.43872 139.045 6.74148C139.347 7.17179 139.477 7.6979 139.411 8.218V26.409C139.481 26.9654 139.337 27.5278 139.006 27.9826ZM29.9809 29.3879V5.27791L5.85391 29.3879H29.9809Z" fill="#0D3BC0"/>
</g>
<defs>
<clipPath id="clip0">
<rect width="146.25" height="30" fill="white"/>
</clipPath>
</defs>
</svg>
