<svg xmlns="http://www.w3.org/2000/svg" width="480.924" height="434.865" viewBox="0 0 480.924 434.865">
  <g id="Group_22" data-name="Group 22" transform="translate(-1363 -283.334)">
    <g id="Serince_Logo" data-name="Serince Logo" transform="translate(1363.004 283.334)">
      <g id="Group_20" data-name="Group 20" transform="translate(-0.004)">
        <path id="Path_36" data-name="Path 36" d="M115.979,15.675S170.46,71.84,181.452,78.6s16.488,3.381,27.912-4.23C220.774,66.761,244.626,28,244.626,28l32,57.245s3.952,11.208-6.237,12.212c-8.414.834-20.873-4.06-33.98-10.822s-39.244,1.266-39.244,17.754c0,11.594,12.273,22.957,27.326,20.8a1.041,1.041,0,0,1,.9,1.76c-10.822,10.915-50.051,8.182-43.52-36.944-10.066-9.217-16.488-18-52.011-16.612,0,0-16.92,25.7-22.4,3.844L102.81,35.035,115.979,15.66Z" transform="translate(55.917 8.516)" fill="#2d8a46"/>
        <path id="Path_37" data-name="Path 37" d="M365.534,0c-40.371,0-65.01,36.511-65.01,36.511,6.469,40.047,32,57.245,32,57.245,72.961,6.9,83.845,83.12,55.176,130.685-28.684,47.55-78.411,75.509-109.982,93.293-31.587,17.785-34.227,39.923-34.227,39.923s-14.049-9.8-57.616-38.472c-43.567-28.684-73.332-62.077-90.746-94.019-17.43-31.942-18.155-82.039,8.352-109.627,26.492-27.588,59.9-29.765,59.9-29.765s-1.451-5.079,4.724-25.766,3.8-35.8,3.8-35.8S159.588,3.674,121.27,3.674,31.9,34.35,13.82,79.615c-61.1,153.07,97.168,229.227,147.806,257.294,50.637,28.051,70.476,55.423,70.476,55.423v5c.216,9.479,2.5,37.53,11.779,37.53,12.227,0,11.486-49.372,11.486-49.372s20.533-14.373,75.277-45.157c54.744-30.8,150.276-97.168,150.276-192.284S405.92,0,365.534,0Z" transform="translate(0.004 0)" fill="#e0292e"/>
      </g>
      <g id="Group_21" data-name="Group 21" transform="translate(111.943 147.573)">
        <path id="Path_38" data-name="Path 38" d="M111.369,114.868l.571-2.733.077-.509c.648-2.81.509-4.678-.432-5.542-.926-.942-3.242-1.513-6.9-1.729a22.884,22.884,0,0,0-7.04.432c-5.82,1.158-10.2,3.674-13.231,7.472a17.878,17.878,0,0,0-1.22,1.791c-3.088,4.894-3.026,8.769.139,14.527a2.949,2.949,0,0,1,.432.726l1.652,2.594,1.575,2.733,1.945,3.458a16.473,16.473,0,0,1,.726,2.084c.865,3.242-.355,4.894-3.736,4.894a5.647,5.647,0,0,1-1.22-.139,1.988,1.988,0,0,0,.216-.865c.293-1.945.293-3.026-.077-3.381-.293-.355-1.374-.648-3.165-.726l-2.516-.139h-.293c-1.652.077-2.81.355-3.381.942-.571.509-1.081,1.868-1.575,4.029l-.571,2.439-.216,1.158-.355,2.084c-.139.865-.216,1.374-.216,1.436-.293,3.813.726,5.11,3.89,5.6.787.077,1.652.216,2.516.355l.432.077a32.469,32.469,0,0,0,7.549,0c4.246-.509,7.549-1.652,9.989-3.6a15.664,15.664,0,0,0,5.681-10.066,18.93,18.93,0,0,0-.139-7.256,38.065,38.065,0,0,0-3.736-8.769,19.96,19.96,0,0,1-1-1.729,32.545,32.545,0,0,1-2.594-4.678c-.865-2.516.139-3.952,3.088-4.307a2.916,2.916,0,0,1,1.158,0c-.787,2.084.077,2.655,3.813,2.594,1-.077,2.007-.077,3.088-.077h.216a6.071,6.071,0,0,0,3.381-1.22,9.373,9.373,0,0,0,1.513-3.952Z" transform="translate(-72.509 -90.876)" fill="#fff"/>
        <path id="Path_39" data-name="Path 39" d="M104.76,120.723l-.432,1.575-.355,1.081a25.259,25.259,0,0,1-.926,2.594c-2.516-.571-4.384,1.081-5.249,5.6l-.216,1.158-.432,1.729c-.648,2.872.355,4.462,2.377,4.384l-.787,2.872-.726,2.733c-1.22,5.11-.787,7.41,1.575,10.2a9.03,9.03,0,0,0,2.949,2.377,11.561,11.561,0,0,0,4.307.432c1.868-.077,4.029-.077,6.469,0,4.323.077,6.469.139,6.546.139,3.381-.077,4.384-.942,5.326-4.462.216-1,.509-2.007.787-3.088,1.081-3.736-.216-4.817-5.465-4.523-2.655.139-5.033.139-7.117.077-.509,0-1.791-.077-2.377-.077l.216-.787.355-1.513.355-1.575.293-.865.293-.942.432-1.158c1.945-.077,3.3-.139,4.091-.077a15.121,15.121,0,0,1,1.868.077l2.223.077h.432l3.6.139c2.084.077,2.81-.509,3.736-3.3l.571-1.575.216-.726.648-2.377c1.158-4.029.293-4.74-4.894-4.817-1.436-.077-2.872-.077-4.246-.077l-4.6-.077.355-1.359.077-.139.432-1.945c.509-1.791.077-2.516-2.439-3.458l-2.594-1.081a23.243,23.243,0,0,1,5.681-.216l1.359.077h2.872l.648.077c2.084.077,3.242.139,3.6.216a17.725,17.725,0,0,0,2.3.077,9.888,9.888,0,0,0,4.029-.355c.509-.293,1-1.158,1.513-2.655l.865-2.655.216-.726.509-1.945.216-1.158c.355-2.949-.355-3.736-3.52-3.813-1.081,0-2.223,0-3.3-.077h-.509l-2.81-.077-2.733-.077h-2.377l-3.165-.077h-7.765c-2.81.077-4.6.293-5.249.787-.509.432-1.158,1.868-1.945,4.246l-.293.865a14.436,14.436,0,0,1-.432,1.575l-.216.648-.355,1.729c-.571,2.594-.139,3.165,2.949,3.52a2.8,2.8,0,0,0,.865.077l-.293,1.081-.355,1.575Z" transform="translate(-59.215 -90.694)" fill="#fff"/>
        <path id="Path_40" data-name="Path 40" d="M159.1,154.845l-1.575-3.165-.787-1.513-.865-1.575-.726-1.22-1.081-1.868-1.158-1.868-.648-1.158-.926-1.513-1-1.575a6.073,6.073,0,0,0,1.575-.942c5.465-3.381,8.121-6.191,9.927-10.575,3.736-9.124,1.158-17.106-6.623-21.212l-1.945-.865a25.094,25.094,0,0,0-10.637-1.359c-.509,0-1.158.077-2.007.139-1.791.216-3.165.355-4.091.571-1.359.293-2.655.726-4.029,1a13.516,13.516,0,0,0-4.307,1.436,6.023,6.023,0,0,0-1.575,2.872l-.726,2.007-.139.571-.293,1c-.216.942-.432,1.729-.509,2.3-.509,3.381.139,3.952,3.3,3.165l3.088-.648-6.608,24.454-.942,3.458a62.023,62.023,0,0,0-1.436,6.114c-.509,2.655.216,3.381,4.029,4.307.216,0,.648.139.865.139l.942.139,1.791.216h.571c2.439.077,3.736-.293,3.952-1.081l3.674-14.172,1.436,2.655.648,1.158,1.806,3.242.293.509,2.3,4.168,1.3,2.161.077.139.571,1.158.648,1.22a5.657,5.657,0,0,0,.726,1.22c.942,1.513,1.652,2.3,2.3,2.516s1.791-.077,3.3-.865a25.29,25.29,0,0,1,2.516-1.22c3.736-2.084,4.246-3.3,3.026-5.681ZM148.1,127.087a15.459,15.459,0,0,1-2.594,1.791,9.509,9.509,0,0,1-4.029,1.158v-.571c0-.216.293-1.081.787-2.733l.139-.509.571-2.223c.865-3.458,0-4.523-4.307-5.326-.139,0-.293,0-.355-.077l-1.575-.355-.926-.216-.942-.139,3.813-.787a16.994,16.994,0,0,1,6.978-.355,7.948,7.948,0,0,1,2.81,1.22c2.81,1.945,3.026,5.9-.355,9.139Z" transform="translate(-45.477 -90.806)" fill="#fff"/>
        <path id="Path_41" data-name="Path 41" d="M154.5,156.611a15.893,15.893,0,0,0,2.81.571c2.377.216,3.952.077,4.74-.509.787-.648,1.436-2.223,2.084-4.74l2.872-11.285,1.868-7.549,1.158-4.307,1.081-4.029,1.158-4.091,2.377-8.2c.865-2.594,1.081-4.307.648-5.172-.355-.942-1.729-1.652-4.091-2.161l-2.161-.355c-2.655-.293-4.462-.293-5.326.077a3.85,3.85,0,0,0-2.084,2.516l-.726,1.945-.216.726-.293.942-1.436,4.894-2.161,7.41-2.084,7.41-2.223,7.765-1.575,5.758-1.436,5.542a8.2,8.2,0,0,0-.432,2.3c-.077,2.3,1.081,3.381,5.465,4.6Z" transform="translate(-30.885 -90.703)" fill="#fff"/>
        <path id="Path_42" data-name="Path 42" d="M167.488,141.551l-1.3,5.388-.787,2.81-.077.293c-.726,2.516-.648,4.168.139,5.11.787.865,3.088,1.575,6.824,2.084,2.872.355,4.168-.293,4.817-2.655.077-.293.216-.571.293-.942l1-4.029,1.081-4.168.293-1.081.077-.509,1.081-4.678.942-4.678.077-.432.139-1,.648-4.168.139-1.22.355-2.223.509,3.026.293,1.729.432,2.949.509,3.088.571,3.458.509,2.733.726,4.462.293,1.729a18.49,18.49,0,0,0,1.22,5.326,4.794,4.794,0,0,0,2.594,2.007,8.457,8.457,0,0,0,1.374.509l.648.216a12.578,12.578,0,0,0,3.165.571,9.707,9.707,0,0,0,1.868.077c3.242-.216,4.091-.865,3.6-2.594l-.293-1.081-.077-.355c-.077-.509.787-3.165,2.439-8.121l2.377-8.2,1.436-5.249.787-2.949c.432-1.575,1.081-4.307,2.007-8.275l1.868-8.275c.865-3.952.355-5.249-2.872-6.191l-2.377-.726-1-.293c-2.655-.571-4.307-.139-4.956,1.22l-.077.139-1.513,5.465c-.865,3.165-1.359,5.249-1.575,6.191l-1.22,6.546-.648,3.242c-.077.726-.216,1.791-.293,3.242l-.216-1.652-.077-.432-.648-5.388v-.432a46.731,46.731,0,0,0-2.007-8.846,5.2,5.2,0,0,1-.355-1l-.432-1.22-.077-.139-.787-2.007a5.141,5.141,0,0,0-1.868-2.516,22.72,22.72,0,0,0-4.817-2.007c-.509-.139-1.22-.355-2.3-.571-3.674-.648-4.246-.509-4.817,1.3l-.293.787-.648,2.007-.865,2.655-.077.216-.509,1.868-1.436,5.542-1.513,5.542-.216.726-.432,1.791-.509,1.868L169,135.762l-.787,3.088-.726,2.733Z" transform="translate(-22.305 -90.743)" fill="#fff"/>
        <path id="Path_43" data-name="Path 43" d="M209.247,158.236a16.065,16.065,0,0,0,7.688-1.945c4.956-2.516,8.414-7.04,10.282-13.447l.216-.648.509-2.161c.571-2.516-.432-3.813-2.949-4.029l-2.223-.216h-.648c-3.381-.293-4.74.293-5.6,2.3l-.432,1.081a13.614,13.614,0,0,1-2.733,4.246,2.192,2.192,0,0,1-2.949-.571,3.482,3.482,0,0,1-.432-2.377c.077-1.158.355-3.381.865-6.762a57.547,57.547,0,0,1,2.377-8.491c.355-.787.726-1.729,1.22-2.733,2.3-4.6,3.813-5.975,5.326-5.758.865.216,1.3.648,1.3,1.436a4,4,0,0,1-.139,1.575l-.571,2.223v.077c.355,2.223,2.872,2.872,7.549,1.791,3.736-.787,5.249-3.165,5.326-9.417.216-6.546-4.307-10.575-11.579-10.282-6.546.293-12.366,3.813-17.322,10.637q-3.659,5.071-6.036,14.45a43.812,43.812,0,0,0-1.436,7.982c-1.081,13.74,4.091,20.78,12.443,21Z" transform="translate(-4.966 -90.955)" fill="#fff"/>
        <path id="Path_44" data-name="Path 44" d="M256.47,104.9c-1.081,0-2.223,0-3.3-.077h-.509l-2.81-.077-2.733-.077h-2.377l-3.165-.077h-7.765c-2.81.077-4.6.293-5.249.787-.509.432-1.158,1.868-1.945,4.246l-.293.865a14.432,14.432,0,0,1-.432,1.575l-.216.648-.355,1.729c-.571,2.594-.139,3.165,2.949,3.52a2.8,2.8,0,0,0,.865.077l-.293,1.081-.355,1.575-.432,1.575-.355,1.081a25.26,25.26,0,0,1-.926,2.594c-2.516-.571-4.384,1.081-5.249,5.6L221.3,132.7l-.432,1.729c-.648,2.871.355,4.462,2.378,4.384l-.787,2.871-.726,2.733c-1.22,5.11-.787,7.41,1.575,10.2A9.03,9.03,0,0,0,226.257,157a11.561,11.561,0,0,0,4.307.432c1.868-.077,4.029-.077,6.469,0,4.323.077,6.469.139,6.546.139,3.381-.077,4.384-.942,5.326-4.462.216-1,.509-2.007.787-3.088,1.081-3.736-.216-4.817-5.465-4.523-2.655.139-5.033.139-7.117.077-.509,0-1.791-.077-2.377-.077l.216-.787.355-1.513.355-1.575.293-.865.293-.942.432-1.158c1.945-.077,3.3-.139,4.091-.077a15.119,15.119,0,0,1,1.868.077l2.223.077h.432l3.6.139c2.084.077,2.81-.509,3.736-3.3L253.2,134l.216-.726.648-2.378c1.158-4.029.293-4.74-4.894-4.817C247.732,126,246.3,126,244.922,126l-4.6-.077.355-1.359.077-.139.432-1.945c.509-1.791.077-2.516-2.439-3.458l-2.594-1.081a23.244,23.244,0,0,1,5.681-.216l1.359.077h2.872l.648.077c2.084.077,3.242.139,3.6.216a17.722,17.722,0,0,0,2.3.077,9.889,9.889,0,0,0,4.029-.355c.509-.293,1-1.158,1.513-2.655l.865-2.655.216-.726.509-1.945.216-1.158c.355-2.949-.355-3.736-3.52-3.813Z" transform="translate(8.067 -90.694)" fill="#fff"/>
        <path id="Path_45" data-name="Path 45" d="M166.219,106.119a6.076,6.076,0,0,0,4.323-4.678,5.983,5.983,0,0,0,.124-2.733,3.7,3.7,0,0,0-2.64-2.779,5.4,5.4,0,0,0-4.384.278,6.249,6.249,0,0,0-3.257,4.678,4.663,4.663,0,0,0-.124,1.1C160.322,105.085,163.147,106.938,166.219,106.119Z" transform="translate(-24.788 -95.589)" fill="#fff"/>
        <path id="Path_46" data-name="Path 46" d="M112.778,173.316l-1.374-.139H111c-2.084-.185-2.933.17-3.458,1.42l-.262.664a8.491,8.491,0,0,1-1.683,2.625,1.354,1.354,0,0,1-1.822-.355,2.176,2.176,0,0,1-.262-1.467c.046-.71.216-2.084.54-4.168a35.226,35.226,0,0,1,1.467-5.234c.216-.494.448-1.065.756-1.683,1.42-2.841,2.347-3.69,3.288-3.551.525.139.8.4.8.9a2.4,2.4,0,0,1-.093.973l-.355,1.374v.046c.216,1.374,1.775,1.775,4.662,1.112,2.3-.494,3.242-1.945,3.288-5.82.139-4.045-2.655-6.515-7.148-6.345-4.045.17-7.627,2.347-10.7,6.561a26.262,26.262,0,0,0-3.721,8.923,27.549,27.549,0,0,0-.9,4.925c-.587,7.534,1.868,11.779,6.036,12.737l-.17.679-.6,2.3a.528.528,0,0,0,.509.664h1.606c1.621,0,2.393,1.436,1.173,2.486-.957.818-4.338.509-6.067.417a1.1,1.1,0,0,0-1.019.772l-.154.6a.572.572,0,0,0,.54.772,45.448,45.448,0,0,0,6.33.17,4.838,4.838,0,0,0,4.8-5.079c-.077-2.331-1.621-3.1-5.326-3.1l.124-.463a10.1,10.1,0,0,0,4.616-1.189c3.057-1.559,5.187-4.354,6.345-8.29l.139-.4.309-1.328c.355-1.559-.262-2.347-1.822-2.486Z" transform="translate(-60.101 -64.011)" fill="#fff"/>
        <path id="Path_47" data-name="Path 47" d="M124.97,155.587c-.216-.571-1.065-1.019-2.532-1.328l-1.328-.216a8.512,8.512,0,0,0-3.288.046,2.377,2.377,0,0,0-1.281,1.559l-.448,1.2-.139.448-.185.571-.88,3.01-1.328,4.57-1.281,4.57-1.374,4.786-.973,3.551-.88,3.412a4.814,4.814,0,0,0-.262,1.42c-.046,1.42.664,2.084,3.366,2.841a10.44,10.44,0,0,0,1.729.355,4.748,4.748,0,0,0,2.933-.309,5.844,5.844,0,0,0,1.281-2.933l1.775-6.963,1.158-4.662.71-2.655.664-2.486.71-2.532,1.467-5.064c.54-1.59.664-2.655.4-3.2Z" transform="translate(-52.779 -63.867)" fill="#fff"/>
        <path id="Path_48" data-name="Path 48" d="M138.131,165.41l.849-.139,1.59-.262c2.532-.4,3.242-1.251,3.057-3.86,0-.216-.139-.71-.139-.926-.88-4.431-4.4-6.839-9.942-6.438a13.543,13.543,0,0,0-4.662,1.374,13.75,13.75,0,0,0-5.542,5.11,29.2,29.2,0,0,0-2.748,6.175,22.98,22.98,0,0,0-.849,2.933c-1.2,5.28-1.065,9.448.448,12.428a8.681,8.681,0,0,0,7.148,5.017q5.581.6,9.85-4.662a16.323,16.323,0,0,0,1.513-2.347,14.519,14.519,0,0,0,1.513-4.431,2.132,2.132,0,0,0,2.347-1.868l.355-1.559.4-1.729c.309-1.374-.262-1.914-2.084-1.945-.571-.046-1.112-.046-1.636-.046l-.093-.046-.309.046-1.513.046c-.926.046-2.084.17-3.458.309h-.17l-1.281.262-.71.139c-1.467.355-1.775.664-2.084,1.775l-.355,1.559-.093.4-.262,1.2c-.355,1.775.046,2.439,1.467,2.393a1.247,1.247,0,0,0,.618-.17,3.035,3.035,0,0,1-.849,1.914c-1.374,1.374-2.748,1.281-3.335-.093a8.824,8.824,0,0,1-.448-3.01,19.628,19.628,0,0,1,1.065-6.206,16.576,16.576,0,0,1,.664-1.775c1.25-3.01,2.486-4.755,3.767-5.234,1.729-.571,2.624-.17,2.655.9a3.847,3.847,0,0,1-.046,1.019c-.309,1.729.448,2.223,3.288,1.822Z" transform="translate(-47.26 -63.964)" fill="#fff"/>
        <path id="Path_49" data-name="Path 49" d="M170.925,155.463l-1.513-.54-.216-.093a3.425,3.425,0,0,0-.71-.216c-1.281-.355-2.13-.448-2.486-.216a6.505,6.505,0,0,0-1.374,2.486,16.484,16.484,0,0,1-1.112,2.223,18.871,18.871,0,0,1-3.721,4.878,12.536,12.536,0,0,1-1.559,1.281c-1.112.849-1.945,1.112-2.625.88l.309-.8.355-1.112c.664-1.961,1.112-3.242,1.235-3.813a6.222,6.222,0,0,1,.216-.71l.355-1.25.494-1.683.093-.262c.17-.926-.309-1.467-1.914-2.038a4.95,4.95,0,0,0-.8-.216l-.4-.093-1.559-.216c-2.439-.355-3.149.046-3.721,2.3l-.17.71-.8,2.887-.88,3.242-.139.4-.525,2.177-.262,1.065-.571,2.13-.309,1.019-1.281,4.477-.309.973L144,179.238l-.4,1.636-.525,1.914c-.309,1.112-.4,1.775-.262,1.992a4.128,4.128,0,0,0,1.636.973,10.144,10.144,0,0,0,2.177.618l.093.046,1.729.309c.926.139,1.513.093,1.822-.216h.046l.54-1.868.093-.4.4-1.467a55.239,55.239,0,0,0,1.2-5.728c.494.8.9,1.467,1.158,1.992l.093.185,1.636,3.335.571,1.2,1.2,2.347c1.112,2.269,1.513,2.933,2.223,3.458.756.571,1.2.355,2.439-.17.4-.185.849-.355,1.25-.571l.17-.046.262-.185,1.065-.525c1.019-.571,1.559-1.25,1.559-1.992v-.046l-1.158-2.347-.355-.618-.849-1.683c-.216-.4-.54-1.019-1.019-1.868-1.467-2.7-2.439-4.4-2.887-5.017l-.494-.71h-.046l-.355-.8c.185,0,.54-.17.664-.17a15.043,15.043,0,0,0,6.3-4.354l1.2-1.281a24.574,24.574,0,0,0,2.794-4c1.636-2.98,2.532-4.878,2.624-5.774.139-.88-.448-1.559-1.636-1.945Z" transform="translate(-34.31 -63.913)" fill="#fff"/>
        <path id="Path_50" data-name="Path 50" d="M182.033,154.792l-.926.756-.494.448-1.914,1.59.093-1.729c.309-1.914.093-2.223-1.513-2.347a11.11,11.11,0,0,0-4.879,1.467,14.425,14.425,0,0,0-4.4,3.551,23.335,23.335,0,0,0-3.412,5.465c-.448,1.019-.756,1.868-.973,2.532-2.038,6.839-1.992,12.073.17,15.747a9.226,9.226,0,0,0,6.87,4.832c3.721.494,6.484-.571,10.035-4.261,2.3-2.347,4.076-5.774,5.373-10.158a36.122,36.122,0,0,0,.926-4.523,36.731,36.731,0,0,0,.309-4.477c-.046-3.767-.494-6.438-1.328-7.982-1.112-1.992-2.3-2.269-3.952-.88Zm-3.551,12.551a22.061,22.061,0,0,1-.664,3.767c-.926,3.149-2.177,5.465-3.721,6.839-1.2,1.065-2.624.618-3.335-1.019-.494-1.2-.494-3.01.046-5.419.88-4.076,2.887-7.364,4.971-8.784a6.513,6.513,0,0,1,1.42-.926,7.285,7.285,0,0,0,.4-.926,4.9,4.9,0,0,1,.216-.618l.093-.309a8.659,8.659,0,0,1,.664,3.149,8.2,8.2,0,0,1,.046,1.065l.046.448a23.978,23.978,0,0,1-.185,2.748Z" transform="translate(-23.774 -64.091)" fill="#fff"/>
        <path id="Path_51" data-name="Path 51" d="M200.829,154.406c-1.25-.093-2.486-.17-3.69-.309l-.8-.046-2.532-.046c-.448-.046-1.112-.046-1.961-.046h-1.158c-.571-.046-.973-.046-1.235-.046-2.347-.046-3.767.139-4.261.494a4.074,4.074,0,0,0-1.112,2.177l-.664,1.945c-.926,2.655-.757,3.01,1.158,3.057h.216l1.065.139-1.112,4.925c-.093.216-.355.355-.8.4a2.326,2.326,0,0,0-1.467.448,17.313,17.313,0,0,0-1.065,2.7,2.623,2.623,0,0,0-.17.525l-.4,1.606c-.494,1.729-.355,1.945,1.112,2.486a3.054,3.054,0,0,0,.355.093l-.093.4-.355,1.467c-.571,2.223-.88,3.458-.973,3.69a21.387,21.387,0,0,1-.8,2.223v.093c-.4,1.775,0,2.439,1.914,2.98.4.139.849.216,1.235.309l.494.139a6.384,6.384,0,0,0,.88.17c1.513.262,2.439,0,2.841-.8l.664-2.084.494-1.513.185-.618c.4-1.328.8-2.748,1.158-4.215l.262-1.2.216-.973,6.916.046c.71,0,.973-.309,1.636-2.038.139-.448.309-.88.494-1.374l.046-.093.093-.355.216-1.2c.262-1.281.262-2.038-.046-2.347a3.731,3.731,0,0,0-2.486-.448,18.547,18.547,0,0,1-2.269,0h-2.269a3.482,3.482,0,0,0,.262-.926,7.594,7.594,0,0,0,.139-2.655c-.139-.309-.71-.664-1.729-1.112l-1.59-.664c.525-.046,1.328-.046,2.439-.046,2.933,0,4.786.046,5.635.093l1.822.139h.139c1.42.046,1.961-.494,2.439-2.486.17-.664.4-1.59.54-1.945.71-2.439.4-2.933-2.038-3.1Z" transform="translate(-14.086 -63.875)" fill="#fff"/>
        <path id="Path_52" data-name="Path 52" d="M216.321,160.383l.525-1.775.046-.309.4-1.42c.571-2.084.17-2.578-2.439-2.624l-3.335-.139-3.458-.046h-1.683l-1.683-.046-2.223-.046h-1.112a15.092,15.092,0,0,0-4.122.139c-.494.139-.926.8-1.328,1.914a6.666,6.666,0,0,0-.494,1.729l-.185.8c-.571,2.486-.046,3.01,2.748,3.149.71.046,1.42.046,2.13.046h.046a14.4,14.4,0,0,1,1.992-.139c.494,0,.571.494.309,1.42l-.849,2.532c-.355,1.019-.664,2.084-.926,3.1l-.849,2.98-.046.17-.849,3.2-.571,2.3-.262.8c-.54,1.992-.926,3.335-1.2,4.076l-.216.756c-.54,2.084-.216,2.625,1.729,3.1.4.093.849.185,1.281.309l.355.093c.139,0,.4.046.54.046,2.887.309,3.813-.185,4.354-2.13l.664-2.393.093-.309.926-4.076.093-.262.8-2.748.355-1.42,1.065-3.906.093-.309c1.467-5.064,1.42-5.141-.525-6.16a7.069,7.069,0,0,1-.71-.309l-.448-.139-1.42-.525a12.513,12.513,0,0,1,2.223-.046c.757.046,1.513.046,2.269.046l2.3.093c2.532.185,3.2-.093,3.6-1.513Z" transform="translate(-5.881 -63.862)" fill="#fff"/>
        <path id="Path_53" data-name="Path 53" d="M229.721,154.125c-.664,0-1.374,0-2.038-.046h-.309l-1.729-.046-1.683-.046H222.5l-1.961-.046h-4.786c-1.729.046-2.841.17-3.242.494a7.63,7.63,0,0,0-1.2,2.625l-.17.525c-.046.216-.139.571-.262.973l-.139.4-.216,1.065c-.355,1.59-.093,1.945,1.822,2.177a1.8,1.8,0,0,0,.54.046l-.185.664-.216.973-.262.973-.216.664c-.093.309-.262.849-.571,1.606-1.559-.355-2.7.664-3.242,3.458l-.139.71-.262,1.065c-.4,1.775.216,2.748,1.467,2.7l-.494,1.775-.448,1.683c-.756,3.149-.494,4.57.973,6.3a5.463,5.463,0,0,0,1.822,1.467,7.234,7.234,0,0,0,2.655.262c1.158-.046,2.486-.046,4,0,2.655.046,4,.093,4.045.093,2.084-.046,2.7-.571,3.288-2.748.139-.618.309-1.235.494-1.914.664-2.3-.139-2.98-3.366-2.794-1.636.093-3.1.093-4.4.046-.309,0-1.112-.046-1.467-.046l.139-.494.216-.926.216-.973.185-.525.17-.571.262-.71c1.2-.046,2.038-.093,2.532-.046a9.685,9.685,0,0,1,1.158.046l1.374.046h.262l2.223.093c1.281.046,1.729-.309,2.3-2.038l.355-.973.139-.448.4-1.467c.71-2.486.185-2.933-3.01-2.98-.9-.046-1.775-.046-2.625-.046l-2.841-.046.216-.849.046-.093.262-1.2c.309-1.112.046-1.559-1.513-2.13l-1.59-.664a14.765,14.765,0,0,1,3.5-.139l.849.046h1.775l.4.046a22.132,22.132,0,0,1,2.223.139,11.238,11.238,0,0,0,1.42.046,6.153,6.153,0,0,0,2.486-.216,3.093,3.093,0,0,0,.926-1.636l.54-1.636.139-.448.309-1.2.139-.71c.216-1.822-.216-2.3-2.177-2.347Z" transform="translate(0.99 -63.856)" fill="#fff"/>
        <path id="Path_54" data-name="Path 54" d="M121.668,147.676a3.859,3.859,0,0,0-3.134.2,4.546,4.546,0,0,0-2.331,3.335,3.156,3.156,0,0,0,4.153,3.721,4.375,4.375,0,0,0,3.088-3.335,4.257,4.257,0,0,0,.093-1.945,2.63,2.63,0,0,0-1.883-1.976Z" transform="translate(-48.797 -67.395)" fill="#fff"/>
        <path id="Path_55" data-name="Path 55" d="M174.958,147.676a3.859,3.859,0,0,0-3.134.2,4.546,4.546,0,0,0-2.331,3.335,3.156,3.156,0,0,0,4.153,3.721,4.375,4.375,0,0,0,3.088-3.335,4.258,4.258,0,0,0,.093-1.945,2.63,2.63,0,0,0-1.883-1.976Z" transform="translate(-19.817 -67.395)" fill="#fff"/>
        <path id="Path_56" data-name="Path 56" d="M180.618,147.676a3.856,3.856,0,0,0-3.134.2,4.546,4.546,0,0,0-2.331,3.335,3.156,3.156,0,0,0,4.153,3.721,4.375,4.375,0,0,0,3.088-3.335,4.257,4.257,0,0,0,.093-1.945,2.605,2.605,0,0,0-1.883-1.976Z" transform="translate(-16.739 -67.395)" fill="#fff"/>
        <path id="Path_57" data-name="Path 57" d="M140.248,147.835h-2.115a1.368,1.368,0,0,0-1.065.54c-.509.633-1.868,2.331-5.743,1.93a3.786,3.786,0,0,1-2.578-1.837,1.174,1.174,0,0,0-1.034-.633h-2.053a1.182,1.182,0,0,0-.88.4,1.111,1.111,0,0,0-.262.926c.216,1.482,2.563,5.558,8.167,5.558a9.587,9.587,0,0,0,8.707-4.848,1.3,1.3,0,0,0,.031-1.359,1.351,1.351,0,0,0-1.173-.695Z" transform="translate(-44.235 -67.184)" fill="#fff"/>
      </g>
    </g>
  </g>
</svg>
