<svg width="358" height="48" viewBox="0 0 358 48" fill="none" xmlns="http://www.w3.org/2000/svg">
<g clip-path="url(#clip0_2784_5334)">
<path d="M26.1333 27.8602C26.1333 30.5084 23.9832 32.6586 21.335 32.6586C18.6867 32.6586 16.5366 30.5084 16.5366 27.8602C16.5366 25.212 18.6867 23.0619 21.335 23.0619C23.9832 23.0619 26.1333 25.212 26.1333 27.8602Z" fill="#96004B"/>
<path d="M38.5775 12.6932C39.9556 9.14007 38.6273 5.28812 35.6221 3.92665C35.564 3.90174 35.3482 3.80212 35.3482 3.80212C35.3482 3.80212 35.2652 4.03457 35.2403 4.08438L30.3091 16.7859C30.2759 16.8606 30.2012 17.0681 30.2012 17.0681C30.2012 17.0681 30.417 17.1428 30.4834 17.1594C33.6214 18.1888 37.1994 16.238 38.5775 12.6849" fill="#96004B"/>
<path d="M27.8353 5.03058C25.6769 0.572603 20.4552 -1.15413 16.6115 0.788445C16.5368 0.829953 16.3459 0.929573 16.3459 0.929573L20.754 8.82442H0.863343C0.863343 8.82442 0.863343 9.04856 0.871644 9.13988C0.971264 10.7587 1.75162 12.2364 3.14629 13.1081C1.74332 13.9797 0.971264 15.4574 0.863343 17.0762C0.863343 17.1676 0.855041 17.4 0.855041 17.4H9.26459C0.365245 21.4097 -0.0166294 34.4681 -2.61845e-05 39.8725H6.73259C7.08126 34.2772 7.66238 17.1426 24.855 16.8272C27.1878 16.7857 29.1636 13.9299 29.1636 10.0614C29.1636 8.62518 28.7651 6.94825 27.827 5.02227" fill="#96004B"/>
<path d="M36.2365 39.8727H41.5329C41.5329 39.8727 41.5329 39.6319 41.5246 39.5489C41.425 37.9301 40.6447 36.4524 39.2417 35.5808C40.6447 34.7091 41.4167 33.2314 41.5163 31.6126C41.5163 31.5213 41.5246 31.2971 41.5246 31.2971H29.7612V48H36.2199V39.8727H36.2365Z" fill="#96004B"/>
<path d="M322.651 26.7229C323.498 26.1999 323.963 25.3116 324.021 24.3321C324.021 24.2822 324.021 24.1411 324.021 24.1411H317.886V29.3047H324.021C324.021 29.3047 324.021 29.1636 324.021 29.1055C323.963 28.1259 323.489 27.2376 322.651 26.7146V26.7229Z" fill="#96004B"/>
<path d="M238.838 12.7928C240.938 12.7928 242.74 10.9913 242.74 8.891C242.74 6.79069 240.938 5.20508 238.838 5.20508C236.737 5.20508 235.069 6.78239 235.069 8.891C235.069 10.9996 236.737 12.7928 238.838 12.7928Z" fill="#96004B"/>
<path d="M228.187 12.7928C230.287 12.7928 232.047 10.9913 232.047 8.891C232.047 6.79069 230.296 5.20508 228.187 5.20508C226.078 5.20508 224.368 6.78239 224.368 8.891C224.368 10.9996 226.078 12.7928 228.187 12.7928Z" fill="#96004B"/>
<path d="M240.116 14.6026H237.335V28.6157C237.335 31.5379 236.032 33.1567 233.641 33.1567C230.86 33.1567 229.772 31.762 229.772 28.4912V19.2681C229.772 16.9104 228.511 14.4282 225.032 14.4282C223.156 14.4282 221.38 15.3497 220.093 16.9104C221.687 17.9315 221.512 20.8869 221.512 20.8869V28.2753C221.512 35.9958 225.464 39.881 233.417 39.881C240.938 39.881 245.587 35.4313 245.587 28.4912V19.4922C245.587 16.2214 243.761 14.6026 240.108 14.6026H240.116Z" fill="#96004B"/>
<path d="M272.418 33.2231V26.0671C272.418 18.3217 268.466 14.4199 260.513 14.4199C252.992 14.4199 248.343 18.8862 248.343 25.843V34.7838C248.343 38.063 250.17 39.6901 253.822 39.6901H256.603V25.7101C256.603 22.7797 257.907 21.1608 260.298 21.1608C263.079 21.1608 264.166 22.5638 264.166 25.843V34.9332C264.166 37.2992 265.428 39.8727 268.906 39.8727C270.783 39.8727 272.559 38.8682 273.846 37.2992C272.252 36.2698 272.426 33.2148 272.426 33.2148L272.418 33.2231Z" fill="#96004B"/>
<path d="M310.074 14.4282C303.233 14.4282 300.627 17.9149 300.627 20.8952C300.627 22.9872 300.826 23.56 300.826 23.56C302.868 21.825 305.74 21.2273 305.74 21.2273C306.488 21.0529 307.309 20.9284 308.198 20.8869C311.46 20.7624 312.988 21.1608 312.988 23.1366V24.1411H311.809C303.101 24.1411 299.265 26.8558 299.265 32.202C299.265 37.5483 304.885 39.8644 309.501 39.8644C318.209 39.8644 320.999 37.3656 320.999 28.6074V24.88C320.999 17.7821 316.69 14.4116 310.066 14.4116L310.074 14.4282ZM313.17 31.1228C313.17 33.3144 311.867 34.0616 310.381 34.0616C308.073 34.0616 307.118 33.2729 307.118 31.7371C307.118 30.1183 308.38 29.3296 311.518 29.3296H313.17V31.1228Z" fill="#96004B"/>
<path d="M338.964 24.5727C333.966 23.7011 333.526 23.3856 333.451 22.4724C333.26 20.1314 336.382 20.2476 337.901 20.4302C340.259 20.7042 342.567 21.6008 344.493 23.0037C344.825 21.1442 344.808 15.0591 336.664 14.4614C331.193 14.0629 325.706 17.2922 325.656 23.0618C325.623 26.9055 327.906 28.6986 332.173 29.5454C337.179 30.5416 337.776 31.1476 337.652 32.2268C337.536 33.3226 336.423 33.7543 333.592 33.4472C330.172 33.223 326.179 30.525 326.146 30.5001L326.121 32.8993C326.088 36.3943 328.412 39.8145 334.946 39.8726C341.521 39.9307 345.555 36.6931 345.605 31.5378C345.638 27.47 342.965 25.2618 338.964 24.5727Z" fill="#96004B"/>
<path d="M294.484 14.6025H290.516C289.993 19.2597 287.95 26.4074 286.165 30.0269C285.086 27.5364 283.351 23.037 282.463 19.6416C282.463 19.6416 281.5 15.1753 278.013 14.5444C274.809 14.0048 273.348 15.3662 272.783 16.1632C272.559 16.4704 272.484 16.6862 272.484 16.6862C273.514 16.7194 275.182 21.966 275.182 21.966C275.963 24.166 276.668 26.3991 277.573 28.5492C278.893 31.7038 280.363 34.8502 282.255 37.7142C281.126 40.8024 277.166 41.5911 274.585 39.9142C274.535 40.0968 273.339 44.7374 275.855 46.2317C278.37 47.726 281.583 47.5849 284.065 46.0906C286.19 44.8121 287.552 42.6454 288.789 40.5534C292.226 34.7588 295.563 27.9598 297.339 21.4264C297.672 20.2061 298.028 18.911 298.028 17.6409C298.028 15.7232 296.899 14.5942 294.5 14.5942L294.484 14.6025Z" fill="#96004B"/>
<path d="M356.53 33.4472C356.547 29.5455 356.547 24.2158 356.547 20.3141C356.547 15.9557 355.019 14.6108 350.321 14.6108H348.27V35.0577C348.27 37.4071 349.532 39.881 353.01 39.881C354.886 39.881 356.663 38.9678 357.95 37.4071C356.356 36.386 356.53 33.4472 356.53 33.4472Z" fill="#96004B"/>
<path d="M207.084 9.25628C203.514 8.37631 199.521 8.48423 195.91 9.05704C195.761 9.08195 194.765 9.23968 193.743 9.44722C193.743 9.44722 193.735 9.44722 193.727 9.44722C193.727 9.44722 193.71 9.44722 193.702 9.44722C191.701 9.8457 191.353 10.1113 191.353 10.1113V10.4683V32.534C191.353 36.1452 193.652 38.6191 197.056 39.4493C199.264 39.9889 201.555 39.8561 203.805 39.8561C212.43 39.8561 218.349 33.057 218.349 23.8505C218.349 15.4161 213.036 10.6842 207.076 9.24798L207.084 9.25628ZM202.726 33.1567H201.373C200.285 33.1567 199.629 32.2352 199.629 31.1809V15.6568C202.319 15.2667 205.166 15.5572 207.366 17.284C209.483 18.9526 210.089 21.9412 210.089 24.5147C210.089 29.6866 207.516 33.1567 202.726 33.1567Z" fill="#96004B"/>
<path d="M87.0343 14.4282C80.1938 14.4282 77.5871 17.9149 77.5871 20.8952C77.5871 22.9872 77.7863 23.56 77.7863 23.56C79.787 21.8665 82.568 20.9948 85.1581 20.8952C88.4207 20.7707 89.9482 21.1691 89.9482 23.1449V24.1494H88.7693C80.0609 24.1494 76.2256 26.8641 76.2256 32.2103C76.2256 37.5566 81.8458 39.8727 86.4615 39.8727C95.1699 39.8727 97.9592 37.3739 97.9592 28.6157V24.8883C97.9592 17.7904 93.6507 14.4199 87.026 14.4199L87.0343 14.4282ZM90.1308 31.1228C90.1308 33.3144 88.8275 34.0616 87.3415 34.0616C85.0336 34.0616 84.0789 33.2729 84.0789 31.7371C84.0789 30.1183 85.3408 29.3296 88.4788 29.3296H90.1308V31.1228Z" fill="#96004B"/>
<path d="M145.046 14.6026H142.265V28.6157C142.265 31.5379 140.962 33.1567 138.571 33.1567C135.79 33.1567 134.702 31.762 134.702 28.4912V19.2681C134.702 16.9104 133.44 14.4282 129.962 14.4282C128.086 14.4282 126.309 15.3497 125.022 16.9104C126.616 17.9315 126.442 20.8869 126.442 20.8869V28.2753C126.442 35.9958 130.394 39.881 138.347 39.881C145.868 39.881 150.517 35.4313 150.517 28.4912V19.4922C150.517 16.2214 148.69 14.6026 145.038 14.6026H145.046Z" fill="#96004B"/>
<path d="M120.606 14.6108H116.588C115.708 20.0567 113.45 27.5282 111.906 30.4088C111.2 29.0889 110.054 26.1252 109.108 23.1947C108.735 22.0574 108.386 20.945 108.12 19.9239C108.12 19.9239 107.107 15.2252 103.438 14.561C100.059 13.9882 98.5235 15.4244 97.9341 16.2629C97.7017 16.5783 97.6187 16.8191 97.6187 16.8191C98.6979 16.8523 100.458 22.3729 100.458 22.3729C100.557 22.6468 101.363 25.2286 101.736 26.2497C102.508 28.3666 103.38 30.5334 104.384 32.5507C105.024 33.8457 105.721 35.1159 106.493 36.3362C107.896 38.5361 109.216 39.8644 111.964 39.881C113.5 39.881 114.952 39.1172 115.816 37.8388C116.638 36.6268 117.46 35.1657 118.24 33.6216C121.137 27.4784 123.163 21.0612 123.287 17.6575C123.32 16.7361 123.536 14.5444 120.606 14.6108Z" fill="#96004B"/>
<path d="M174.509 33.0238C172.857 31.1061 171.105 28.4745 169.71 26.3742C173.986 20.8951 178.319 14.6025 178.319 14.6025H172.525C170.001 14.6025 169.478 15.084 168.432 16.2213C166.082 18.7533 164.082 21.9162 162.123 24.8467V11.7135C162.123 9.36415 160.861 6.87366 157.382 6.87366C155.506 6.87366 153.73 7.78684 152.443 9.35584C154.037 10.3769 153.862 13.324 153.862 13.324L153.846 34.8086C153.846 37.6893 155.805 39.6983 158.852 39.6983H162.123V28.9062C164.389 32.3513 166.788 35.0826 169.486 38.2206C170.491 39.3994 172.533 39.8809 173.753 39.8809C176.717 39.8809 178.502 38.3949 178.809 35.7301C176.982 35.2901 176.285 35.0743 174.5 33.0238H174.509Z" fill="#96004B"/>
<path d="M69.5013 8.81628H52.0928C52.0928 8.81628 52.0928 9.00722 52.0928 9.08194C52.1758 10.3936 52.7984 11.589 53.9357 12.2947C52.7984 13.0003 52.1758 14.1957 52.0928 15.5074C52.0928 15.5821 52.0845 15.7564 52.0845 15.7564H60.7929L60.7597 35.0577C60.7597 37.4071 62.0215 39.881 65.4999 39.881C67.3761 39.881 69.1526 38.9678 70.4394 37.4071C70.348 37.349 70.265 37.2826 70.182 37.2161C68.9451 36.0622 69.1194 34.0034 69.1028 32.4676C69.1028 32.2103 69.0696 15.7564 69.0696 15.7564H73.4695C75.9267 15.7564 78.1267 13.6893 78.1267 11.7136V8.81628H69.493H69.5013Z" fill="#96004B"/>
</g>
<defs>
<clipPath id="clip0_2784_5334">
<rect width="357.958" height="48" fill="white"/>
</clipPath>
</defs>
</svg>
