<svg width="133" height="48" viewBox="0 0 133 48" fill="none" xmlns="http://www.w3.org/2000/svg">
<title>wittweiden / Header / brand_wittweiden</title>
<path d="M120.815 29.0234V21.4377H132.283V12.9371H120.815V5.80469H110.873V29.2906C110.873 35.1763 112.341 39.7666 115.278 43.0616C118.214 46.3565 122.291 48 127.508 48C128.435 48 129.288 47.9433 130.06 47.8381C130.831 47.7328 131.618 47.5466 132.414 47.2795V38.3174C131.971 38.4874 131.495 38.6251 130.986 38.706C130.478 38.7951 129.936 38.8356 129.362 38.8356C126.532 38.8356 124.399 38.0098 122.964 36.3501C121.528 34.6905 120.815 32.2537 120.815 29.0234ZM97.0914 36.3501C98.527 38.0098 100.66 38.8356 103.49 38.8356C104.064 38.8356 104.605 38.7951 105.114 38.706C105.623 38.617 106.098 38.4874 106.541 38.3174V47.2795C105.746 47.5385 104.958 47.7247 104.187 47.8381C103.416 47.9514 102.563 48 101.636 48C96.4188 48 92.35 46.3565 89.4051 43.0616C86.4684 39.7666 85.0001 35.1763 85.0001 29.2906V5.80469H94.9422V12.9371H106.41V21.4377H94.9422V29.0234C94.9422 32.2537 95.6641 34.6905 97.0996 36.3501M77.8224 1.27914C78.8068 2.13729 79.299 3.2869 79.299 4.72795C79.299 5.44847 79.1759 6.08804 78.9216 6.65475C78.6673 7.22145 78.3146 7.69911 77.8634 8.11199C77.4041 8.51678 76.8627 8.83252 76.2228 9.0592C75.583 9.28588 74.8939 9.39922 74.1639 9.39922C72.7037 9.39922 71.4815 8.98634 70.4971 8.15247C69.5127 7.31861 69.0287 6.18519 69.0287 4.73604C69.0287 4.01552 69.1518 3.35976 69.4061 2.77686C69.6522 2.19396 70.0131 1.70012 70.4643 1.28723C70.9237 0.882442 71.4651 0.566706 72.1049 0.340024C72.7447 0.113341 73.4256 0 74.1557 0C75.6158 0 76.8381 0.429078 77.8224 1.28723M69.1928 46.8261H79.1349V12.9452H69.1928V46.8261ZM34.9532 45.547C32.238 43.9116 30.1873 41.4991 28.8256 38.3174H34.5923C33.8376 39.888 32.9271 41.2724 31.8443 42.4706C30.7615 43.6687 29.531 44.6888 28.1693 45.5146C26.7994 46.3485 25.2736 46.9637 23.6002 47.3766C21.9186 47.7895 20.1057 48 18.1616 48C15.2905 48 12.7229 47.5547 10.4753 46.6561C8.22767 45.7575 6.31636 44.454 4.77418 42.7296C3.2238 41.0052 2.04256 38.8922 1.23046 36.3825C0.410153 33.8728 0 31.0069 0 27.7848V5.80469H10.3441V27.9143C10.3441 29.6144 10.5081 31.0879 10.8444 32.3265C11.1726 33.5652 11.673 34.6014 12.3374 35.4353C13.0019 36.2611 13.8386 36.8845 14.8557 37.2974C15.8729 37.7102 17.046 37.9207 18.3667 37.9207C19.6873 37.9207 20.9424 37.7021 21.976 37.265C23.0178 36.8278 23.8627 36.1882 24.5271 35.3301C25.1916 34.48 25.6838 33.4033 26.0201 32.0918C26.3482 30.7802 26.5205 29.2582 26.5205 27.5095V5.79659H36.6595V27.5095C36.6595 29.2582 36.8235 30.7802 37.1599 32.0918C37.4962 33.4033 37.9884 34.4881 38.6528 35.3625C39.3173 36.2368 40.154 36.8764 41.1712 37.2893C42.1883 37.7021 43.3778 37.9126 44.7477 37.9126C46.1176 37.9126 47.307 37.7102 48.3242 37.2893C49.3414 36.8764 50.1863 36.253 50.8754 35.4272C51.5562 34.6015 52.0648 33.549 52.4011 32.286C52.7375 31.0231 52.9015 29.5578 52.9015 27.9062V5.79659H63.18V27.7767C63.18 31.0069 62.7698 33.8728 61.9495 36.3744C61.1292 38.8841 59.948 40.9971 58.4058 42.7215C56.8554 44.4459 54.9605 45.7494 52.7047 46.648C50.4488 47.5385 47.8649 47.9919 44.9528 47.9919C41.0153 47.9919 37.6931 47.1742 34.9778 45.5389" fill="#E4003C"/>
</svg>
