<?xml version="1.0" encoding="UTF-8" standalone="no"?>
<!-- Created with Inkscape (http://www.inkscape.org/) -->
<svg
   xmlns:svg="http://www.w3.org/2000/svg"
   xmlns="http://www.w3.org/2000/svg"
   version="1.0"
   width="956.69287"
   height="335.55118"
   id="svg2">
  <defs
     id="defs4" />
  <g
     transform="translate(610.14503,-772.97952)"
     id="layer1">
    <g
       transform="matrix(4.4660437,0,0,4.4660437,2150.2223,-3561.7321)"
       id="g3986">
      <path
         d="M -412.73014,1037.7759 C -412.21444,1037.7759 -411.79791,1037.3576 -411.79791,1036.8389 L -411.79791,979.44784 C -411.79791,978.92915 -412.21444,978.51085 -412.73014,978.51085 L -421.41774,978.51085 C -421.93345,978.51085 -422.34998,978.92915 -422.34998,979.44784 L -422.34998,1036.8389 C -422.34998,1037.3576 -421.93345,1037.7759 -421.41774,1037.7759 L -412.73014,1037.7759"
         id="path2988"
         style="fill:#000000;fill-opacity:1;fill-rule:nonzero;stroke:none" />
      <path
         d="M -576.68385,994.88321 C -576.84252,994.38961 -576.545,993.98804 -576.0293,993.98804 L -571.60616,993.98804 C -571.09046,993.98804 -570.55492,994.39798 -570.41608,994.89157 L -565.29872,1012.6527 C -565.15988,1013.1547 -564.92186,1013.1547 -564.76319,1012.6611 L -559.42765,994.90831 C -559.26897,994.41471 -558.73343,994.01314 -558.21773,994.01314 L -554.40947,994.01314 C -553.89377,994.01314 -553.33839,994.41471 -553.19955,994.90831 L -547.78467,1012.7113 C -547.64583,1013.2049 -547.38798,1013.2049 -547.24914,1012.7113 L -542.17145,994.88321 C -542.03261,994.38961 -541.49707,993.98804 -540.98137,993.98804 L -536.97476,993.98804 C -536.45906,993.98804 -536.16154,994.38961 -536.32021,994.88321 L -544.3731,1021.4789 C -544.53178,1021.9725 -545.06732,1022.3657 -545.58302,1022.3657 L -549.43096,1022.3573 C -549.94666,1022.3489 -550.4822,1021.9474 -550.64087,1021.4538 L -556.01608,1003.7261 C -556.15492,1003.2325 -556.41277,1003.2325 -556.55162,1003.7261 L -561.94666,1021.4789 C -562.10533,1021.9725 -562.64087,1022.374 -563.15657,1022.374 L -567.24252,1022.374 C -567.75823,1022.374 -568.29376,1021.9725 -568.45244,1021.4789 L -576.68385,994.88321"
         id="path2990"
         style="fill:#000000;fill-opacity:1;fill-rule:nonzero;stroke:none" />
      <path
         d="M -513.45079,1022.374 C -512.93509,1022.374 -512.51856,1021.9474 -512.51856,1021.437 L -512.51856,994.89994 C -512.51856,994.38124 -512.93509,993.96294 -513.45079,993.96294 L -517.21939,993.96294 C -517.73509,993.96294 -518.15162,994.38124 -518.15162,994.89994 L -518.15162,1021.437 C -518.15162,1021.9474 -517.73509,1022.374 -517.21939,1022.374 L -513.45079,1022.374"
         id="path2992"
         style="fill:#000000;fill-opacity:1;fill-rule:nonzero;stroke:none" />
      <path
         d="M -496.84914,1006.9136 L -501.39129,1006.8969 L -502.34336,1006.8969 L -502.32352,1007.8255 L -502.32352,1021.437 C -502.32352,1021.9474 -502.74005,1022.374 -503.25575,1022.374 L -506.86567,1022.374 C -507.38137,1022.374 -507.7979,1021.9474 -507.7979,1021.437 L -507.7979,1007.8506 L -507.81774,1006.9471 L -508.73013,1006.922 L -509.94005,1006.922 C -510.45575,1006.922 -510.87228,1006.4953 -510.87228,1005.985 L -510.87228,1003.3915 C -510.87228,1002.8812 -510.45575,1002.4545 -509.94005,1002.4545 L -508.82931,1002.4545 L -507.91691,1002.4378 L -507.91691,1002.4127 C -507.91691,1002.4127 -508.86898,993.92111 -502.38303,993.92111 L -500.0822,993.92111 L -499.22931,993.96294 C -498.7136,993.96294 -498.29708,994.38124 -498.29708,994.89994 L -498.29708,997.48505 C -498.29708,998.00374 -498.7136,998.36348 -499.22931,998.36348 L -499.36815,998.36348 C -499.54666,998.36348 -500.32022,998.38022 -500.32022,998.38022 C -500.32022,998.38022 -502.66071,997.95355 -502.34336,1002.4127 L -487.09047,1002.4127 L -496.84914,1006.9136"
         id="path2994"
         style="fill:#000000;fill-opacity:1;fill-rule:nonzero;stroke:none" />
      <path
         d="M -471.95658,1006.0937 C -471.95658,1006.0937 -470.50865,1002.7891 -466.40286,1002.4628 C -465.68881,1002.4628 -465.74832,1002.9732 -465.74832,1002.9732 L -465.74832,1007.198 C -465.74832,1007.198 -465.74832,1007.7502 -466.38303,1007.7502 C -467.96981,1007.7084 -471.95658,1008.1267 -471.95658,1013.322 L -471.95658,1014.2757 L -471.95658,1021.4203 C -471.95658,1021.9306 -472.39295,1022.3573 -472.90865,1022.3573 L -476.4789,1022.3657 C -476.9946,1022.3657 -477.41113,1021.9474 -477.41113,1021.437 L -477.41113,1003.3413 C -477.41113,1002.8226 -476.9946,1002.4043 -476.4789,1002.4043 L -472.88881,1002.4043 C -472.37311,1002.4043 -471.95658,1002.8226 -471.95658,1003.3413 L -471.95658,1006.0937"
         id="path2996"
         style="fill:#000000;fill-opacity:1;fill-rule:nonzero;stroke:none" />
      <path
         d="M -451.22931,1022.374 C -451.74501,1022.374 -452.16154,1021.9474 -452.16154,1021.437 L -452.16154,994.89994 C -452.16154,994.38124 -451.74501,993.96294 -451.22931,993.96294 L -447.46072,993.96294 C -446.94501,993.96294 -446.52849,994.38124 -446.52849,994.89994 L -446.52849,1021.437 C -446.52849,1021.9474 -446.94501,1022.374 -447.46072,1022.374 L -451.22931,1022.374"
         id="path2998"
         style="fill:#000000;fill-opacity:1;fill-rule:nonzero;stroke:none" />
      <path
         d="M -456.70369,1006.2108 C -459.61939,1006.2108 -461.06733,1008.9967 -461.06733,1012.4435 C -461.06733,1015.882 -459.61939,1018.6763 -456.70369,1018.6763 C -453.80782,1018.6763 -452.34006,1015.882 -452.34006,1012.4435 C -452.34006,1008.9967 -453.80782,1006.2108 -456.70369,1006.2108 z M -466.16485,1012.4519 C -466.16485,1006.855 -463.13014,1001.3836 -456.34667,1002.0864 C -450.67394,1002.672 -451.58634,1006.7044 -451.54667,1012.4017 C -451.52683,1018.4169 -450.95163,1022.3322 -456.34667,1022.8091 C -463.13014,1023.4114 -466.16485,1018.0655 -466.16485,1012.4519"
         id="path3000"
         style="fill:#000000;fill-opacity:1;fill-rule:nonzero;stroke:none" />
      <path
         d="M -529.61608,1006.2359 C -532.94831,1006.2359 -534.45575,1009.0218 -534.45575,1012.4686 C -534.45575,1015.9071 -532.94831,1018.7014 -529.61608,1018.7014 C -526.44253,1018.7014 -524.77641,1015.9071 -524.77641,1012.4686 C -524.77641,1009.0218 -526.44253,1006.2359 -529.61608,1006.2359 z M -539.47393,1012.4352 C -539.47393,1006.7044 -535.82435,1002.0696 -529.63592,1002.0696 C -523.44749,1002.0696 -519.81774,1006.7044 -519.81774,1012.4352 C -519.81774,1018.1576 -523.44749,1022.7923 -529.63592,1022.7923 C -535.82435,1022.7923 -539.47393,1018.1576 -539.47393,1012.4352"
         id="path3002"
         style="fill:#000000;fill-opacity:1;fill-rule:nonzero;stroke:none" />
      <path
         d="M -488.5979,1006.3949 C -491.93013,1006.3949 -493.43757,1009.1892 -493.43757,1012.6276 C -493.43757,1016.0744 -491.93013,1018.8687 -488.5979,1018.8687 C -485.40452,1018.8687 -483.75823,1016.0744 -483.75823,1012.6276 C -483.75823,1009.1892 -485.40452,1006.3949 -488.5979,1006.3949 z M -498.43592,1012.5941 C -498.43592,1006.8718 -494.80617,1002.2286 -488.61774,1002.2286 C -482.42931,1002.2286 -478.77972,1006.8718 -478.77972,1012.5941 C -478.77972,1018.3165 -482.42931,1022.9597 -488.61774,1022.9597 C -494.80617,1022.9597 -498.43592,1018.3165 -498.43592,1012.5941"
         id="path3004"
         style="fill:#000000;fill-opacity:1;fill-rule:nonzero;stroke:none" />
      <path
         d="M -446.07229,1029.5187 C -446.58799,1029.5187 -447.00452,1029.9453 -447.00452,1030.4557 L -447.00452,1036.8389 C -447.00452,1037.3576 -446.58799,1037.7759 -446.07229,1037.7759 L -432.00948,1037.7759 C -431.49378,1037.7759 -431.07725,1037.3576 -431.07725,1036.8389 L -431.07725,979.44784 C -431.07725,978.92915 -431.49378,978.51085 -432.00948,978.51085 L -446.07229,978.51085 C -446.58799,978.51085 -447.00452,978.92915 -447.00452,979.44784 L -447.00452,985.94827 C -447.00452,986.45859 -446.58799,986.88526 -446.07229,986.88526 L -440.08221,986.88526 C -439.5665,986.88526 -439.13014,987.30357 -439.13014,987.81389 L -439.14997,1028.5817 C -439.14997,1029.092 -439.5665,1029.5187 -440.08221,1029.5187 L -446.07229,1029.5187"
         id="path3006"
         style="fill:#000000;fill-opacity:1;fill-rule:nonzero;stroke:none" />
      <path
         d="M -547.44748,986.79324 C -546.93178,986.79324 -546.51525,986.37493 -546.51525,985.85624 L -546.51525,979.44784 C -546.51525,978.92915 -546.93178,978.51085 -547.44748,978.51085 L -561.51029,978.51085 C -562.026,978.51085 -562.44252,978.92915 -562.44252,979.44784 L -562.44252,985.85624 C -562.44252,986.37493 -562.026,986.79324 -561.51029,986.79324 L -547.44748,986.79324"
         id="path3008"
         style="fill:#000000;fill-opacity:1;fill-rule:nonzero;stroke:none" />
      <path
         d="M -518.60782,986.79324 C -518.09212,986.79324 -517.67559,986.37493 -517.67559,985.85624 L -517.67559,979.44784 C -517.67559,978.92915 -518.09212,978.51085 -518.60782,978.51085 L -532.67063,978.51085 C -533.18633,978.51085 -533.60286,978.92915 -533.60286,979.44784 L -533.60286,985.85624 C -533.60286,986.37493 -533.18633,986.79324 -532.67063,986.79324 L -518.60782,986.79324"
         id="path3010"
         style="fill:#000000;fill-opacity:1;fill-rule:nonzero;stroke:none" />
      <path
         d="M -489.54997,986.79324 C -489.03427,986.79324 -488.5979,986.37493 -488.5979,985.85624 L -488.5979,979.44784 C -488.5979,978.92915 -489.03427,978.51085 -489.54997,978.51085 L -503.59294,978.51085 C -504.10865,978.51085 -504.54501,978.92915 -504.54501,979.44784 L -504.54501,985.85624 C -504.54501,986.37493 -504.10865,986.79324 -503.59294,986.79324 L -489.54997,986.79324"
         id="path3012"
         style="fill:#000000;fill-opacity:1;fill-rule:nonzero;stroke:none" />
      <path
         d="M -460.59129,986.79324 C -460.07559,986.79324 -459.65906,986.37493 -459.65906,985.85624 L -459.65906,979.44784 C -459.65906,978.92915 -460.07559,978.51085 -460.59129,978.51085 L -474.6541,978.51085 C -475.16981,978.51085 -475.58633,978.92915 -475.58633,979.44784 L -475.58633,985.85624 C -475.58633,986.37493 -475.16981,986.79324 -474.6541,986.79324 L -460.59129,986.79324"
         id="path3014"
         style="fill:#000000;fill-opacity:1;fill-rule:nonzero;stroke:none" />
      <path
         d="M -547.44748,1037.8094 C -546.93178,1037.8094 -546.51525,1037.3911 -546.51525,1036.8724 L -546.51525,1030.464 C -546.51525,1029.9537 -546.93178,1029.527 -547.44748,1029.527 L -561.51029,1029.527 C -562.026,1029.527 -562.44252,1029.9537 -562.44252,1030.464 L -562.44252,1036.8724 C -562.44252,1037.3911 -562.026,1037.8094 -561.51029,1037.8094 L -547.44748,1037.8094"
         id="path3016"
         style="fill:#000000;fill-opacity:1;fill-rule:nonzero;stroke:none" />
      <path
         d="M -518.60782,1037.8094 C -518.09212,1037.8094 -517.67559,1037.3911 -517.67559,1036.8724 L -517.67559,1030.464 C -517.67559,1029.9537 -518.09212,1029.527 -518.60782,1029.527 L -532.67063,1029.527 C -533.18633,1029.527 -533.60286,1029.9537 -533.60286,1030.464 L -533.60286,1036.8724 C -533.60286,1037.3911 -533.18633,1037.8094 -532.67063,1037.8094 L -518.60782,1037.8094"
         id="path3018"
         style="fill:#000000;fill-opacity:1;fill-rule:nonzero;stroke:none" />
      <path
         d="M -489.54997,1037.8094 C -489.03427,1037.8094 -488.5979,1037.3911 -488.5979,1036.8724 L -488.5979,1030.464 C -488.5979,1029.9537 -489.03427,1029.527 -489.54997,1029.527 L -503.59294,1029.527 C -504.10865,1029.527 -504.54501,1029.9537 -504.54501,1030.464 L -504.54501,1036.8724 C -504.54501,1037.3911 -504.10865,1037.8094 -503.59294,1037.8094 L -489.54997,1037.8094"
         id="path3020"
         style="fill:#000000;fill-opacity:1;fill-rule:nonzero;stroke:none" />
      <path
         d="M -460.59129,1037.8094 C -460.07559,1037.8094 -459.65906,1037.3911 -459.65906,1036.8724 L -459.65906,1030.464 C -459.65906,1029.9537 -460.07559,1029.527 -460.59129,1029.527 L -474.6541,1029.527 C -475.16981,1029.527 -475.58633,1029.9537 -475.58633,1030.464 L -475.58633,1036.8724 C -475.58633,1037.3911 -475.16981,1037.8094 -474.6541,1037.8094 L -460.59129,1037.8094"
         id="path3022"
         style="fill:#000000;fill-opacity:1;fill-rule:nonzero;stroke:none" />
      <path
         d="M -609.21277,1037.7759 C -609.72847,1037.7759 -610.145,1037.3576 -610.145,1036.8389 L -610.145,979.44784 C -610.145,978.92915 -609.72847,978.51085 -609.21277,978.51085 L -600.545,978.51085 C -600.0293,978.51085 -599.59293,978.92915 -599.59293,979.44784 L -599.59293,1036.8389 C -599.59293,1037.3576 -600.0293,1037.7759 -600.545,1037.7759 L -609.21277,1037.7759"
         id="path3024"
         style="fill:#000000;fill-opacity:1;fill-rule:nonzero;stroke:none" />
      <path
         d="M -576.00947,1029.5187 C -575.49376,1029.5187 -575.07723,1029.9453 -575.07723,1030.4557 L -575.07723,1036.8389 C -575.07723,1037.3576 -575.49376,1037.7759 -576.00947,1037.7759 L -590.07227,1037.7759 C -590.58798,1037.7759 -591.00451,1037.3576 -591.00451,1036.8389 L -591.00451,979.44784 C -591.00451,978.92915 -590.58798,978.51085 -590.07227,978.51085 L -576.00947,978.51085 C -575.49376,978.51085 -575.07723,978.92915 -575.07723,979.44784 L -575.07723,985.94827 C -575.07723,986.45859 -575.49376,986.88526 -576.00947,986.88526 L -581.99955,986.88526 C -582.51525,986.88526 -582.95161,987.30357 -582.95161,987.81389 L -582.93178,1028.5817 C -582.93178,1029.092 -582.51525,1029.5187 -581.99955,1029.5187 L -576.00947,1029.5187"
         id="path3026"
         style="fill:#000000;fill-opacity:1;fill-rule:nonzero;stroke:none" />
    </g>
  </g>
</svg>
